<?xml version="1.0" encoding="utf-8"?>
<!-- Generator: Adobe Illustrator 25.2.1, SVG Export Plug-In . SVG Version: 6.00 Build 0)  -->
<svg version="1.1" id="Layer_2" xmlns="http://www.w3.org/2000/svg" xmlns:xlink="http://www.w3.org/1999/xlink" x="0px" y="0px"
	 viewBox="0 0 232 277.4" style="enable-background:new 0 0 232 277.4;" xml:space="preserve">
<style type="text/css">
	.st0{opacity:0.4;fill:url(#SVGID_1_);}
	.st1{opacity:0.4;fill:url(#SVGID_2_);}
	.st2{opacity:0.4;fill:url(#SVGID_3_);}
	.st3{opacity:0.4;fill:url(#SVGID_4_);}
	.st4{opacity:0.4;fill:url(#SVGID_5_);}
	.st5{opacity:0.4;fill:url(#SVGID_6_);}
	.st6{opacity:0.4;fill:url(#SVGID_7_);}
	.st7{opacity:0.4;fill:url(#SVGID_8_);}
	.st8{opacity:0.4;fill:url(#SVGID_9_);}
	.st9{opacity:0.4;fill:url(#SVGID_10_);}
	.st10{opacity:0.4;fill:url(#SVGID_11_);}
	.st11{opacity:0.4;fill:url(#SVGID_12_);}
	.st12{opacity:0.4;fill:url(#SVGID_13_);}
	.st13{opacity:0.4;fill:url(#SVGID_14_);}
	.st14{opacity:0.4;fill:url(#SVGID_15_);}
	.st15{enable-background:new    ;}
	.st16{fill:url(#SVGID_16_);}
	.st17{fill:url(#SVGID_17_);}
	.st18{fill:url(#SVGID_18_);}
	.st19{fill:#EEF2B5;}
	.st20{fill:url(#SVGID_19_);}
	.st21{fill:url(#SVGID_20_);}
	.st22{fill:url(#SVGID_21_);}
	.st23{opacity:0.23;fill:url(#SVGID_22_);}
	.st24{fill:url(#SVGID_23_);}
	.st25{fill:url(#SVGID_24_);}
	.st26{fill:url(#SVGID_25_);}
	.st27{fill:url(#SVGID_26_);}
	.st28{fill:url(#SVGID_27_);}
	.st29{fill:url(#SVGID_28_);}
	.st30{opacity:0.23;fill:url(#SVGID_29_);}
	.st31{fill:url(#SVGID_30_);}
	.st32{fill:url(#SVGID_31_);}
	.st33{fill:url(#SVGID_32_);}
	.st34{fill:url(#SVGID_33_);}
	.st35{fill:url(#SVGID_34_);}
	.st36{fill:url(#SVGID_35_);}
	.st37{fill:url(#SVGID_36_);}
	.st38{fill:#FFFFFF;}
	.st39{fill:url(#SVGID_37_);}
	.st40{fill:url(#SVGID_38_);}
	.st41{fill:#D8D8D8;}
	.st42{fill:url(#SVGID_39_);}
	.st43{fill:url(#SVGID_40_);}
	.st44{fill:url(#SVGID_41_);}
	.st45{fill:url(#SVGID_42_);}
	.st46{fill:url(#SVGID_43_);}
	.st47{fill:url(#SVGID_44_);}
	.st48{fill:url(#SVGID_45_);}
	.st49{fill:url(#SVGID_46_);}
	.st50{fill:url(#SVGID_47_);}
	.st51{fill:url(#SVGID_48_);}
	.st52{fill:url(#SVGID_49_);}
	.st53{fill:url(#SVGID_50_);}
	.st54{fill:none;}
	.st55{fill:url(#SVGID_51_);}
	.st56{fill:url(#SVGID_52_);}
	.st57{fill:url(#SVGID_53_);}
	.st58{fill:url(#SVGID_54_);}
	.st59{fill:url(#SVGID_55_);}
	.st60{fill:url(#SVGID_56_);}
	.st61{fill:url(#SVGID_57_);}
	.st62{fill:url(#SVGID_58_);}
	.st63{fill:url(#SVGID_59_);}
	.st64{fill:url(#SVGID_60_);}
	.st65{fill:url(#SVGID_61_);}
	.st66{fill:url(#SVGID_62_);}
	.st67{fill:url(#SVGID_63_);}
	.st68{fill:url(#SVGID_64_);}
	.st69{fill:url(#SVGID_65_);}
	.st70{fill:url(#SVGID_66_);}
	.st71{fill:url(#SVGID_67_);}
	.st72{fill:url(#SVGID_68_);}
	.st73{fill:url(#SVGID_69_);}
	.st74{fill:url(#SVGID_70_);}
	.st75{fill:url(#SVGID_71_);}
	.st76{fill:url(#SVGID_72_);}
	.st77{fill:url(#SVGID_73_);}
	.st78{fill:url(#SVGID_74_);}
	.st79{opacity:0.5;}
	.st80{fill:url(#SVGID_75_);}
	.st81{fill:url(#SVGID_76_);}
	.st82{fill:url(#SVGID_77_);}
	.st83{fill:url(#SVGID_78_);}
	.st84{fill:url(#SVGID_79_);}
	.st85{fill:url(#SVGID_80_);}
	.st86{fill:url(#SVGID_81_);}
	.st87{fill:url(#SVGID_82_);}
	.st88{fill:url(#SVGID_83_);}
	.st89{fill:url(#SVGID_84_);}
	.st90{fill:none;stroke:#FFFFFF;stroke-width:2;stroke-miterlimit:10;}
	.st91{fill:url(#SVGID_85_);}
	.st92{fill:url(#SVGID_86_);}
	.st93{fill:#FFDD00;}
	.st94{fill:url(#SVGID_87_);}
	.st95{fill:url(#SVGID_88_);}
	.st96{fill:url(#SVGID_89_);}
	.st97{fill:url(#SVGID_90_);}
	.st98{fill:#F6AF17;}
	.st99{fill:url(#SVGID_91_);}
	.st100{fill:#F1F1F3;}
	.st101{fill:url(#SVGID_92_);}
	.st102{fill:url(#SVGID_93_);}
	.st103{fill:url(#SVGID_94_);}
	.st104{fill:url(#SVGID_95_);}
	.st105{fill:url(#SVGID_96_);}
	.st106{fill:url(#SVGID_97_);}
	.st107{fill:url(#SVGID_98_);}
	.st108{fill:url(#SVGID_99_);}
	.st109{fill:url(#SVGID_100_);}
	.st110{fill:url(#SVGID_101_);}
	.st111{fill:url(#SVGID_102_);}
	.st112{fill:url(#SVGID_103_);}
	.st113{fill:url(#SVGID_104_);}
	.st114{fill:url(#SVGID_105_);}
	.st115{fill:url(#SVGID_106_);}
	.st116{fill:url(#SVGID_107_);}
	.st117{fill:url(#SVGID_108_);}
	.st118{fill:url(#SVGID_109_);}
	.st119{fill:url(#SVGID_110_);}
	.st120{fill:url(#SVGID_111_);}
	.st121{fill:#61A01D;}
	.st122{fill:url(#SVGID_112_);}
	.st123{clip-path:url(#SVGID_114_);enable-background:new    ;}
	.st124{fill:#477513;}
	.st125{fill:#4A7913;}
	.st126{fill:url(#SVGID_115_);}
	.st127{clip-path:url(#SVGID_117_);enable-background:new    ;}
	.st128{fill:#73BD1E;}
	.st129{fill:url(#SVGID_118_);}
	.st130{clip-path:url(#SVGID_120_);enable-background:new    ;}
	.st131{fill:url(#SVGID_121_);}
	.st132{fill:url(#SVGID_122_);}
	.st133{fill:url(#SVGID_123_);}
	.st134{fill:url(#SVGID_124_);}
	.st135{fill:url(#SVGID_125_);}
	.st136{clip-path:url(#SVGID_127_);enable-background:new    ;}
	.st137{fill:#457112;}
	.st138{fill:#436E11;}
	.st139{fill:#3E6510;}
	.st140{fill:url(#SVGID_128_);}
	.st141{fill:url(#SVGID_129_);}
	.st142{clip-path:url(#SVGID_131_);enable-background:new    ;}
	.st143{fill:url(#SVGID_132_);}
	.st144{clip-path:url(#SVGID_134_);enable-background:new    ;}
	.st145{fill:url(#SVGID_135_);}
	.st146{fill:url(#SVGID_136_);}
	.st147{fill:url(#SVGID_137_);}
	.st148{fill:url(#SVGID_138_);}
	.st149{fill:url(#SVGID_139_);}
	.st150{fill:url(#SVGID_140_);}
	.st151{fill:url(#SVGID_141_);}
	.st152{fill:url(#SVGID_142_);}
	.st153{opacity:0.1;fill:#F1F1F3;}
	.st154{fill:url(#SVGID_143_);}
	.st155{fill:url(#SVGID_144_);}
	.st156{fill:url(#SVGID_145_);}
	.st157{fill:url(#SVGID_146_);}
	.st158{fill:url(#SVGID_147_);}
	.st159{fill:url(#SVGID_148_);}
	.st160{fill:url(#SVGID_149_);}
	.st161{fill:url(#SVGID_150_);}
	.st162{fill:url(#SVGID_151_);}
	.st163{fill:url(#SVGID_152_);}
	.st164{fill:url(#SVGID_153_);}
	.st165{fill:url(#SVGID_154_);}
	.st166{fill:url(#SVGID_155_);}
	.st167{fill:url(#SVGID_156_);}
	.st168{fill:url(#SVGID_157_);}
	.st169{fill:url(#SVGID_158_);}
	.st170{fill:url(#SVGID_159_);}
	.st171{fill:url(#SVGID_160_);}
	.st172{fill:url(#SVGID_161_);}
	.st173{fill:url(#SVGID_162_);}
	.st174{fill:url(#SVGID_163_);}
	.st175{fill:url(#SVGID_164_);}
	.st176{opacity:0.5;fill:#00FFFF;}
	.st177{fill:url(#SVGID_165_);}
	.st178{fill:url(#SVGID_166_);}
	.st179{fill:url(#SVGID_167_);}
	.st180{fill:url(#SVGID_168_);}
	.st181{fill:url(#SVGID_169_);}
	.st182{fill:url(#SVGID_170_);}
	.st183{fill:url(#SVGID_171_);}
	.st184{fill:url(#SVGID_172_);}
	.st185{fill:url(#SVGID_173_);}
	.st186{fill:url(#SVGID_174_);}
	.st187{fill:url(#SVGID_175_);}
	.st188{fill:url(#SVGID_176_);}
	.st189{fill:url(#SVGID_177_);}
	.st190{fill:url(#SVGID_178_);}
	.st191{fill:#EB8FF9;}
	.st192{fill:url(#SVGID_179_);}
	.st193{fill:url(#SVGID_180_);}
	.st194{fill:url(#SVGID_181_);}
	.st195{fill:url(#SVGID_182_);}
	.st196{fill:url(#SVGID_183_);}
	.st197{fill:url(#SVGID_184_);}
	.st198{fill:url(#SVGID_185_);}
	.st199{fill:url(#SVGID_186_);}
	.st200{opacity:0.2;fill:#FFFFFF;}
	.st201{fill:url(#SVGID_187_);}
	.st202{fill:url(#SVGID_188_);}
	.st203{fill:url(#SVGID_189_);}
	.st204{fill:url(#SVGID_190_);}
	.st205{fill:url(#SVGID_191_);}
	.st206{fill:url(#SVGID_192_);}
	.st207{fill:url(#SVGID_193_);}
	.st208{fill:url(#SVGID_194_);}
	.st209{opacity:0.4;fill:#FFFFFF;}
	.st210{fill:url(#SVGID_195_);}
	.st211{fill:url(#SVGID_196_);}
	.st212{fill:url(#SVGID_197_);}
	.st213{fill:url(#SVGID_198_);}
	.st214{fill:url(#SVGID_199_);}
	.st215{fill:url(#SVGID_200_);}
	.st216{fill:url(#SVGID_201_);}
	.st217{fill:url(#SVGID_202_);}
	.st218{fill:url(#SVGID_203_);}
	.st219{fill:url(#SVGID_204_);}
	.st220{fill:#00FFFF;}
	.st221{opacity:0.63;}
	.st222{fill:url(#SVGID_205_);}
	.st223{fill:url(#SVGID_206_);}
	.st224{fill:url(#SVGID_207_);}
	.st225{fill:url(#SVGID_208_);}
	.st226{fill:url(#SVGID_209_);}
	.st227{fill:url(#SVGID_210_);}
	.st228{fill:url(#SVGID_211_);}
	.st229{fill:url(#SVGID_212_);}
	.st230{fill:url(#SVGID_213_);}
	.st231{fill:url(#SVGID_214_);}
	.st232{fill:url(#SVGID_215_);}
	.st233{fill:url(#SVGID_216_);}
	.st234{opacity:0.5;fill:#5BBC6F;}
	.st235{opacity:0.5;fill:#EEF2B5;}
	.st236{opacity:0.68;fill:url(#SVGID_217_);}
	.st237{fill:url(#SVGID_218_);}
	.st238{opacity:0.54;fill:url(#SVGID_219_);}
	.st239{fill:url(#SVGID_220_);}
	.st240{fill:url(#SVGID_221_);}
	.st241{fill:url(#SVGID_222_);}
	.st242{fill:url(#SVGID_223_);}
	.st243{fill:url(#SVGID_224_);}
	.st244{fill:url(#SVGID_225_);}
	.st245{fill:url(#SVGID_226_);}
	.st246{fill:url(#SVGID_227_);}
	.st247{fill:url(#SVGID_228_);}
	.st248{fill:url(#SVGID_229_);}
	.st249{fill:url(#SVGID_230_);}
	.st250{fill:url(#SVGID_231_);}
	.st251{fill:url(#SVGID_232_);}
	.st252{fill:url(#SVGID_233_);}
	.st253{fill:url(#SVGID_234_);}
	.st254{fill:url(#SVGID_235_);}
	.st255{fill:url(#SVGID_236_);}
	.st256{fill:url(#SVGID_237_);}
	.st257{fill:url(#SVGID_238_);}
	.st258{fill:url(#SVGID_239_);}
	.st259{fill:url(#SVGID_240_);}
	.st260{fill:url(#SVGID_241_);}
	.st261{fill:url(#SVGID_242_);}
	.st262{fill:url(#SVGID_243_);}
	.st263{fill:url(#SVGID_244_);}
	.st264{fill:url(#SVGID_245_);}
	.st265{fill:url(#SVGID_246_);}
	.st266{fill:url(#SVGID_247_);}
	.st267{fill:url(#SVGID_248_);}
	.st268{fill:url(#SVGID_249_);}
	.st269{fill:url(#SVGID_250_);}
	.st270{fill:url(#SVGID_251_);}
	.st271{fill:url(#SVGID_252_);}
	.st272{fill:url(#SVGID_253_);}
	.st273{fill:url(#SVGID_254_);}
	.st274{fill:url(#SVGID_255_);}
	.st275{fill:url(#SVGID_256_);}
	.st276{fill:url(#SVGID_257_);}
	.st277{fill:url(#SVGID_258_);}
	.st278{fill:url(#SVGID_259_);}
	.st279{fill:url(#SVGID_260_);}
	.st280{fill:url(#SVGID_261_);}
	.st281{fill:url(#SVGID_262_);}
	.st282{fill:url(#SVGID_263_);}
	.st283{fill:url(#SVGID_264_);}
	.st284{fill:#0A8074;}
	.st285{fill:#232323;}
	.st286{fill:url(#SVGID_265_);}
	.st287{fill:url(#SVGID_266_);}
	.st288{fill:url(#SVGID_267_);}
	.st289{fill:url(#SVGID_268_);}
	.st290{fill:url(#SVGID_269_);}
	.st291{fill:url(#SVGID_270_);}
	.st292{fill:url(#SVGID_271_);}
	.st293{fill:url(#SVGID_272_);}
	.st294{fill:url(#SVGID_273_);}
	.st295{fill:url(#SVGID_274_);}
	.st296{fill:url(#SVGID_275_);}
	.st297{fill:url(#SVGID_276_);}
	.st298{fill:url(#SVGID_277_);}
	.st299{fill:#0D0D0D;}
	.st300{fill:url(#SVGID_278_);}
	.st301{fill:url(#SVGID_279_);}
	.st302{fill:url(#SVGID_280_);}
	.st303{fill:url(#SVGID_281_);}
	.st304{fill:url(#SVGID_282_);}
	.st305{fill:url(#SVGID_283_);}
	.st306{fill:url(#SVGID_284_);}
	.st307{fill:url(#SVGID_285_);}
	.st308{fill:url(#SVGID_286_);}
	.st309{fill:url(#SVGID_287_);}
	.st310{fill:url(#SVGID_288_);}
	.st311{fill:url(#SVGID_289_);}
	.st312{fill:url(#SVGID_290_);}
	.st313{fill:url(#SVGID_291_);}
	.st314{fill:url(#SVGID_292_);}
	.st315{fill:url(#SVGID_293_);}
	.st316{fill:url(#SVGID_294_);}
	.st317{fill:url(#SVGID_295_);}
	.st318{opacity:0.68;fill:url(#SVGID_296_);}
	.st319{fill:url(#SVGID_297_);}
	.st320{fill:url(#SVGID_298_);}
	.st321{fill:url(#SVGID_299_);}
	.st322{fill:url(#SVGID_300_);}
	.st323{fill:url(#SVGID_301_);}
	.st324{fill:url(#SVGID_302_);}
	.st325{fill:url(#SVGID_303_);}
	.st326{fill:url(#SVGID_304_);}
	.st327{fill:url(#SVGID_305_);}
	.st328{fill:url(#SVGID_306_);}
	.st329{fill:url(#SVGID_307_);}
	.st330{fill:url(#SVGID_308_);}
	.st331{fill:url(#SVGID_309_);}
	.st332{fill:url(#SVGID_310_);}
	.st333{fill:url(#SVGID_311_);}
	.st334{fill:url(#SVGID_312_);}
	.st335{fill:url(#SVGID_313_);}
	.st336{fill:url(#SVGID_314_);}
	.st337{fill:url(#SVGID_315_);}
	.st338{fill:url(#SVGID_316_);}
	.st339{fill:url(#SVGID_317_);}
	.st340{fill:url(#SVGID_318_);}
	.st341{fill:url(#SVGID_319_);}
	.st342{fill:url(#SVGID_320_);}
	.st343{fill:url(#SVGID_321_);}
	.st344{fill:url(#SVGID_322_);}
	.st345{fill:url(#SVGID_323_);}
	.st346{fill:url(#SVGID_324_);}
	.st347{fill:url(#SVGID_325_);}
	.st348{fill:url(#SVGID_326_);}
	.st349{fill:url(#SVGID_327_);}
	.st350{fill:url(#SVGID_328_);}
	.st351{fill:url(#SVGID_329_);}
	.st352{fill:url(#SVGID_330_);}
	.st353{fill:url(#SVGID_331_);}
	.st354{fill:url(#SVGID_332_);}
	.st355{fill:url(#SVGID_333_);}
	.st356{fill:url(#SVGID_334_);}
	.st357{fill:url(#SVGID_335_);}
	.st358{fill:url(#SVGID_336_);}
	.st359{fill:url(#SVGID_337_);}
	.st360{fill:url(#SVGID_338_);}
	.st361{fill:url(#SVGID_339_);}
	.st362{fill:url(#SVGID_340_);}
	.st363{fill:url(#SVGID_341_);}
	.st364{fill:url(#SVGID_342_);}
	.st365{fill:url(#SVGID_343_);}
	.st366{fill:url(#SVGID_344_);}
	.st367{opacity:0.4;fill:url(#SVGID_345_);}
	.st368{fill:url(#XMLID_6_);}
	.st369{fill:url(#XMLID_21_);}
	.st370{fill:url(#XMLID_22_);}
	.st371{fill:#FFEECC;}
	.st372{fill:url(#XMLID_23_);}
	.st373{fill:url(#XMLID_24_);}
	.st374{fill:url(#SVGID_346_);}
	.st375{fill:url(#XMLID_25_);}
	.st376{fill:url(#XMLID_26_);}
	.st377{fill:url(#XMLID_27_);}
	.st378{fill:url(#XMLID_28_);}
	.st379{fill:url(#XMLID_29_);}
	.st380{fill:url(#SVGID_347_);}
	.st381{opacity:0.4;fill:url(#SVGID_348_);}
	.st382{opacity:0.4;fill:url(#SVGID_349_);}
	.st383{fill:url(#SVGID_350_);}
	.st384{fill:url(#SVGID_351_);}
	.st385{fill:#77D6FC;}
	.st386{fill:url(#SVGID_352_);}
	.st387{opacity:5.000000e-02;fill:#F1F1F3;}
	.st388{fill:url(#SVGID_353_);}
	.st389{fill:url(#SVGID_354_);}
	.st390{fill:url(#SVGID_355_);}
	.st391{fill:url(#SVGID_356_);}
	.st392{opacity:0.5;fill:#5BC8FF;}
	.st393{fill:#9DE5FC;}
	.st394{opacity:0.7;fill:#3DBDFC;}
	.st395{fill:url(#SVGID_357_);}
	.st396{fill:url(#SVGID_358_);}
	.st397{fill:url(#SVGID_359_);}
	.st398{fill:#EAEAEC;}
	.st399{fill:#5A6268;}
	.st400{fill:url(#SVGID_360_);}
	.st401{fill:url(#SVGID_361_);}
	.st402{fill:url(#SVGID_362_);}
	.st403{fill:url(#SVGID_363_);}
	.st404{fill:url(#SVGID_364_);}
	.st405{fill:url(#SVGID_365_);}
	.st406{fill:url(#SVGID_366_);}
	.st407{opacity:0.5;fill:#FFFFFF;}
	.st408{fill:url(#SVGID_367_);}
	.st409{fill:url(#SVGID_368_);}
	.st410{fill:url(#SVGID_369_);}
	.st411{fill:url(#SVGID_370_);}
	.st412{fill:url(#SVGID_371_);}
	.st413{fill:url(#SVGID_372_);}
	.st414{fill:url(#SVGID_373_);}
	.st415{fill:url(#SVGID_374_);}
	.st416{fill:url(#SVGID_375_);}
	.st417{fill:url(#SVGID_376_);}
	.st418{fill:url(#SVGID_377_);}
	.st419{fill:url(#SVGID_378_);}
	.st420{fill:url(#SVGID_379_);}
	.st421{fill:url(#SVGID_380_);}
	.st422{fill:url(#SVGID_381_);}
	.st423{fill:url(#SVGID_382_);}
	.st424{fill:url(#SVGID_383_);}
	.st425{fill:url(#SVGID_384_);}
	.st426{fill:url(#SVGID_385_);}
	.st427{fill:url(#SVGID_386_);}
	.st428{fill:url(#SVGID_387_);}
	.st429{fill:url(#SVGID_388_);}
	.st430{fill:url(#SVGID_389_);}
	.st431{fill:url(#SVGID_390_);}
	.st432{fill:url(#SVGID_391_);}
	.st433{fill:url(#SVGID_392_);}
	.st434{fill:url(#SVGID_393_);}
	.st435{fill:url(#SVGID_394_);}
	.st436{fill:url(#SVGID_395_);}
	.st437{fill:url(#SVGID_396_);}
	.st438{fill:url(#SVGID_397_);}
	.st439{fill:url(#SVGID_398_);}
	.st440{fill:url(#SVGID_399_);}
	.st441{fill:url(#SVGID_400_);}
	.st442{fill:url(#SVGID_401_);}
	.st443{fill:url(#SVGID_402_);}
	.st444{fill:url(#SVGID_403_);}
	.st445{fill:url(#SVGID_404_);}
	.st446{clip-path:url(#SVGID_406_);}
	.st447{fill:url(#SVGID_407_);}
	.st448{fill:url(#SVGID_408_);}
	.st449{fill:url(#SVGID_409_);}
	.st450{fill:url(#SVGID_410_);}
	.st451{filter:url(#Adobe_OpacityMaskFilter);}
	.st452{opacity:0.75;mask:url(#SVGID_411_);}
	.st453{fill:url(#SVGID_412_);}
	.st454{fill:url(#SVGID_413_);}
	.st455{fill:url(#SVGID_414_);}
	.st456{clip-path:url(#SVGID_406_);fill:url(#SVGID_415_);}
	.st457{fill:url(#SVGID_416_);}
	.st458{fill:url(#SVGID_417_);}
	.st459{fill:url(#SVGID_418_);}
	.st460{fill:url(#SVGID_419_);}
	.st461{fill:url(#SVGID_420_);}
</style>
<radialGradient id="SVGID_1_" cx="1068.1409" cy="-565.3406" r="19.5648" gradientTransform="matrix(4.9928 0 0 2.0752 -5217.2271 1366.7594)" gradientUnits="userSpaceOnUse">
	<stop  offset="0" style="stop-color:#EEF2B5"/>
	<stop  offset="0.2143" style="stop-color:#EFF3BA;stop-opacity:0.7857"/>
	<stop  offset="0.4623" style="stop-color:#F2F5C8;stop-opacity:0.5377"/>
	<stop  offset="0.7271" style="stop-color:#F8F9DF;stop-opacity:0.2729"/>
	<stop  offset="1" style="stop-color:#FFFFFF;stop-opacity:0"/>
</radialGradient>
<ellipse class="st0" cx="115.8" cy="193.6" rx="97.7" ry="40.6"/>
<linearGradient id="SVGID_2_" gradientUnits="userSpaceOnUse" x1="49.0015" y1="134.0829" x2="184.1304" y2="134.0829">
	<stop  offset="0" style="stop-color:#EEF2B5"/>
	<stop  offset="1" style="stop-color:#3169FF"/>
</linearGradient>
<path style="fill:url(#SVGID_2_);" d="M182.2,161.5l-37.1-85.1c-2.8-6.4-4.2-13.3-4.2-20.3v-0.1H92.8l0,0c0,7.1-1.5,14.1-4.3,20.5
	l-37.5,85c-5.5,15.5,0.9,33.1,15.6,40.5c0.1,0.1,0.3,0.2,0.4,0.2c13.8,6.9,31.7,10.2,49.5,10.1c17.9,0.2,35.8-3.2,49.6-10.1
	c0.1,0,0.3-0.1,0.4-0.2C181.2,194.5,187.7,177,182.2,161.5z"/>
<g>
	<g>
		<g>
			<linearGradient id="SVGID_3_" gradientUnits="userSpaceOnUse" x1="56.0909" y1="20.1196" x2="122.2157" y2="177.3077">
				<stop  offset="0" style="stop-color:#EEF2B5"/>
				<stop  offset="1" style="stop-color:#3169FF"/>
			</linearGradient>
			<path style="fill:url(#SVGID_3_);" d="M161.3,197.3c-0.1,0.1-0.2,0.2-0.4,0.2c-12.4,6.2-28.4,9.2-44.4,9c-16,0.2-32-2.9-44.4-9
				c-0.1,0-0.2-0.1-0.4-0.2c-13.2-6.7-19-22.4-14-36.3l33.6-76.2c2.6-5.8,3.9-12.1,3.9-18.4v-8h43.1v8.1c0,6.3,1.3,12.5,3.8,18.2
				l33.2,76.3C180.3,174.9,174.5,190.6,161.3,197.3z"/>
			<g>
				<path class="st191" d="M175.4,161l-27.2-62.5H85.3l-27.6,62.5c-5,13.9,0.8,29.6,14,36.3c0.1,0.1,0.2,0.2,0.4,0.2
					c12.4,6.2,28.4,9.2,44.4,9c16,0.2,32.1-2.9,44.4-9c0.1,0,0.2-0.1,0.4-0.2C174.5,190.6,180.3,174.9,175.4,161z"/>
			</g>
			<linearGradient id="SVGID_4_" gradientUnits="userSpaceOnUse" x1="116.5659" y1="79.8696" x2="116.5659" y2="209.1075">
				<stop  offset="0" style="stop-color:#DE157D"/>
				<stop  offset="0.1984" style="stop-color:#CD157D"/>
				<stop  offset="0.5911" style="stop-color:#A1157D"/>
				<stop  offset="1" style="stop-color:#6D157D"/>
			</linearGradient>
			<path style="fill:url(#SVGID_4_);" d="M148.2,98.5H85.3l-27.6,62.5c-5,13.9,0.8,29.6,14,36.3c0.1,0.1,0.2,0.2,0.4,0.2
				c12.4,6.2,28.4,9.2,44.4,9c16,0.2,32.1-2.9,44.4-9c0.1,0,0.2-0.1,0.4-0.2c13.2-6.6,19-22.3,14-36.2L148.2,98.5z"/>
			<radialGradient id="SVGID_5_" cx="121.4769" cy="228.0836" r="64.6755" gradientUnits="userSpaceOnUse">
				<stop  offset="0" style="stop-color:#DE157D;stop-opacity:0"/>
				<stop  offset="0.1984" style="stop-color:#CD157D;stop-opacity:0.1984"/>
				<stop  offset="0.5911" style="stop-color:#A1157D;stop-opacity:0.5911"/>
				<stop  offset="1" style="stop-color:#6D157D"/>
			</radialGradient>
			<ellipse style="fill:url(#SVGID_5_);" cx="116.6" cy="184.8" rx="54.8" ry="22.2"/>
			<g>
				<linearGradient id="SVGID_6_" gradientUnits="userSpaceOnUse" x1="116.8052" y1="79.0194" x2="116.8052" y2="353.5355">
					<stop  offset="0" style="stop-color:#DE157D"/>
					<stop  offset="0.1984" style="stop-color:#CD157D"/>
					<stop  offset="0.5911" style="stop-color:#A1157D"/>
					<stop  offset="1" style="stop-color:#6D157D"/>
				</linearGradient>
				<path style="fill:url(#SVGID_6_);" d="M116.8,116.7c17.3,0,31.3-8.1,31.3-18.2l0,0l-3.8-8.6c-5.3-5.7-15.7-9.5-27.6-9.5
					c-12.1,0-22.5,4-27.8,9.8l-3.5,8c0,0.1,0,0.3,0,0.4C85.5,108.5,99.5,116.7,116.8,116.7z"/>
			</g>
			<g>
				<g>
					<linearGradient id="SVGID_7_" gradientUnits="userSpaceOnUse" x1="80.9403" y1="79.0194" x2="80.9403" y2="353.5355">
						<stop  offset="0" style="stop-color:#DE157D"/>
						<stop  offset="0.1984" style="stop-color:#CD157D"/>
						<stop  offset="0.5911" style="stop-color:#A1157D"/>
						<stop  offset="1" style="stop-color:#6D157D"/>
					</linearGradient>
					<circle style="fill:url(#SVGID_7_);" cx="80.9" cy="169.7" r="12.6"/>
					<linearGradient id="SVGID_8_" gradientUnits="userSpaceOnUse" x1="103.083" y1="79.0194" x2="103.083" y2="353.5355">
						<stop  offset="0" style="stop-color:#DE157D"/>
						<stop  offset="0.1984" style="stop-color:#CD157D"/>
						<stop  offset="0.5911" style="stop-color:#A1157D"/>
						<stop  offset="1" style="stop-color:#6D157D"/>
					</linearGradient>
					<path style="fill:url(#SVGID_8_);" d="M96.8,189.2c0,3.5,2.8,6.3,6.3,6.3c3.5,0,6.3-2.8,6.3-6.3c0-3.5-2.8-6.3-6.3-6.3
						C99.6,183,96.8,185.8,96.8,189.2z"/>
					<linearGradient id="SVGID_9_" gradientUnits="userSpaceOnUse" x1="104.3043" y1="79.0194" x2="104.3043" y2="353.5355">
						<stop  offset="0" style="stop-color:#DE157D"/>
						<stop  offset="0.1984" style="stop-color:#CD157D"/>
						<stop  offset="0.5911" style="stop-color:#A1157D"/>
						<stop  offset="1" style="stop-color:#6D157D"/>
					</linearGradient>
					<path style="fill:url(#SVGID_9_);" d="M99.2,157.5c0,2.8,2.3,5.1,5.1,5.1c2.8,0,5.1-2.3,5.1-5.1c0-2.8-2.3-5.1-5.1-5.1
						C101.5,152.5,99.2,154.7,99.2,157.5z"/>
				</g>
				<g>
					<linearGradient id="SVGID_10_" gradientUnits="userSpaceOnUse" x1="153.9586" y1="79.0194" x2="153.9586" y2="353.5355">
						<stop  offset="0" style="stop-color:#DE157D"/>
						<stop  offset="0.1984" style="stop-color:#CD157D"/>
						<stop  offset="0.5911" style="stop-color:#A1157D"/>
						<stop  offset="1" style="stop-color:#6D157D"/>
					</linearGradient>
					<circle style="fill:url(#SVGID_10_);" cx="154" cy="171.1" r="10.9"/>
					<linearGradient id="SVGID_11_" gradientUnits="userSpaceOnUse" x1="133.4865" y1="79.0194" x2="133.4865" y2="353.5355">
						<stop  offset="0" style="stop-color:#DE157D"/>
						<stop  offset="0.1984" style="stop-color:#CD157D"/>
						<stop  offset="0.5911" style="stop-color:#A1157D"/>
						<stop  offset="1" style="stop-color:#6D157D"/>
					</linearGradient>
					<path style="fill:url(#SVGID_11_);" d="M137.8,143.7c0,2.4-1.9,4.3-4.3,4.3c-2.4,0-4.3-1.9-4.3-4.3c0-2.4,1.9-4.3,4.3-4.3
						C135.9,139.4,137.8,141.3,137.8,143.7z"/>
				</g>
			</g>
		</g>
		<path class="st200" d="M81,197.5c-0.1,0-0.2-0.1-0.4-0.2c-13.2-6.7-19-22.4-14-36.3l33.6-76.2c2.6-5.8,3.9-20,3.9-26.4h-8.8
			c0,6.3-1.3,20.6-3.9,26.4l-33.6,76.2c-5,13.9,0.8,29.6,14,36.3c0.1,0.1,0.2,0.2,0.4,0.2c12.4,6.2,28.4,9.2,44.4,9
			c1.5,0,3,0,4.4-0.1C106.5,206,92.2,203,81,197.5z"/>
	</g>
	<g>
		<g>
			<linearGradient id="SVGID_12_" gradientUnits="userSpaceOnUse" x1="87.0694" y1="35.001" x2="146.6471" y2="35.001">
				<stop  offset="0" style="stop-color:#EEF2B5"/>
				<stop  offset="1" style="stop-color:#3169FF"/>
			</linearGradient>
			<path style="fill:url(#SVGID_12_);" d="M146.6,35.4c0,0.5,0,1-0.2,1.5c0,0.3-0.1,0.6-0.2,0.9c-0.3,1.4-1,2.8-1.9,4.1c0,0,0,0,0,0
				c-0.4,0.5-0.8,1-1.3,1.5c-1.4,1.5-3.2,2.9-5.4,4.1c-11.8,6.5-30.7,6.2-42.1-0.7c-5.6-3.4-8.4-7.8-8.4-12.1c0-4.5,3-9,9-12.3
				c11.8-6.5,30.7-6.2,42.1,0.7C143.9,26.6,146.7,31,146.6,35.4z"/>
		</g>
		<g>
			<linearGradient id="SVGID_13_" gradientUnits="userSpaceOnUse" x1="90.8007" y1="51.6381" x2="122.5406" y2="51.3547">
				<stop  offset="0" style="stop-color:#EEF2B5"/>
				<stop  offset="1" style="stop-color:#3169FF"/>
			</linearGradient>
			<path style="fill:url(#SVGID_13_);" d="M146.6,35.5c0,0.3-0.1,0.6-0.1,0.9c0,0.2,0,0.3,0,0.5c0,0,0,0,0,0.1c0,0,0,0,0,0
				c0,0.3-0.1,0.6-0.2,0.9c-0.3,1.4-1,2.8-1.9,4.1c0,0,0,0,0,0c-0.4,0.5-0.8,1-1.3,1.5c-1.4,1.5-3.2,2.9-5.4,4.1
				c-11.8,6.5-30.7,6.2-42.1-0.7c-5.6-3.4-8.4-7.7-8.4-12c0,1.5-0.1,15.6-0.1,15.8c0,0.3,0,0.6,0,0.9c0.3,4.1,3.1,8.2,8.4,11.4
				c11.5,6.9,30.4,7.2,42.2,0.7c5.7-3.1,8.7-7.3,9-11.6c0-0.2,0-0.5,0-0.7C146.7,51,146.6,37.2,146.6,35.5z"/>
		</g>
		<g>
			<linearGradient id="SVGID_14_" gradientUnits="userSpaceOnUse" x1="118.4879" y1="32.7603" x2="179.1338" y2="60.5327">
				<stop  offset="0" style="stop-color:#EEF2B5"/>
				<stop  offset="1" style="stop-color:#3169FF"/>
			</linearGradient>
			<path style="fill:url(#SVGID_14_);" d="M139.7,32.3c0,0.4,0,0.7-0.1,1.1c0,0.2-0.1,0.4-0.1,0.6c-0.2,1-0.7,2-1.5,3c0,0,0,0,0,0
				c-0.3,0.4-0.6,0.7-1,1.1c-1.1,1.1-2.4,2.1-4.1,3c-9,4.7-23.5,4.5-32.3-0.5C96.2,38.1,94,35,94,31.8c0-3.3,2.3-6.5,6.9-8.9
				c9-4.7,23.5-4.5,32.3,0.5C137.6,25.9,139.8,29.1,139.7,32.3z"/>
		</g>
		<linearGradient id="SVGID_15_" gradientUnits="userSpaceOnUse" x1="144.406" y1="45.636" x2="109.2653" y2="26.9321">
			<stop  offset="0" style="stop-color:#EEF2B5"/>
			<stop  offset="1" style="stop-color:#3169FF"/>
		</linearGradient>
		<path style="fill:url(#SVGID_15_);" d="M100.9,30.7c9-4.7,23.5-4.5,32.3,0.5c2.5,1.4,4.2,3.1,5.3,4.9c0.4-0.7,0.8-1.4,0.9-2.1
			c0.1-0.2,0.1-0.4,0.1-0.6c0.1-0.4,0.1-0.7,0.1-1.1c0.1-3.2-2.1-6.4-6.5-8.9c-8.8-5-23.3-5.2-32.3-0.5c-4.6,2.4-6.9,5.6-6.9,8.9
			c0,1.3,0.5,2.6,1.2,3.9C96.3,33.9,98.2,32.1,100.9,30.7z"/>
	</g>
</g>
</svg>
