<?xml version="1.0" encoding="utf-8"?>
<!-- Generator: Adobe Illustrator 25.2.1, SVG Export Plug-In . SVG Version: 6.00 Build 0)  -->
<svg version="1.1" id="Layer_2" xmlns="http://www.w3.org/2000/svg" xmlns:xlink="http://www.w3.org/1999/xlink" x="0px" y="0px"
	 viewBox="0 0 232 281.3" style="enable-background:new 0 0 232 281.3;" xml:space="preserve">
<style type="text/css">
	.st0{opacity:0.4;fill:url(#SVGID_1_);}
	.st1{opacity:0.4;fill:url(#SVGID_2_);}
	.st2{opacity:0.4;fill:url(#SVGID_3_);}
	.st3{opacity:0.4;fill:url(#SVGID_4_);}
	.st4{opacity:0.4;fill:url(#SVGID_5_);}
	.st5{opacity:0.4;fill:url(#SVGID_6_);}
	.st6{opacity:0.4;fill:url(#SVGID_7_);}
	.st7{opacity:0.4;fill:url(#SVGID_8_);}
	.st8{opacity:0.4;fill:url(#SVGID_9_);}
	.st9{opacity:0.4;fill:url(#SVGID_10_);}
	.st10{opacity:0.4;fill:url(#SVGID_11_);}
	.st11{opacity:0.4;fill:url(#SVGID_12_);}
	.st12{opacity:0.4;fill:url(#SVGID_13_);}
	.st13{opacity:0.4;fill:url(#SVGID_14_);}
	.st14{opacity:0.4;fill:url(#SVGID_15_);}
	.st15{enable-background:new    ;}
	.st16{fill:url(#SVGID_16_);}
	.st17{fill:url(#SVGID_17_);}
	.st18{fill:url(#SVGID_18_);}
	.st19{fill:#EEF2B5;}
	.st20{fill:url(#SVGID_19_);}
	.st21{fill:url(#SVGID_20_);}
	.st22{fill:url(#SVGID_21_);}
	.st23{opacity:0.23;fill:url(#SVGID_22_);}
	.st24{fill:url(#SVGID_23_);}
	.st25{fill:url(#SVGID_24_);}
	.st26{fill:url(#SVGID_25_);}
	.st27{fill:url(#SVGID_26_);}
	.st28{fill:url(#SVGID_27_);}
	.st29{fill:url(#SVGID_28_);}
	.st30{opacity:0.23;fill:url(#SVGID_29_);}
	.st31{fill:url(#SVGID_30_);}
	.st32{fill:url(#SVGID_31_);}
	.st33{fill:url(#SVGID_32_);}
	.st34{fill:url(#SVGID_33_);}
	.st35{fill:url(#SVGID_34_);}
	.st36{fill:url(#SVGID_35_);}
	.st37{fill:url(#SVGID_36_);}
	.st38{fill:#FFFFFF;}
	.st39{fill:url(#SVGID_37_);}
	.st40{fill:url(#SVGID_38_);}
	.st41{fill:#D8D8D8;}
	.st42{fill:url(#SVGID_39_);}
	.st43{fill:url(#SVGID_40_);}
	.st44{fill:url(#SVGID_41_);}
	.st45{fill:url(#SVGID_42_);}
	.st46{fill:url(#SVGID_43_);}
	.st47{fill:url(#SVGID_44_);}
	.st48{fill:url(#SVGID_45_);}
	.st49{fill:url(#SVGID_46_);}
	.st50{fill:url(#SVGID_47_);}
	.st51{fill:url(#SVGID_48_);}
	.st52{fill:url(#SVGID_49_);}
	.st53{fill:url(#SVGID_50_);}
	.st54{fill:none;}
	.st55{fill:url(#SVGID_51_);}
	.st56{fill:url(#SVGID_52_);}
	.st57{fill:url(#SVGID_53_);}
	.st58{fill:url(#SVGID_54_);}
	.st59{fill:url(#SVGID_55_);}
	.st60{fill:url(#SVGID_56_);}
	.st61{fill:url(#SVGID_57_);}
	.st62{fill:url(#SVGID_58_);}
	.st63{fill:url(#SVGID_59_);}
	.st64{fill:url(#SVGID_60_);}
	.st65{fill:url(#SVGID_61_);}
	.st66{fill:url(#SVGID_62_);}
	.st67{fill:url(#SVGID_63_);}
	.st68{fill:url(#SVGID_64_);}
	.st69{fill:url(#SVGID_65_);}
	.st70{fill:url(#SVGID_66_);}
	.st71{fill:url(#SVGID_67_);}
	.st72{fill:url(#SVGID_68_);}
	.st73{fill:url(#SVGID_69_);}
	.st74{fill:url(#SVGID_70_);}
	.st75{fill:url(#SVGID_71_);}
	.st76{fill:url(#SVGID_72_);}
	.st77{fill:url(#SVGID_73_);}
	.st78{fill:url(#SVGID_74_);}
	.st79{opacity:0.5;}
	.st80{fill:url(#SVGID_75_);}
	.st81{fill:url(#SVGID_76_);}
	.st82{fill:url(#SVGID_77_);}
	.st83{fill:url(#SVGID_78_);}
	.st84{fill:url(#SVGID_79_);}
	.st85{fill:url(#SVGID_80_);}
	.st86{fill:url(#SVGID_81_);}
	.st87{fill:url(#SVGID_82_);}
	.st88{fill:url(#SVGID_83_);}
	.st89{fill:url(#SVGID_84_);}
	.st90{fill:none;stroke:#FFFFFF;stroke-width:2;stroke-miterlimit:10;}
	.st91{fill:url(#SVGID_85_);}
	.st92{fill:url(#SVGID_86_);}
	.st93{fill:#FFDD00;}
	.st94{fill:url(#SVGID_87_);}
	.st95{fill:url(#SVGID_88_);}
	.st96{fill:url(#SVGID_89_);}
	.st97{fill:url(#SVGID_90_);}
	.st98{fill:#F6AF17;}
	.st99{fill:url(#SVGID_91_);}
	.st100{fill:#F1F1F3;}
	.st101{fill:url(#SVGID_92_);}
	.st102{fill:url(#SVGID_93_);}
	.st103{fill:url(#SVGID_94_);}
	.st104{fill:url(#SVGID_95_);}
	.st105{fill:url(#SVGID_96_);}
	.st106{fill:url(#SVGID_97_);}
	.st107{fill:url(#SVGID_98_);}
	.st108{fill:url(#SVGID_99_);}
	.st109{fill:url(#SVGID_100_);}
	.st110{fill:url(#SVGID_101_);}
	.st111{fill:url(#SVGID_102_);}
	.st112{fill:url(#SVGID_103_);}
	.st113{fill:url(#SVGID_104_);}
	.st114{fill:url(#SVGID_105_);}
	.st115{fill:url(#SVGID_106_);}
	.st116{fill:url(#SVGID_107_);}
	.st117{fill:url(#SVGID_108_);}
	.st118{fill:url(#SVGID_109_);}
	.st119{fill:url(#SVGID_110_);}
	.st120{fill:url(#SVGID_111_);}
	.st121{fill:#61A01D;}
	.st122{fill:url(#SVGID_112_);}
	.st123{clip-path:url(#SVGID_114_);enable-background:new    ;}
	.st124{fill:#477513;}
	.st125{fill:#4A7913;}
	.st126{fill:url(#SVGID_115_);}
	.st127{clip-path:url(#SVGID_117_);enable-background:new    ;}
	.st128{fill:#73BD1E;}
	.st129{fill:url(#SVGID_118_);}
	.st130{clip-path:url(#SVGID_120_);enable-background:new    ;}
	.st131{fill:url(#SVGID_121_);}
	.st132{fill:url(#SVGID_122_);}
	.st133{fill:url(#SVGID_123_);}
	.st134{fill:url(#SVGID_124_);}
	.st135{fill:url(#SVGID_125_);}
	.st136{clip-path:url(#SVGID_127_);enable-background:new    ;}
	.st137{fill:#457112;}
	.st138{fill:#436E11;}
	.st139{fill:#3E6510;}
	.st140{fill:url(#SVGID_128_);}
	.st141{fill:url(#SVGID_129_);}
	.st142{clip-path:url(#SVGID_131_);enable-background:new    ;}
	.st143{fill:url(#SVGID_132_);}
	.st144{clip-path:url(#SVGID_134_);enable-background:new    ;}
	.st145{fill:url(#SVGID_135_);}
	.st146{fill:url(#SVGID_136_);}
	.st147{fill:url(#SVGID_137_);}
	.st148{fill:url(#SVGID_138_);}
	.st149{fill:url(#SVGID_139_);}
	.st150{fill:url(#SVGID_140_);}
	.st151{fill:url(#SVGID_141_);}
	.st152{fill:url(#SVGID_142_);}
	.st153{opacity:0.1;fill:#F1F1F3;}
	.st154{fill:url(#SVGID_143_);}
	.st155{fill:url(#SVGID_144_);}
	.st156{fill:url(#SVGID_145_);}
	.st157{fill:url(#SVGID_146_);}
	.st158{fill:url(#SVGID_147_);}
	.st159{fill:url(#SVGID_148_);}
	.st160{fill:url(#SVGID_149_);}
	.st161{fill:url(#SVGID_150_);}
	.st162{fill:url(#SVGID_151_);}
	.st163{fill:url(#SVGID_152_);}
	.st164{fill:url(#SVGID_153_);}
	.st165{fill:url(#SVGID_154_);}
	.st166{fill:url(#SVGID_155_);}
	.st167{fill:url(#SVGID_156_);}
	.st168{fill:url(#SVGID_157_);}
	.st169{fill:url(#SVGID_158_);}
	.st170{fill:url(#SVGID_159_);}
	.st171{fill:url(#SVGID_160_);}
	.st172{fill:url(#SVGID_161_);}
	.st173{fill:url(#SVGID_162_);}
	.st174{fill:url(#SVGID_163_);}
	.st175{fill:url(#SVGID_164_);}
	.st176{opacity:0.5;fill:#00FFFF;}
	.st177{fill:url(#SVGID_165_);}
	.st178{fill:url(#SVGID_166_);}
	.st179{fill:url(#SVGID_167_);}
	.st180{fill:url(#SVGID_168_);}
	.st181{fill:url(#SVGID_169_);}
	.st182{fill:url(#SVGID_170_);}
	.st183{fill:url(#SVGID_171_);}
	.st184{fill:url(#SVGID_172_);}
	.st185{fill:url(#SVGID_173_);}
	.st186{fill:url(#SVGID_174_);}
	.st187{fill:url(#SVGID_175_);}
	.st188{fill:url(#SVGID_176_);}
	.st189{fill:url(#SVGID_177_);}
	.st190{fill:url(#SVGID_178_);}
	.st191{fill:#EB8FF9;}
	.st192{fill:url(#SVGID_179_);}
	.st193{fill:url(#SVGID_180_);}
	.st194{fill:url(#SVGID_181_);}
	.st195{fill:url(#SVGID_182_);}
	.st196{fill:url(#SVGID_183_);}
	.st197{fill:url(#SVGID_184_);}
	.st198{fill:url(#SVGID_185_);}
	.st199{fill:url(#SVGID_186_);}
	.st200{opacity:0.2;fill:#FFFFFF;}
	.st201{fill:url(#SVGID_187_);}
	.st202{fill:url(#SVGID_188_);}
	.st203{fill:url(#SVGID_189_);}
	.st204{fill:url(#SVGID_190_);}
	.st205{fill:url(#SVGID_191_);}
	.st206{fill:url(#SVGID_192_);}
	.st207{fill:url(#SVGID_193_);}
	.st208{fill:url(#SVGID_194_);}
	.st209{opacity:0.4;fill:#FFFFFF;}
	.st210{fill:url(#SVGID_195_);}
	.st211{fill:url(#SVGID_196_);}
	.st212{fill:url(#SVGID_197_);}
	.st213{fill:url(#SVGID_198_);}
	.st214{fill:url(#SVGID_199_);}
	.st215{fill:url(#SVGID_200_);}
	.st216{fill:url(#SVGID_201_);}
	.st217{fill:url(#SVGID_202_);}
	.st218{fill:url(#SVGID_203_);}
	.st219{fill:url(#SVGID_204_);}
	.st220{fill:#00FFFF;}
	.st221{opacity:0.63;}
	.st222{fill:url(#SVGID_205_);}
	.st223{fill:url(#SVGID_206_);}
	.st224{fill:url(#SVGID_207_);}
	.st225{fill:url(#SVGID_208_);}
	.st226{fill:url(#SVGID_209_);}
	.st227{fill:url(#SVGID_210_);}
	.st228{fill:url(#SVGID_211_);}
	.st229{fill:url(#SVGID_212_);}
	.st230{fill:url(#SVGID_213_);}
	.st231{fill:url(#SVGID_214_);}
	.st232{fill:url(#SVGID_215_);}
	.st233{fill:url(#SVGID_216_);}
	.st234{opacity:0.5;fill:#5BBC6F;}
	.st235{opacity:0.5;fill:#EEF2B5;}
	.st236{opacity:0.68;fill:url(#SVGID_217_);}
	.st237{fill:url(#SVGID_218_);}
	.st238{opacity:0.54;fill:url(#SVGID_219_);}
	.st239{fill:url(#SVGID_220_);}
	.st240{fill:url(#SVGID_221_);}
	.st241{fill:url(#SVGID_222_);}
	.st242{fill:url(#SVGID_223_);}
	.st243{fill:url(#SVGID_224_);}
	.st244{fill:url(#SVGID_225_);}
	.st245{fill:url(#SVGID_226_);}
	.st246{fill:url(#SVGID_227_);}
	.st247{fill:url(#SVGID_228_);}
	.st248{fill:url(#SVGID_229_);}
	.st249{fill:url(#SVGID_230_);}
	.st250{fill:url(#SVGID_231_);}
	.st251{fill:url(#SVGID_232_);}
	.st252{fill:url(#SVGID_233_);}
	.st253{fill:url(#SVGID_234_);}
	.st254{fill:url(#SVGID_235_);}
	.st255{fill:url(#SVGID_236_);}
	.st256{fill:url(#SVGID_237_);}
	.st257{fill:url(#SVGID_238_);}
	.st258{fill:url(#SVGID_239_);}
	.st259{fill:url(#SVGID_240_);}
	.st260{fill:url(#SVGID_241_);}
	.st261{fill:url(#SVGID_242_);}
	.st262{fill:url(#SVGID_243_);}
	.st263{fill:url(#SVGID_244_);}
	.st264{fill:url(#SVGID_245_);}
	.st265{fill:url(#SVGID_246_);}
	.st266{fill:url(#SVGID_247_);}
	.st267{fill:url(#SVGID_248_);}
	.st268{fill:url(#SVGID_249_);}
	.st269{fill:url(#SVGID_250_);}
	.st270{fill:url(#SVGID_251_);}
	.st271{fill:url(#SVGID_252_);}
	.st272{fill:url(#SVGID_253_);}
	.st273{fill:url(#SVGID_254_);}
	.st274{fill:url(#SVGID_255_);}
	.st275{fill:url(#SVGID_256_);}
	.st276{fill:url(#SVGID_257_);}
	.st277{fill:url(#SVGID_258_);}
	.st278{fill:url(#SVGID_259_);}
	.st279{fill:url(#SVGID_260_);}
	.st280{fill:url(#SVGID_261_);}
	.st281{fill:url(#SVGID_262_);}
	.st282{fill:url(#SVGID_263_);}
	.st283{fill:url(#SVGID_264_);}
	.st284{fill:#0A8074;}
	.st285{fill:#232323;}
	.st286{fill:url(#SVGID_265_);}
	.st287{fill:url(#SVGID_266_);}
	.st288{fill:url(#SVGID_267_);}
	.st289{fill:url(#SVGID_268_);}
	.st290{fill:url(#SVGID_269_);}
	.st291{fill:url(#SVGID_270_);}
	.st292{fill:url(#SVGID_271_);}
	.st293{fill:url(#SVGID_272_);}
	.st294{fill:url(#SVGID_273_);}
	.st295{fill:url(#SVGID_274_);}
	.st296{fill:url(#SVGID_275_);}
	.st297{fill:url(#SVGID_276_);}
	.st298{fill:url(#SVGID_277_);}
	.st299{fill:#0D0D0D;}
	.st300{fill:url(#SVGID_278_);}
	.st301{fill:url(#SVGID_279_);}
	.st302{fill:url(#SVGID_280_);}
	.st303{fill:url(#SVGID_281_);}
	.st304{fill:url(#SVGID_282_);}
	.st305{fill:url(#SVGID_283_);}
	.st306{fill:url(#SVGID_284_);}
	.st307{fill:url(#SVGID_285_);}
	.st308{fill:url(#SVGID_286_);}
	.st309{fill:url(#SVGID_287_);}
	.st310{fill:url(#SVGID_288_);}
	.st311{fill:url(#SVGID_289_);}
	.st312{fill:url(#SVGID_290_);}
	.st313{fill:url(#SVGID_291_);}
	.st314{fill:url(#SVGID_292_);}
	.st315{fill:url(#SVGID_293_);}
	.st316{fill:url(#SVGID_294_);}
	.st317{fill:url(#SVGID_295_);}
	.st318{opacity:0.68;fill:url(#SVGID_296_);}
	.st319{fill:url(#SVGID_297_);}
	.st320{fill:url(#SVGID_298_);}
	.st321{fill:url(#SVGID_299_);}
	.st322{fill:url(#SVGID_300_);}
	.st323{fill:url(#SVGID_301_);}
	.st324{fill:url(#SVGID_302_);}
	.st325{fill:url(#SVGID_303_);}
	.st326{fill:url(#SVGID_304_);}
	.st327{fill:url(#SVGID_305_);}
	.st328{fill:url(#SVGID_306_);}
	.st329{fill:url(#SVGID_307_);}
	.st330{fill:url(#SVGID_308_);}
	.st331{fill:url(#SVGID_309_);}
	.st332{fill:url(#SVGID_310_);}
	.st333{fill:url(#SVGID_311_);}
	.st334{fill:url(#SVGID_312_);}
	.st335{fill:url(#SVGID_313_);}
	.st336{fill:url(#SVGID_314_);}
	.st337{fill:url(#SVGID_315_);}
	.st338{fill:url(#SVGID_316_);}
	.st339{fill:url(#SVGID_317_);}
	.st340{fill:url(#SVGID_318_);}
	.st341{fill:url(#SVGID_319_);}
	.st342{fill:url(#SVGID_320_);}
	.st343{fill:url(#SVGID_321_);}
	.st344{fill:url(#SVGID_322_);}
	.st345{fill:url(#SVGID_323_);}
	.st346{fill:url(#SVGID_324_);}
	.st347{fill:url(#SVGID_325_);}
	.st348{fill:url(#SVGID_326_);}
	.st349{fill:url(#SVGID_327_);}
	.st350{fill:url(#SVGID_328_);}
	.st351{fill:url(#SVGID_329_);}
	.st352{fill:url(#SVGID_330_);}
	.st353{fill:url(#SVGID_331_);}
	.st354{fill:url(#SVGID_332_);}
	.st355{fill:url(#SVGID_333_);}
	.st356{fill:url(#SVGID_334_);}
	.st357{fill:url(#SVGID_335_);}
	.st358{fill:url(#SVGID_336_);}
	.st359{fill:url(#SVGID_337_);}
	.st360{fill:url(#SVGID_338_);}
	.st361{fill:url(#SVGID_339_);}
	.st362{fill:url(#SVGID_340_);}
	.st363{fill:url(#SVGID_341_);}
	.st364{fill:url(#SVGID_342_);}
	.st365{fill:url(#SVGID_343_);}
	.st366{fill:url(#SVGID_344_);}
	.st367{opacity:0.4;fill:url(#SVGID_345_);}
	.st368{fill:url(#XMLID_6_);}
	.st369{fill:url(#XMLID_21_);}
	.st370{fill:url(#XMLID_22_);}
	.st371{fill:#FFEECC;}
	.st372{fill:url(#XMLID_23_);}
	.st373{fill:url(#XMLID_24_);}
	.st374{fill:url(#SVGID_346_);}
	.st375{fill:url(#XMLID_25_);}
	.st376{fill:url(#XMLID_26_);}
	.st377{fill:url(#XMLID_27_);}
	.st378{fill:url(#XMLID_28_);}
	.st379{fill:url(#XMLID_29_);}
	.st380{fill:url(#SVGID_347_);}
	.st381{opacity:0.4;fill:url(#SVGID_348_);}
	.st382{opacity:0.4;fill:url(#SVGID_349_);}
	.st383{fill:url(#SVGID_350_);}
	.st384{fill:url(#SVGID_351_);}
	.st385{fill:#77D6FC;}
	.st386{fill:url(#SVGID_352_);}
	.st387{opacity:5.000000e-02;fill:#F1F1F3;}
	.st388{fill:url(#SVGID_353_);}
	.st389{fill:url(#SVGID_354_);}
	.st390{fill:url(#SVGID_355_);}
	.st391{fill:url(#SVGID_356_);}
	.st392{opacity:0.5;fill:#5BC8FF;}
	.st393{fill:#9DE5FC;}
	.st394{opacity:0.7;fill:#3DBDFC;}
	.st395{fill:url(#SVGID_357_);}
	.st396{fill:url(#SVGID_358_);}
	.st397{fill:url(#SVGID_359_);}
	.st398{fill:#EAEAEC;}
	.st399{fill:#5A6268;}
	.st400{fill:url(#SVGID_360_);}
	.st401{fill:url(#SVGID_361_);}
	.st402{fill:url(#SVGID_362_);}
	.st403{fill:url(#SVGID_363_);}
	.st404{fill:url(#SVGID_364_);}
	.st405{fill:url(#SVGID_365_);}
	.st406{fill:url(#SVGID_366_);}
	.st407{opacity:0.5;fill:#FFFFFF;}
	.st408{fill:url(#SVGID_367_);}
	.st409{fill:url(#SVGID_368_);}
	.st410{fill:url(#SVGID_369_);}
	.st411{fill:url(#SVGID_370_);}
	.st412{fill:url(#SVGID_371_);}
	.st413{fill:url(#SVGID_372_);}
	.st414{fill:url(#SVGID_373_);}
	.st415{fill:url(#SVGID_374_);}
	.st416{fill:url(#SVGID_375_);}
	.st417{fill:url(#SVGID_376_);}
	.st418{fill:url(#SVGID_377_);}
	.st419{fill:url(#SVGID_378_);}
	.st420{fill:url(#SVGID_379_);}
	.st421{fill:url(#SVGID_380_);}
	.st422{fill:url(#SVGID_381_);}
	.st423{fill:url(#SVGID_382_);}
	.st424{fill:url(#SVGID_383_);}
	.st425{fill:url(#SVGID_384_);}
	.st426{fill:url(#SVGID_385_);}
	.st427{fill:url(#SVGID_386_);}
	.st428{fill:url(#SVGID_387_);}
	.st429{fill:url(#SVGID_388_);}
	.st430{fill:url(#SVGID_389_);}
	.st431{fill:url(#SVGID_390_);}
	.st432{fill:url(#SVGID_391_);}
	.st433{fill:url(#SVGID_392_);}
	.st434{fill:url(#SVGID_393_);}
	.st435{fill:url(#SVGID_394_);}
	.st436{fill:url(#SVGID_395_);}
	.st437{fill:url(#SVGID_396_);}
	.st438{fill:url(#SVGID_397_);}
	.st439{fill:url(#SVGID_398_);}
	.st440{fill:url(#SVGID_399_);}
	.st441{fill:url(#SVGID_400_);}
	.st442{fill:url(#SVGID_401_);}
	.st443{fill:url(#SVGID_402_);}
	.st444{fill:url(#SVGID_403_);}
	.st445{fill:url(#SVGID_404_);}
	.st446{clip-path:url(#SVGID_406_);}
	.st447{fill:url(#SVGID_407_);}
	.st448{fill:url(#SVGID_408_);}
	.st449{fill:url(#SVGID_409_);}
	.st450{fill:url(#SVGID_410_);}
	.st451{filter:url(#Adobe_OpacityMaskFilter);}
	.st452{opacity:0.75;mask:url(#SVGID_411_);}
	.st453{fill:url(#SVGID_412_);}
	.st454{fill:url(#SVGID_413_);}
	.st455{fill:url(#SVGID_414_);}
	.st456{clip-path:url(#SVGID_406_);fill:url(#SVGID_415_);}
	.st457{fill:url(#SVGID_416_);}
	.st458{fill:url(#SVGID_417_);}
	.st459{fill:url(#SVGID_418_);}
	.st460{fill:url(#SVGID_419_);}
	.st461{fill:url(#SVGID_420_);}
</style>
<radialGradient id="SVGID_1_" cx="1463.4702" cy="-1409.6937" r="16.9308" gradientTransform="matrix(5.1291 0.6106 -0.3044 2.5567 -7812.186 2895.054)" gradientUnits="userSpaceOnUse">
	<stop  offset="0" style="stop-color:#EEF2B5"/>
	<stop  offset="0.2109" style="stop-color:#F0F4BE;stop-opacity:0.7891"/>
	<stop  offset="0.5547" style="stop-color:#F6F8D6;stop-opacity:0.4453"/>
	<stop  offset="0.9866" style="stop-color:#FFFFFE;stop-opacity:1.342875e-02"/>
	<stop  offset="1" style="stop-color:#FFFFFF;stop-opacity:0"/>
</radialGradient>
<path class="st0" d="M210.1,194.8c-2.8,23.9-44,38.7-92,32.9s-84.5-29.7-81.7-53.6c2.8-23.9,44-38.7,92-32.9
	S212.9,170.9,210.1,194.8z"/>
<g>
	<g>
		<g>
			<g class="st15">
				<g>
					<path class="st398" d="M78.7,113.7l7.6-4.4c0,2.3,1.6,5.2,3.7,6.4l-7.6,4.4C80.4,118.9,78.7,116,78.7,113.7z"/>
				</g>
				<g>
					<path class="st399" d="M138.5,135.6c0,2.4,1.7,5.3,3.8,6.5l-7.6,4.4c-2.1-1.2-3.8-4.1-3.8-6.5c0-1.2,0.4-2.1,1.1-2.5l7.6-4.4
						C138.9,133.5,138.5,134.4,138.5,135.6z"/>
				</g>
				<g>
					<path class="st399" d="M142.2,142.1c1.1,0.6,2,0.7,2.7,0.3l-7.6,4.4c-0.7,0.4-1.7,0.3-2.7-0.3
						C136.9,145.2,140,143.4,142.2,142.1z"/>
				</g>
				<g>
					<path class="st398" d="M132,137.5l7.6-4.4c0.7-0.4,1.6-0.3,2.7,0.3l-7.6,4.4C133.6,137.2,132.7,137.1,132,137.5z"/>
				</g>
				<g>
					<path class="st398" d="M145,142.4l-7.6,4.4c0.7-0.4,1.1-1.2,1.1-2.4c0-2.4-1.7-5.4-3.8-6.6l7.6-4.4c2.1,1.2,3.8,4.2,3.8,6.6
						C146.1,141.1,145.6,142,145,142.4z"/>
				</g>
				<g>
					<polygon class="st398" points="82.4,120 90,115.6 194.5,175.9 186.9,180.4 					"/>
				</g>
				<g>
					<path class="st398" d="M134.7,137.8c2.1,1.2,3.8,4.2,3.8,6.6s-1.7,3.4-3.8,2.1c-2.1-1.2-3.8-4.1-3.8-6.5
						C130.9,137.6,132.6,136.6,134.7,137.8z"/>
				</g>
				<g>
					<polygon class="st398" points="79,28.8 86.6,24.3 86.3,109.3 78.7,113.7 					"/>
				</g>
				<g>
					<polygon class="st399" points="85.6,36.2 93.2,31.8 93,100.2 85.4,104.6 					"/>
				</g>
				<g>
					<path class="st398" d="M80,26.4l7.6-4.4c-0.7,0.4-1.1,1.2-1.1,2.4L79,28.8C79,27.6,79.4,26.8,80,26.4z"/>
				</g>
				<g>
					<path class="st399" d="M80,26.4l7.6-4.4c0.7-0.4,1.6-0.3,2.6,0.3l-7.6,4.4C81.6,26.1,80.7,26,80,26.4z"/>
				</g>
				<g>
					<linearGradient id="SVGID_2_" gradientUnits="userSpaceOnUse" x1="80.5955" y1="11.4525" x2="116.0789" y2="108.6012">
						<stop  offset="0" style="stop-color:#EEF2B5"/>
						<stop  offset="1" style="stop-color:#3169FF"/>
					</linearGradient>
					<path style="fill:url(#SVGID_2_);" d="M78.7,24.1l7.6-4.4c1-0.6,2.4-0.5,4,0.4l-7.6,4.4C81.1,23.6,79.7,23.5,78.7,24.1z"/>
				</g>
				<g>
					<polygon class="st399" points="85.4,104.6 93,100.2 191.6,157.2 184,161.6 					"/>
				</g>
				<g>
					<polygon class="st398" points="184.2,93.2 191.8,88.8 191.6,157.2 184,161.6 					"/>
				</g>
				<g>
					<polygon class="st399" points="190.8,93.3 198.4,88.9 198.2,173.8 190.6,178.3 					"/>
				</g>
				<g>
					<path class="st398" d="M197.1,176.2l-7.6,4.4c-0.7,0.4-1.6,0.3-2.6-0.3l7.6-4.4C195.5,176.5,196.4,176.6,197.1,176.2z"/>
				</g>
				<g>
					<linearGradient id="SVGID_3_" gradientUnits="userSpaceOnUse" x1="182.8643" y1="70.3604" x2="186.9983" y2="89.9968">
						<stop  offset="0" style="stop-color:#EEF2B5"/>
						<stop  offset="1" style="stop-color:#3169FF"/>
					</linearGradient>
					<polygon style="fill:url(#SVGID_3_);" points="192.7,94.5 200.3,90 200.1,174.9 192.5,179.4 					"/>
				</g>
				<g>
					<linearGradient id="SVGID_4_" gradientUnits="userSpaceOnUse" x1="173.0434" y1="72.4279" x2="177.1774" y2="92.0644">
						<stop  offset="0" style="stop-color:#EEF2B5"/>
						<stop  offset="1" style="stop-color:#3169FF"/>
					</linearGradient>
					<path style="fill:url(#SVGID_4_);" d="M198.5,178.5l-7.6,4.4c1-0.6,1.6-1.8,1.6-3.6l7.6-4.4C200.1,176.7,199.5,178,198.5,178.5
						z"/>
				</g>
				<g>
					<linearGradient id="SVGID_5_" gradientUnits="userSpaceOnUse" x1="66.3648" y1="6.7784" x2="179.1593" y2="166.0601">
						<stop  offset="0" style="stop-color:#EEF2B5"/>
						<stop  offset="0.1482" style="stop-color:#EAF1B7"/>
						<stop  offset="0.282" style="stop-color:#DFECBD"/>
						<stop  offset="0.4104" style="stop-color:#CDE5C8"/>
						<stop  offset="0.5354" style="stop-color:#B3DAD7"/>
						<stop  offset="0.6567" style="stop-color:#92CDEA"/>
						<stop  offset="0.7647" style="stop-color:#6EBEFF"/>
					</linearGradient>
					<polygon style="fill:url(#SVGID_5_);" points="184.2,93.2 184,170.6 85.4,113.6 85.6,36.2 					"/>
				</g>
				<g>
					<linearGradient id="SVGID_6_" gradientUnits="userSpaceOnUse" x1="78.7165" y1="103.5098" x2="190.8005" y2="103.5098">
						<stop  offset="0" style="stop-color:#DE157D"/>
						<stop  offset="0.1984" style="stop-color:#CD157D"/>
						<stop  offset="0.5911" style="stop-color:#A1157D"/>
						<stop  offset="1" style="stop-color:#6D157D"/>
					</linearGradient>
					<path style="fill:url(#SVGID_6_);" d="M187.1,87c2,1.2,3.7,4,3.7,6.4l-0.2,84.9c0,2.3-1.7,3.3-3.7,2.1L82.4,120
						c-2-1.2-3.7-4-3.7-6.4L79,28.8c0-2.3,1.7-3.3,3.7-2.1L187.1,87z M184,170.6l0.2-77.4l-98.7-57l-0.2,77.4L184,170.6"/>
				</g>
				<g>
					<path class="st399" d="M187.1,87l7.6-4.4c2,1.2,3.7,4,3.7,6.4l-7.6,4.4C190.8,91,189.2,88.2,187.1,87z"/>
				</g>
				<g>
					<path class="st19" d="M187.1,84.8c3.1,1.8,5.6,6.1,5.6,9.7l-0.2,84.9c0,3.6-2.5,5-5.6,3.2L82.4,122.3c-3.1-1.8-5.6-6.1-5.6-9.7
						l0.2-84.9c0-3.5,2.5-5,5.6-3.2L187.1,84.8z M190.6,178.3l0.2-84.9c0-2.3-1.6-5.2-3.7-6.4L82.7,26.7c-2-1.2-3.7-0.2-3.7,2.1
						l-0.2,84.9c0,2.3,1.6,5.2,3.7,6.4l104.5,60.3C188.9,181.5,190.6,180.6,190.6,178.3"/>
				</g>
				<g>
					<linearGradient id="SVGID_7_" gradientUnits="userSpaceOnUse" x1="190.7834" y1="80.3854" x2="195.2619" y2="89.3424">
						<stop  offset="0" style="stop-color:#EEF2B5"/>
						<stop  offset="1" style="stop-color:#3169FF"/>
					</linearGradient>
					<path style="fill:url(#SVGID_7_);" d="M187.1,84.8l7.6-4.4c3.1,1.8,5.6,6.1,5.6,9.7l-7.6,4.4C192.7,90.9,190.2,86.6,187.1,84.8
						z"/>
				</g>
				<g>
					<linearGradient id="SVGID_8_" gradientUnits="userSpaceOnUse" x1="165.3321" y1="78.8601" x2="209.428" y2="122.6115">
						<stop  offset="0" style="stop-color:#EEF2B5"/>
						<stop  offset="1" style="stop-color:#3169FF"/>
					</linearGradient>
					<polygon style="fill:url(#SVGID_8_);" points="82.7,24.5 90.3,20.1 194.7,80.4 187.1,84.8 					"/>
				</g>
			</g>
		</g>
	</g>
	<polygon class="st407" points="104.7,47 119.1,133 138.5,144.4 123,57.8 	"/>
	<polygon class="st407" points="129,61.2 143.4,147.2 155.6,154.3 140.1,67.8 	"/>
</g>
<g>
	<g>
		<g>
			<g class="st15">
				<g>
					<path class="st398" d="M64.8,122.2l7.6-4.4c0,2.3,1.6,5.2,3.7,6.4l-7.6,4.4C66.5,127.4,64.8,124.6,64.8,122.2z"/>
				</g>
				<g>
					<path class="st399" d="M124.6,144.1c0,2.4,1.7,5.3,3.8,6.5l-7.6,4.4c-2.1-1.2-3.8-4.1-3.8-6.5c0-1.2,0.4-2.1,1.1-2.5l7.6-4.4
						C125,142.1,124.6,142.9,124.6,144.1z"/>
				</g>
				<g>
					<path class="st399" d="M128.3,150.7c1.1,0.6,2,0.7,2.7,0.3l-7.6,4.4c-0.7,0.4-1.7,0.3-2.7-0.3C123,153.7,126.1,152,128.3,150.7
						z"/>
				</g>
				<g>
					<path class="st398" d="M118.1,146.1l7.6-4.4c0.7-0.4,1.6-0.3,2.7,0.3l-7.6,4.4C119.7,145.7,118.8,145.7,118.1,146.1z"/>
				</g>
				<g>
					<path class="st398" d="M131.1,150.9l-7.6,4.4c0.7-0.4,1.1-1.2,1.1-2.4c0-2.4-1.7-5.4-3.8-6.6l7.6-4.4c2.1,1.2,3.8,4.2,3.8,6.6
						C132.2,149.7,131.7,150.5,131.1,150.9z"/>
				</g>
				<g>
					<polygon class="st398" points="68.5,128.6 76.1,124.2 180.6,184.5 173,188.9 					"/>
				</g>
				<g>
					<path class="st398" d="M120.8,146.3c2.1,1.2,3.8,4.2,3.8,6.6s-1.7,3.4-3.8,2.1c-2.1-1.2-3.8-4.1-3.8-6.5
						C117,146.1,118.7,145.1,120.8,146.3z"/>
				</g>
				<g>
					<polygon class="st398" points="65.1,37.3 72.7,32.9 72.4,117.8 64.8,122.2 					"/>
				</g>
				<g>
					<polygon class="st399" points="71.7,44.8 79.3,40.4 79.1,108.8 71.5,113.2 					"/>
				</g>
				<g>
					<path class="st398" d="M66.1,35l7.6-4.4c-0.7,0.4-1.1,1.2-1.1,2.4l-7.6,4.4C65.1,36.2,65.5,35.3,66.1,35z"/>
				</g>
				<g>
					<path class="st399" d="M66.1,35l7.6-4.4c0.7-0.4,1.6-0.3,2.6,0.3l-7.6,4.4C67.7,34.6,66.8,34.6,66.1,35z"/>
				</g>
				<g>
					<linearGradient id="SVGID_9_" gradientUnits="userSpaceOnUse" x1="66.6935" y1="20.0075" x2="102.1769" y2="117.1563">
						<stop  offset="0" style="stop-color:#EEF2B5"/>
						<stop  offset="1" style="stop-color:#3169FF"/>
					</linearGradient>
					<path style="fill:url(#SVGID_9_);" d="M64.8,32.7l7.6-4.4c1-0.6,2.4-0.5,4,0.4L68.8,33C67.2,32.1,65.8,32.1,64.8,32.7z"/>
				</g>
				<g>
					<polygon class="st399" points="71.5,113.2 79.1,108.8 177.7,165.7 170.1,170.2 					"/>
				</g>
				<g>
					<polygon class="st398" points="170.3,101.7 177.9,97.3 177.7,165.7 170.1,170.2 					"/>
				</g>
				<g>
					<polygon class="st399" points="176.9,101.9 184.5,97.5 184.3,182.4 176.7,186.8 					"/>
				</g>
				<g>
					<path class="st398" d="M183.2,184.8l-7.6,4.4c-0.7,0.4-1.6,0.3-2.6-0.3l7.6-4.4C181.6,185.1,182.5,185.1,183.2,184.8z"/>
				</g>
				<g>
					<linearGradient id="SVGID_10_" gradientUnits="userSpaceOnUse" x1="168.9623" y1="78.9155" x2="173.0963" y2="98.5519">
						<stop  offset="0" style="stop-color:#EEF2B5"/>
						<stop  offset="1" style="stop-color:#3169FF"/>
					</linearGradient>
					<polygon style="fill:url(#SVGID_10_);" points="178.8,103 186.4,98.6 186.2,183.5 178.6,187.9 					"/>
				</g>
				<g>
					<linearGradient id="SVGID_11_" gradientUnits="userSpaceOnUse" x1="159.1414" y1="80.983" x2="163.2754" y2="100.6195">
						<stop  offset="0" style="stop-color:#EEF2B5"/>
						<stop  offset="1" style="stop-color:#3169FF"/>
					</linearGradient>
					<path style="fill:url(#SVGID_11_);" d="M184.6,187.1l-7.6,4.4c1-0.6,1.6-1.8,1.6-3.6l7.6-4.4
						C186.2,185.3,185.6,186.5,184.6,187.1z"/>
				</g>
				<g>
					<linearGradient id="SVGID_12_" gradientUnits="userSpaceOnUse" x1="52.4628" y1="15.3335" x2="165.2573" y2="174.6152">
						<stop  offset="0" style="stop-color:#EEF2B5"/>
						<stop  offset="0.1482" style="stop-color:#EAF1B7"/>
						<stop  offset="0.282" style="stop-color:#DFECBD"/>
						<stop  offset="0.4104" style="stop-color:#CDE5C8"/>
						<stop  offset="0.5354" style="stop-color:#B3DAD7"/>
						<stop  offset="0.6567" style="stop-color:#92CDEA"/>
						<stop  offset="0.7647" style="stop-color:#6EBEFF"/>
					</linearGradient>
					<polygon style="fill:url(#SVGID_12_);" points="170.3,101.7 170.1,179.1 71.5,122.2 71.7,44.8 					"/>
				</g>
				<g>
					<linearGradient id="SVGID_13_" gradientUnits="userSpaceOnUse" x1="64.8145" y1="112.0649" x2="176.8985" y2="112.0649">
						<stop  offset="0" style="stop-color:#DE157D"/>
						<stop  offset="0.1984" style="stop-color:#CD157D"/>
						<stop  offset="0.5911" style="stop-color:#A1157D"/>
						<stop  offset="1" style="stop-color:#6D157D"/>
					</linearGradient>
					<path style="fill:url(#SVGID_13_);" d="M173.2,95.5c2,1.2,3.7,4,3.7,6.4l-0.2,84.9c0,2.3-1.7,3.3-3.7,2.1L68.5,128.6
						c-2-1.2-3.7-4-3.7-6.4l0.2-84.9c0-2.3,1.7-3.3,3.7-2.1L173.2,95.5z M170.1,179.1l0.2-77.4l-98.7-57l-0.2,77.4L170.1,179.1"/>
				</g>
				<g>
					<path class="st399" d="M173.2,95.5l7.6-4.4c2,1.2,3.7,4,3.7,6.4l-7.6,4.4C176.9,99.6,175.3,96.7,173.2,95.5z"/>
				</g>
				<g>
					<path class="st19" d="M173.2,93.4c3.1,1.8,5.6,6.1,5.6,9.7l-0.2,84.9c0,3.6-2.5,5-5.6,3.2L68.5,130.8c-3.1-1.8-5.6-6.1-5.6-9.7
						l0.2-84.9c0-3.5,2.5-5,5.6-3.2L173.2,93.4z M176.7,186.8l0.2-84.9c0-2.3-1.6-5.2-3.7-6.4L68.8,35.2c-2-1.2-3.7-0.2-3.7,2.1
						l-0.2,84.9c0,2.3,1.6,5.2,3.7,6.4L173,188.9C175,190.1,176.7,189.1,176.7,186.8"/>
				</g>
				<g>
					<linearGradient id="SVGID_14_" gradientUnits="userSpaceOnUse" x1="176.8814" y1="88.9405" x2="181.3599" y2="97.8974">
						<stop  offset="0" style="stop-color:#EEF2B5"/>
						<stop  offset="1" style="stop-color:#3169FF"/>
					</linearGradient>
					<path style="fill:url(#SVGID_14_);" d="M173.2,93.4l7.6-4.4c3.1,1.8,5.6,6.1,5.6,9.7l-7.6,4.4
						C178.8,99.5,176.3,95.1,173.2,93.4z"/>
				</g>
				<g>
					<linearGradient id="SVGID_15_" gradientUnits="userSpaceOnUse" x1="151.4301" y1="87.4152" x2="195.526" y2="131.1666">
						<stop  offset="0" style="stop-color:#EEF2B5"/>
						<stop  offset="1" style="stop-color:#3169FF"/>
					</linearGradient>
					<polygon style="fill:url(#SVGID_15_);" points="68.8,33 76.4,28.6 180.8,88.9 173.2,93.4 					"/>
				</g>
			</g>
		</g>
	</g>
	<polygon class="st407" points="90.8,55.6 105.2,141.6 124.6,152.9 109.1,66.4 	"/>
	<polygon class="st407" points="115.1,69.7 129.5,155.7 141.7,162.9 126.2,76.3 	"/>
</g>
<g>
	<g>
		<g>
			<g class="st15">
				<g>
					<path class="st398" d="M51,130.2l7.6-4.4c0,2.3,1.6,5.2,3.7,6.4l-7.6,4.4C52.7,135.4,51,132.6,51,130.2z"/>
				</g>
				<g>
					<path class="st399" d="M110.8,152.1c0,2.4,1.7,5.3,3.8,6.5l-7.6,4.4c-2.1-1.2-3.8-4.1-3.8-6.5c0-1.2,0.4-2.1,1.1-2.5l7.6-4.4
						C111.2,150,110.8,150.9,110.8,152.1z"/>
				</g>
				<g>
					<path class="st399" d="M114.6,158.6c1.1,0.6,2,0.7,2.7,0.3l-7.6,4.4c-0.7,0.4-1.7,0.3-2.7-0.3
						C109.2,161.7,112.3,160,114.6,158.6z"/>
				</g>
				<g>
					<path class="st398" d="M104.3,154.1l7.6-4.4c0.7-0.4,1.6-0.3,2.7,0.3l-7.6,4.4C105.9,153.7,105,153.7,104.3,154.1z"/>
				</g>
				<g>
					<path class="st398" d="M117.3,158.9l-7.6,4.4c0.7-0.4,1.1-1.2,1.1-2.4c0-2.4-1.7-5.4-3.8-6.6l7.6-4.4c2.1,1.2,3.8,4.2,3.8,6.6
						C118.4,157.7,118,158.5,117.3,158.9z"/>
				</g>
				<g>
					<polygon class="st398" points="54.7,136.6 62.3,132.2 166.8,192.5 159.2,196.9 					"/>
				</g>
				<g>
					<path class="st398" d="M107,154.3c2.1,1.2,3.8,4.2,3.8,6.6c0,2.4-1.7,3.4-3.8,2.1c-2.1-1.2-3.8-4.1-3.8-6.5
						C103.2,154.1,104.9,153.1,107,154.3z"/>
				</g>
				<g>
					<polygon class="st398" points="51.3,45.3 58.9,40.9 58.6,125.8 51,130.2 					"/>
				</g>
				<g>
					<polygon class="st399" points="57.9,52.8 65.5,48.3 65.3,116.8 57.7,121.2 					"/>
				</g>
				<g>
					<path class="st398" d="M52.4,42.9l7.6-4.4c-0.7,0.4-1.1,1.2-1.1,2.4l-7.6,4.4C51.3,44.1,51.7,43.3,52.4,42.9z"/>
				</g>
				<g>
					<path class="st399" d="M52.4,42.9l7.6-4.4c0.7-0.4,1.6-0.3,2.6,0.3L55,43.2C54,42.6,53,42.6,52.4,42.9z"/>
				</g>
				<g>
					<linearGradient id="SVGID_16_" gradientUnits="userSpaceOnUse" x1="52.917" y1="27.9941" x2="88.4004" y2="125.1428">
						<stop  offset="0" style="stop-color:#EEF2B5"/>
						<stop  offset="1" style="stop-color:#3169FF"/>
					</linearGradient>
					<path class="st16" d="M51,40.6l7.6-4.4c1-0.6,2.4-0.5,4,0.4L55,41C53.4,40.1,52,40.1,51,40.6z"/>
				</g>
				<g>
					<polygon class="st399" points="57.7,121.2 65.3,116.8 163.9,173.7 156.3,178.1 					"/>
				</g>
				<g>
					<polygon class="st398" points="156.5,109.7 164.1,105.3 163.9,173.7 156.3,178.1 					"/>
				</g>
				<g>
					<polygon class="st399" points="163.1,109.9 170.7,105.5 170.5,190.4 162.9,194.8 					"/>
				</g>
				<g>
					<path class="st398" d="M169.4,192.7l-7.6,4.4c-0.7,0.4-1.6,0.3-2.6-0.3l7.6-4.4C167.8,193.1,168.7,193.1,169.4,192.7z"/>
				</g>
				<g>
					<linearGradient id="SVGID_17_" gradientUnits="userSpaceOnUse" x1="155.1859" y1="86.902" x2="159.3198" y2="106.5384">
						<stop  offset="0" style="stop-color:#EEF2B5"/>
						<stop  offset="1" style="stop-color:#3169FF"/>
					</linearGradient>
					<polygon class="st17" points="165.1,111 172.7,106.6 172.4,191.5 164.8,195.9 					"/>
				</g>
				<g>
					<linearGradient id="SVGID_18_" gradientUnits="userSpaceOnUse" x1="145.3649" y1="88.9695" x2="149.4989" y2="108.606">
						<stop  offset="0" style="stop-color:#EEF2B5"/>
						<stop  offset="1" style="stop-color:#3169FF"/>
					</linearGradient>
					<path class="st18" d="M170.8,195.1l-7.6,4.4c1-0.6,1.6-1.8,1.6-3.6l7.6-4.4C172.4,193.3,171.8,194.5,170.8,195.1z"/>
				</g>
				<g>
					<linearGradient id="SVGID_19_" gradientUnits="userSpaceOnUse" x1="70.9558" y1="44.0967" x2="192.3917" y2="298.8538">
						<stop  offset="0" style="stop-color:#272B26"/>
						<stop  offset="0.1163" style="stop-color:#282D2A"/>
						<stop  offset="0.2214" style="stop-color:#2C3535"/>
						<stop  offset="0.3222" style="stop-color:#324147"/>
						<stop  offset="0.4204" style="stop-color:#3A5361"/>
						<stop  offset="0.5167" style="stop-color:#456A82"/>
						<stop  offset="0.6115" style="stop-color:#5385AB"/>
						<stop  offset="0.7035" style="stop-color:#62A6DB"/>
						<stop  offset="0.7647" style="stop-color:#6EBEFF"/>
					</linearGradient>
					<polygon class="st20" points="156.5,109.7 156.3,187.1 57.7,130.2 57.9,52.8 					"/>
				</g>
				<g>
					<linearGradient id="SVGID_20_" gradientUnits="userSpaceOnUse" x1="51.0381" y1="120.0514" x2="163.122" y2="120.0514">
						<stop  offset="0" style="stop-color:#DE157D"/>
						<stop  offset="0.1984" style="stop-color:#CD157D"/>
						<stop  offset="0.5911" style="stop-color:#A1157D"/>
						<stop  offset="1" style="stop-color:#6D157D"/>
					</linearGradient>
					<path class="st21" d="M159.4,103.5c2,1.2,3.7,4,3.7,6.4l-0.2,84.9c0,2.3-1.7,3.3-3.7,2.1L54.7,136.6c-2-1.2-3.7-4-3.7-6.4
						l0.2-84.9c0-2.3,1.7-3.3,3.7-2.1L159.4,103.5z M156.3,187.1l0.2-77.4l-98.7-57l-0.2,77.4L156.3,187.1"/>
				</g>
				<g>
					<path class="st399" d="M159.4,103.5l7.6-4.4c2,1.2,3.7,4,3.7,6.4l-7.6,4.4C163.1,107.5,161.5,104.7,159.4,103.5z"/>
				</g>
				<g>
					<path class="st19" d="M159.5,101.3c3.1,1.8,5.6,6.1,5.6,9.7l-0.2,84.9c0,3.6-2.5,5-5.6,3.2L54.7,138.8
						c-3.1-1.8-5.6-6.1-5.6-9.7l0.2-84.9c0-3.5,2.5-5,5.6-3.2L159.5,101.3z M162.9,194.8l0.2-84.9c0-2.3-1.6-5.2-3.7-6.4L55,43.2
						c-2-1.2-3.7-0.2-3.7,2.1L51,130.2c0,2.3,1.6,5.2,3.7,6.4l104.5,60.3C161.2,198.1,162.9,197.1,162.9,194.8"/>
				</g>
				<g>
					<linearGradient id="SVGID_21_" gradientUnits="userSpaceOnUse" x1="163.1049" y1="96.927" x2="167.5834" y2="105.884">
						<stop  offset="0" style="stop-color:#EEF2B5"/>
						<stop  offset="1" style="stop-color:#3169FF"/>
					</linearGradient>
					<path class="st22" d="M159.5,101.3l7.6-4.4c3.1,1.8,5.6,6.1,5.6,9.7l-7.6,4.4C165.1,107.5,162.6,103.1,159.5,101.3z"/>
				</g>
				<g>
					<linearGradient id="SVGID_22_" gradientUnits="userSpaceOnUse" x1="137.6537" y1="95.4017" x2="181.7496" y2="139.1531">
						<stop  offset="0" style="stop-color:#EEF2B5"/>
						<stop  offset="1" style="stop-color:#3169FF"/>
					</linearGradient>
					<polygon style="fill:url(#SVGID_22_);" points="55,41 62.6,36.6 167.1,96.9 159.5,101.3 					"/>
				</g>
			</g>
		</g>
	</g>
	<polygon class="st407" points="77,63.6 91.4,149.6 110.8,160.9 95.3,74.4 	"/>
	<polygon class="st407" points="101.3,77.7 115.7,163.7 127.9,170.8 112.4,84.3 	"/>
</g>
<g>
	<g>
		<g>
			<g class="st15">
				<g>
					<path class="st398" d="M28.6,147.3l7.6-4.4c0,2.3,1.6,5.2,3.7,6.4l-7.6,4.4C30.2,152.5,28.6,149.7,28.6,147.3z"/>
				</g>
				<g>
					<path class="st399" d="M88.3,169.2c0,2.4,1.7,5.3,3.8,6.5l-7.6,4.4c-2.1-1.2-3.8-4.1-3.8-6.5c0-1.2,0.4-2.1,1.1-2.5l7.6-4.4
						C88.8,167.1,88.3,168,88.3,169.2z"/>
				</g>
				<g>
					<path class="st399" d="M92.1,175.8c1.1,0.6,2,0.7,2.7,0.3l-7.6,4.4c-0.7,0.4-1.7,0.3-2.7-0.3C86.8,178.8,89.8,177.1,92.1,175.8
						z"/>
				</g>
				<g>
					<path class="st398" d="M81.8,171.2l7.6-4.4c0.7-0.4,1.6-0.3,2.7,0.3l-7.6,4.4C83.5,170.8,82.5,170.8,81.8,171.2z"/>
				</g>
				<g>
					<path class="st398" d="M94.8,176l-7.6,4.4c0.7-0.4,1.1-1.2,1.1-2.4c0-2.4-1.7-5.4-3.8-6.6l7.6-4.4c2.1,1.2,3.8,4.2,3.8,6.6
						C95.9,174.8,95.5,175.6,94.8,176z"/>
				</g>
				<g>
					<polygon class="st398" points="32.3,153.7 39.9,149.3 144.3,209.6 136.7,214 					"/>
				</g>
				<g>
					<path class="st398" d="M84.5,171.4c2.1,1.2,3.8,4.2,3.8,6.6c0,2.4-1.7,3.4-3.8,2.1c-2.1-1.2-3.8-4.1-3.8-6.5
						C80.7,171.2,82.4,170.2,84.5,171.4z"/>
				</g>
				<g>
					<polygon class="st398" points="28.8,62.4 36.4,58 36.2,142.9 28.6,147.3 					"/>
				</g>
				<g>
					<polygon class="st399" points="35.4,69.9 43,65.5 42.8,133.9 35.2,138.3 					"/>
				</g>
				<g>
					<path class="st398" d="M29.9,60.1l7.6-4.4c-0.7,0.4-1.1,1.2-1.1,2.4l-7.6,4.4C28.8,61.3,29.2,60.4,29.9,60.1z"/>
				</g>
				<g>
					<path class="st399" d="M29.9,60.1l7.6-4.4c0.7-0.4,1.6-0.3,2.6,0.3l-7.6,4.4C31.5,59.7,30.6,59.7,29.9,60.1z"/>
				</g>
				<g>
					<linearGradient id="SVGID_23_" gradientUnits="userSpaceOnUse" x1="30.46" y1="45.1042" x2="65.9434" y2="142.2529">
						<stop  offset="0" style="stop-color:#EEF2B5"/>
						<stop  offset="1" style="stop-color:#3169FF"/>
					</linearGradient>
					<path class="st24" d="M28.6,57.8l7.6-4.4c1-0.6,2.4-0.5,4,0.4l-7.6,4.4C31,57.2,29.6,57.2,28.6,57.8z"/>
				</g>
				<g>
					<polygon class="st399" points="35.2,138.3 42.8,133.9 141.5,190.8 133.9,195.2 					"/>
				</g>
				<g>
					<polygon class="st398" points="134.1,126.8 141.7,122.4 141.5,190.8 133.9,195.2 					"/>
				</g>
				<g>
					<polygon class="st399" points="140.7,127 148.3,122.6 148,207.5 140.4,211.9 					"/>
				</g>
				<g>
					<path class="st398" d="M147,209.8l-7.6,4.4c-0.7,0.4-1.6,0.3-2.6-0.3l7.6-4.4C145.4,210.2,146.3,210.2,147,209.8z"/>
				</g>
				<g>
					<linearGradient id="SVGID_24_" gradientUnits="userSpaceOnUse" x1="132.7288" y1="104.0121" x2="136.8628" y2="123.6486">
						<stop  offset="0" style="stop-color:#EEF2B5"/>
						<stop  offset="1" style="stop-color:#3169FF"/>
					</linearGradient>
					<polygon class="st25" points="142.6,128.1 150.2,123.7 150,208.6 142.4,213 					"/>
				</g>
				<g>
					<linearGradient id="SVGID_25_" gradientUnits="userSpaceOnUse" x1="122.9079" y1="106.0797" x2="127.0418" y2="125.7161">
						<stop  offset="0" style="stop-color:#EEF2B5"/>
						<stop  offset="1" style="stop-color:#3169FF"/>
					</linearGradient>
					<path class="st26" d="M148.3,212.2l-7.6,4.4c1-0.6,1.6-1.8,1.6-3.6l7.6-4.4C150,210.4,149.3,211.6,148.3,212.2z"/>
				</g>
				<g>
					<linearGradient id="SVGID_26_" gradientUnits="userSpaceOnUse" x1="30.9397" y1="99.5476" x2="210.7682" y2="225.1175">
						<stop  offset="0" style="stop-color:#272B26"/>
						<stop  offset="0.1163" style="stop-color:#282D2A"/>
						<stop  offset="0.2214" style="stop-color:#2C3535"/>
						<stop  offset="0.3222" style="stop-color:#324147"/>
						<stop  offset="0.4204" style="stop-color:#3A5361"/>
						<stop  offset="0.5167" style="stop-color:#456A82"/>
						<stop  offset="0.6115" style="stop-color:#5385AB"/>
						<stop  offset="0.7035" style="stop-color:#62A6DB"/>
						<stop  offset="0.7647" style="stop-color:#6EBEFF"/>
					</linearGradient>
					<polygon class="st27" points="134.1,126.8 133.9,204.2 35.2,147.3 35.4,69.9 					"/>
				</g>
				<g>
					<linearGradient id="SVGID_27_" gradientUnits="userSpaceOnUse" x1="28.581" y1="137.1616" x2="140.6649" y2="137.1616">
						<stop  offset="0" style="stop-color:#DE157D"/>
						<stop  offset="0.1984" style="stop-color:#CD157D"/>
						<stop  offset="0.5911" style="stop-color:#A1157D"/>
						<stop  offset="1" style="stop-color:#6D157D"/>
					</linearGradient>
					<path class="st28" d="M137,120.6c2,1.2,3.7,4,3.7,6.4l-0.2,84.9c0,2.3-1.7,3.3-3.7,2.1L32.3,153.7c-2-1.2-3.7-4-3.7-6.4
						l0.2-84.9c0-2.3,1.7-3.3,3.7-2.1L137,120.6z M133.9,204.2l0.2-77.4l-98.7-57l-0.2,77.4L133.9,204.2"/>
				</g>
				<g>
					<path class="st399" d="M137,120.6l7.6-4.4c2,1.2,3.7,4,3.7,6.4l-7.6,4.4C140.7,124.7,139,121.8,137,120.6z"/>
				</g>
				<g>
					<path class="st19" d="M137,118.5c3.1,1.8,5.6,6.1,5.6,9.7l-0.2,84.9c0,3.6-2.5,5-5.6,3.2L32.2,155.9c-3.1-1.8-5.6-6.1-5.6-9.7
						l0.2-84.9c0-3.5,2.5-5,5.6-3.2L137,118.5z M140.4,211.9l0.2-84.9c0-2.3-1.6-5.2-3.7-6.4L32.5,60.3c-2-1.2-3.7-0.2-3.7,2.1
						l-0.2,84.9c0,2.3,1.6,5.2,3.7,6.4L136.7,214C138.8,215.2,140.4,214.2,140.4,211.9"/>
				</g>
				<g>
					<linearGradient id="SVGID_28_" gradientUnits="userSpaceOnUse" x1="140.6479" y1="114.0371" x2="145.1264" y2="122.9941">
						<stop  offset="0" style="stop-color:#EEF2B5"/>
						<stop  offset="1" style="stop-color:#3169FF"/>
					</linearGradient>
					<path class="st29" d="M137,118.5l7.6-4.4c3.1,1.8,5.6,6.1,5.6,9.7l-7.6,4.4C142.6,124.6,140.1,120.2,137,118.5z"/>
				</g>
				<g>
					<linearGradient id="SVGID_29_" gradientUnits="userSpaceOnUse" x1="115.1966" y1="112.5119" x2="159.2925" y2="156.2633">
						<stop  offset="0" style="stop-color:#EEF2B5"/>
						<stop  offset="1" style="stop-color:#3169FF"/>
					</linearGradient>
					<polygon style="fill:url(#SVGID_29_);" points="32.5,58.1 40.1,53.7 144.6,114 137,118.5 					"/>
				</g>
			</g>
		</g>
	</g>
	<polygon class="st407" points="54.5,80.7 69,166.7 88.3,178 72.8,91.5 	"/>
	<polygon class="st407" points="78.8,94.8 93.3,180.8 105.4,187.9 89.9,101.4 	"/>
</g>
<radialGradient id="SVGID_30_" cx="141.4861" cy="148.3641" r="9.6506" gradientUnits="userSpaceOnUse">
	<stop  offset="0" style="stop-color:#EEF2B5"/>
	<stop  offset="1" style="stop-color:#FFFFFF;stop-opacity:0"/>
</radialGradient>
<circle class="st31" cx="141.5" cy="148.4" r="9.7"/>
<polygon class="st38" points="144.6,145.3 150.2,148.4 144.6,151.4 141.5,157.1 138.4,151.4 132.8,148.4 138.4,145.3 141.5,139.7 
	"/>
<radialGradient id="SVGID_31_" cx="70.452" cy="52.4343" r="9.6506" gradientUnits="userSpaceOnUse">
	<stop  offset="0" style="stop-color:#EEF2B5"/>
	<stop  offset="1" style="stop-color:#FFFFFF;stop-opacity:0"/>
</radialGradient>
<circle class="st32" cx="70.5" cy="52.4" r="9.7"/>
<polygon class="st38" points="94,68.3 99.2,71.2 94,74.1 91.1,79.3 88.2,74.1 83,71.2 88.2,68.3 91.1,63.1 "/>
</svg>
