<?xml version="1.0" encoding="utf-8"?>
<!-- Generator: Adobe Illustrator 25.2.1, SVG Export Plug-In . SVG Version: 6.00 Build 0)  -->
<svg version="1.1" id="Layer_2" xmlns="http://www.w3.org/2000/svg" xmlns:xlink="http://www.w3.org/1999/xlink" x="0px" y="0px"
	 viewBox="0 0 232 280.3" style="enable-background:new 0 0 232 280.3;" xml:space="preserve">
<style type="text/css">
	.st0{opacity:0.4;fill:url(#SVGID_1_);}
	.st1{opacity:0.4;fill:url(#SVGID_2_);}
	.st2{opacity:0.4;fill:url(#SVGID_3_);}
	.st3{opacity:0.4;fill:url(#SVGID_4_);}
	.st4{opacity:0.4;fill:url(#SVGID_5_);}
	.st5{opacity:0.4;fill:url(#SVGID_6_);}
	.st6{opacity:0.4;fill:url(#SVGID_7_);}
	.st7{opacity:0.4;fill:url(#SVGID_8_);}
	.st8{opacity:0.4;fill:url(#SVGID_9_);}
	.st9{opacity:0.4;fill:url(#SVGID_10_);}
	.st10{opacity:0.4;fill:url(#SVGID_11_);}
	.st11{opacity:0.4;fill:url(#SVGID_12_);}
	.st12{opacity:0.4;fill:url(#SVGID_13_);}
	.st13{opacity:0.4;fill:url(#SVGID_14_);}
	.st14{opacity:0.4;fill:url(#SVGID_15_);}
	.st15{enable-background:new    ;}
	.st16{fill:url(#SVGID_16_);}
	.st17{fill:url(#SVGID_17_);}
	.st18{fill:url(#SVGID_18_);}
	.st19{fill:#EEF2B5;}
	.st20{fill:url(#SVGID_19_);}
	.st21{fill:url(#SVGID_20_);}
	.st22{fill:url(#SVGID_21_);}
	.st23{opacity:0.23;fill:url(#SVGID_22_);}
	.st24{fill:url(#SVGID_23_);}
	.st25{fill:url(#SVGID_24_);}
	.st26{fill:url(#SVGID_25_);}
	.st27{fill:url(#SVGID_26_);}
	.st28{fill:url(#SVGID_27_);}
	.st29{fill:url(#SVGID_28_);}
	.st30{opacity:0.23;fill:url(#SVGID_29_);}
	.st31{fill:url(#SVGID_30_);}
	.st32{fill:url(#SVGID_31_);}
	.st33{fill:url(#SVGID_32_);}
	.st34{fill:url(#SVGID_33_);}
	.st35{fill:url(#SVGID_34_);}
	.st36{fill:url(#SVGID_35_);}
	.st37{fill:url(#SVGID_36_);}
	.st38{fill:#FFFFFF;}
	.st39{fill:url(#SVGID_37_);}
	.st40{fill:url(#SVGID_38_);}
	.st41{fill:#D8D8D8;}
	.st42{fill:url(#SVGID_39_);}
	.st43{fill:url(#SVGID_40_);}
	.st44{fill:url(#SVGID_41_);}
	.st45{fill:url(#SVGID_42_);}
	.st46{fill:url(#SVGID_43_);}
	.st47{fill:url(#SVGID_44_);}
	.st48{fill:url(#SVGID_45_);}
	.st49{fill:url(#SVGID_46_);}
	.st50{fill:url(#SVGID_47_);}
	.st51{fill:url(#SVGID_48_);}
	.st52{fill:url(#SVGID_49_);}
	.st53{fill:url(#SVGID_50_);}
	.st54{fill:none;}
	.st55{fill:url(#SVGID_51_);}
	.st56{fill:url(#SVGID_52_);}
	.st57{fill:url(#SVGID_53_);}
	.st58{fill:url(#SVGID_54_);}
	.st59{fill:url(#SVGID_55_);}
	.st60{fill:url(#SVGID_56_);}
	.st61{fill:url(#SVGID_57_);}
	.st62{fill:url(#SVGID_58_);}
	.st63{fill:url(#SVGID_59_);}
	.st64{fill:url(#SVGID_60_);}
	.st65{fill:url(#SVGID_61_);}
	.st66{fill:url(#SVGID_62_);}
	.st67{fill:url(#SVGID_63_);}
	.st68{fill:url(#SVGID_64_);}
	.st69{fill:url(#SVGID_65_);}
	.st70{fill:url(#SVGID_66_);}
	.st71{fill:url(#SVGID_67_);}
	.st72{fill:url(#SVGID_68_);}
	.st73{fill:url(#SVGID_69_);}
	.st74{fill:url(#SVGID_70_);}
	.st75{fill:url(#SVGID_71_);}
	.st76{fill:url(#SVGID_72_);}
	.st77{fill:url(#SVGID_73_);}
	.st78{fill:url(#SVGID_74_);}
	.st79{opacity:0.5;}
	.st80{fill:url(#SVGID_75_);}
	.st81{fill:url(#SVGID_76_);}
	.st82{fill:url(#SVGID_77_);}
	.st83{fill:url(#SVGID_78_);}
	.st84{fill:url(#SVGID_79_);}
	.st85{fill:url(#SVGID_80_);}
	.st86{fill:url(#SVGID_81_);}
	.st87{fill:url(#SVGID_82_);}
	.st88{fill:url(#SVGID_83_);}
	.st89{fill:url(#SVGID_84_);}
	.st90{fill:none;stroke:#FFFFFF;stroke-width:2;stroke-miterlimit:10;}
	.st91{fill:url(#SVGID_85_);}
	.st92{fill:url(#SVGID_86_);}
	.st93{fill:#FFDD00;}
	.st94{fill:url(#SVGID_87_);}
	.st95{fill:url(#SVGID_88_);}
	.st96{fill:url(#SVGID_89_);}
	.st97{fill:url(#SVGID_90_);}
	.st98{fill:#F6AF17;}
	.st99{fill:url(#SVGID_91_);}
	.st100{fill:#F1F1F3;}
	.st101{fill:url(#SVGID_92_);}
	.st102{fill:url(#SVGID_93_);}
	.st103{fill:url(#SVGID_94_);}
	.st104{fill:url(#SVGID_95_);}
	.st105{fill:url(#SVGID_96_);}
	.st106{fill:url(#SVGID_97_);}
	.st107{fill:url(#SVGID_98_);}
	.st108{fill:url(#SVGID_99_);}
	.st109{fill:url(#SVGID_100_);}
	.st110{fill:url(#SVGID_101_);}
	.st111{fill:url(#SVGID_102_);}
	.st112{fill:url(#SVGID_103_);}
	.st113{fill:url(#SVGID_104_);}
	.st114{fill:url(#SVGID_105_);}
	.st115{fill:url(#SVGID_106_);}
	.st116{fill:url(#SVGID_107_);}
	.st117{fill:url(#SVGID_108_);}
	.st118{fill:url(#SVGID_109_);}
	.st119{fill:url(#SVGID_110_);}
	.st120{fill:url(#SVGID_111_);}
	.st121{fill:#61A01D;}
	.st122{fill:url(#SVGID_112_);}
	.st123{clip-path:url(#SVGID_114_);enable-background:new    ;}
	.st124{fill:#477513;}
	.st125{fill:#4A7913;}
	.st126{fill:url(#SVGID_115_);}
	.st127{clip-path:url(#SVGID_117_);enable-background:new    ;}
	.st128{fill:#73BD1E;}
	.st129{fill:url(#SVGID_118_);}
	.st130{clip-path:url(#SVGID_120_);enable-background:new    ;}
	.st131{fill:url(#SVGID_121_);}
	.st132{fill:url(#SVGID_122_);}
	.st133{fill:url(#SVGID_123_);}
	.st134{fill:url(#SVGID_124_);}
	.st135{fill:url(#SVGID_125_);}
	.st136{clip-path:url(#SVGID_127_);enable-background:new    ;}
	.st137{fill:#457112;}
	.st138{fill:#436E11;}
	.st139{fill:#3E6510;}
	.st140{fill:url(#SVGID_128_);}
	.st141{fill:url(#SVGID_129_);}
	.st142{clip-path:url(#SVGID_131_);enable-background:new    ;}
	.st143{fill:url(#SVGID_132_);}
	.st144{clip-path:url(#SVGID_134_);enable-background:new    ;}
	.st145{fill:url(#SVGID_135_);}
	.st146{fill:url(#SVGID_136_);}
	.st147{fill:url(#SVGID_137_);}
	.st148{fill:url(#SVGID_138_);}
	.st149{fill:url(#SVGID_139_);}
	.st150{fill:url(#SVGID_140_);}
	.st151{fill:url(#SVGID_141_);}
	.st152{fill:url(#SVGID_142_);}
	.st153{opacity:0.1;fill:#F1F1F3;}
	.st154{fill:url(#SVGID_143_);}
	.st155{fill:url(#SVGID_144_);}
	.st156{fill:url(#SVGID_145_);}
	.st157{fill:url(#SVGID_146_);}
	.st158{fill:url(#SVGID_147_);}
	.st159{fill:url(#SVGID_148_);}
	.st160{fill:url(#SVGID_149_);}
	.st161{fill:url(#SVGID_150_);}
	.st162{fill:url(#SVGID_151_);}
	.st163{fill:url(#SVGID_152_);}
	.st164{fill:url(#SVGID_153_);}
	.st165{fill:url(#SVGID_154_);}
	.st166{fill:url(#SVGID_155_);}
	.st167{fill:url(#SVGID_156_);}
	.st168{fill:url(#SVGID_157_);}
	.st169{fill:url(#SVGID_158_);}
	.st170{fill:url(#SVGID_159_);}
	.st171{fill:url(#SVGID_160_);}
	.st172{fill:url(#SVGID_161_);}
	.st173{fill:url(#SVGID_162_);}
	.st174{fill:url(#SVGID_163_);}
	.st175{fill:url(#SVGID_164_);}
	.st176{opacity:0.5;fill:#00FFFF;}
	.st177{fill:url(#SVGID_165_);}
	.st178{fill:url(#SVGID_166_);}
	.st179{fill:url(#SVGID_167_);}
	.st180{fill:url(#SVGID_168_);}
	.st181{fill:url(#SVGID_169_);}
	.st182{fill:url(#SVGID_170_);}
	.st183{fill:url(#SVGID_171_);}
	.st184{fill:url(#SVGID_172_);}
	.st185{fill:url(#SVGID_173_);}
	.st186{fill:url(#SVGID_174_);}
	.st187{fill:url(#SVGID_175_);}
	.st188{fill:url(#SVGID_176_);}
	.st189{fill:url(#SVGID_177_);}
	.st190{fill:url(#SVGID_178_);}
	.st191{fill:#EB8FF9;}
	.st192{fill:url(#SVGID_179_);}
	.st193{fill:url(#SVGID_180_);}
	.st194{fill:url(#SVGID_181_);}
	.st195{fill:url(#SVGID_182_);}
	.st196{fill:url(#SVGID_183_);}
	.st197{fill:url(#SVGID_184_);}
	.st198{fill:url(#SVGID_185_);}
	.st199{fill:url(#SVGID_186_);}
	.st200{opacity:0.2;fill:#FFFFFF;}
	.st201{fill:url(#SVGID_187_);}
	.st202{fill:url(#SVGID_188_);}
	.st203{fill:url(#SVGID_189_);}
	.st204{fill:url(#SVGID_190_);}
	.st205{fill:url(#SVGID_191_);}
	.st206{fill:url(#SVGID_192_);}
	.st207{fill:url(#SVGID_193_);}
	.st208{fill:url(#SVGID_194_);}
	.st209{opacity:0.4;fill:#FFFFFF;}
	.st210{fill:url(#SVGID_195_);}
	.st211{fill:url(#SVGID_196_);}
	.st212{fill:url(#SVGID_197_);}
	.st213{fill:url(#SVGID_198_);}
	.st214{fill:url(#SVGID_199_);}
	.st215{fill:url(#SVGID_200_);}
	.st216{fill:url(#SVGID_201_);}
	.st217{fill:url(#SVGID_202_);}
	.st218{fill:url(#SVGID_203_);}
	.st219{fill:url(#SVGID_204_);}
	.st220{fill:#00FFFF;}
	.st221{opacity:0.63;}
	.st222{fill:url(#SVGID_205_);}
	.st223{fill:url(#SVGID_206_);}
	.st224{fill:url(#SVGID_207_);}
	.st225{fill:url(#SVGID_208_);}
	.st226{fill:url(#SVGID_209_);}
	.st227{fill:url(#SVGID_210_);}
	.st228{fill:url(#SVGID_211_);}
	.st229{fill:url(#SVGID_212_);}
	.st230{fill:url(#SVGID_213_);}
	.st231{fill:url(#SVGID_214_);}
	.st232{fill:url(#SVGID_215_);}
	.st233{fill:url(#SVGID_216_);}
	.st234{opacity:0.5;fill:#5BBC6F;}
	.st235{opacity:0.5;fill:#EEF2B5;}
	.st236{opacity:0.68;fill:url(#SVGID_217_);}
	.st237{fill:url(#SVGID_218_);}
	.st238{opacity:0.54;fill:url(#SVGID_219_);}
	.st239{fill:url(#SVGID_220_);}
	.st240{fill:url(#SVGID_221_);}
	.st241{fill:url(#SVGID_222_);}
	.st242{fill:url(#SVGID_223_);}
	.st243{fill:url(#SVGID_224_);}
	.st244{fill:url(#SVGID_225_);}
	.st245{fill:url(#SVGID_226_);}
	.st246{fill:url(#SVGID_227_);}
	.st247{fill:url(#SVGID_228_);}
	.st248{fill:url(#SVGID_229_);}
	.st249{fill:url(#SVGID_230_);}
	.st250{fill:url(#SVGID_231_);}
	.st251{fill:url(#SVGID_232_);}
	.st252{fill:url(#SVGID_233_);}
	.st253{fill:url(#SVGID_234_);}
	.st254{fill:url(#SVGID_235_);}
	.st255{fill:url(#SVGID_236_);}
	.st256{fill:url(#SVGID_237_);}
	.st257{fill:url(#SVGID_238_);}
	.st258{fill:url(#SVGID_239_);}
	.st259{fill:url(#SVGID_240_);}
	.st260{fill:url(#SVGID_241_);}
	.st261{fill:url(#SVGID_242_);}
	.st262{fill:url(#SVGID_243_);}
	.st263{fill:url(#SVGID_244_);}
	.st264{fill:url(#SVGID_245_);}
	.st265{fill:url(#SVGID_246_);}
	.st266{fill:url(#SVGID_247_);}
	.st267{fill:url(#SVGID_248_);}
	.st268{fill:url(#SVGID_249_);}
	.st269{fill:url(#SVGID_250_);}
	.st270{fill:url(#SVGID_251_);}
	.st271{fill:url(#SVGID_252_);}
	.st272{fill:url(#SVGID_253_);}
	.st273{fill:url(#SVGID_254_);}
	.st274{fill:url(#SVGID_255_);}
	.st275{fill:url(#SVGID_256_);}
	.st276{fill:url(#SVGID_257_);}
	.st277{fill:url(#SVGID_258_);}
	.st278{fill:url(#SVGID_259_);}
	.st279{fill:url(#SVGID_260_);}
	.st280{fill:url(#SVGID_261_);}
	.st281{fill:url(#SVGID_262_);}
	.st282{fill:url(#SVGID_263_);}
	.st283{fill:url(#SVGID_264_);}
	.st284{fill:#0A8074;}
	.st285{fill:#232323;}
	.st286{fill:url(#SVGID_265_);}
	.st287{fill:url(#SVGID_266_);}
	.st288{fill:url(#SVGID_267_);}
	.st289{fill:url(#SVGID_268_);}
	.st290{fill:url(#SVGID_269_);}
	.st291{fill:url(#SVGID_270_);}
	.st292{fill:url(#SVGID_271_);}
	.st293{fill:url(#SVGID_272_);}
	.st294{fill:url(#SVGID_273_);}
	.st295{fill:url(#SVGID_274_);}
	.st296{fill:url(#SVGID_275_);}
	.st297{fill:url(#SVGID_276_);}
	.st298{fill:url(#SVGID_277_);}
	.st299{fill:#0D0D0D;}
	.st300{fill:url(#SVGID_278_);}
	.st301{fill:url(#SVGID_279_);}
	.st302{fill:url(#SVGID_280_);}
	.st303{fill:url(#SVGID_281_);}
	.st304{fill:url(#SVGID_282_);}
	.st305{fill:url(#SVGID_283_);}
	.st306{fill:url(#SVGID_284_);}
	.st307{fill:url(#SVGID_285_);}
	.st308{fill:url(#SVGID_286_);}
	.st309{fill:url(#SVGID_287_);}
	.st310{fill:url(#SVGID_288_);}
	.st311{fill:url(#SVGID_289_);}
	.st312{fill:url(#SVGID_290_);}
	.st313{fill:url(#SVGID_291_);}
	.st314{fill:url(#SVGID_292_);}
	.st315{fill:url(#SVGID_293_);}
	.st316{fill:url(#SVGID_294_);}
	.st317{fill:url(#SVGID_295_);}
	.st318{opacity:0.68;fill:url(#SVGID_296_);}
	.st319{fill:url(#SVGID_297_);}
	.st320{fill:url(#SVGID_298_);}
	.st321{fill:url(#SVGID_299_);}
	.st322{fill:url(#SVGID_300_);}
	.st323{fill:url(#SVGID_301_);}
	.st324{fill:url(#SVGID_302_);}
	.st325{fill:url(#SVGID_303_);}
	.st326{fill:url(#SVGID_304_);}
	.st327{fill:url(#SVGID_305_);}
	.st328{fill:url(#SVGID_306_);}
	.st329{fill:url(#SVGID_307_);}
	.st330{fill:url(#SVGID_308_);}
	.st331{fill:url(#SVGID_309_);}
	.st332{fill:url(#SVGID_310_);}
	.st333{fill:url(#SVGID_311_);}
	.st334{fill:url(#SVGID_312_);}
	.st335{fill:url(#SVGID_313_);}
	.st336{fill:url(#SVGID_314_);}
	.st337{fill:url(#SVGID_315_);}
	.st338{fill:url(#SVGID_316_);}
	.st339{fill:url(#SVGID_317_);}
	.st340{fill:url(#SVGID_318_);}
	.st341{fill:url(#SVGID_319_);}
	.st342{fill:url(#SVGID_320_);}
	.st343{fill:url(#SVGID_321_);}
	.st344{fill:url(#SVGID_322_);}
	.st345{fill:url(#SVGID_323_);}
	.st346{fill:url(#SVGID_324_);}
	.st347{fill:url(#SVGID_325_);}
	.st348{fill:url(#SVGID_326_);}
	.st349{fill:url(#SVGID_327_);}
	.st350{fill:url(#SVGID_328_);}
	.st351{fill:url(#SVGID_329_);}
	.st352{fill:url(#SVGID_330_);}
	.st353{fill:url(#SVGID_331_);}
	.st354{fill:url(#SVGID_332_);}
	.st355{fill:url(#SVGID_333_);}
	.st356{fill:url(#SVGID_334_);}
	.st357{fill:url(#SVGID_335_);}
	.st358{fill:url(#SVGID_336_);}
	.st359{fill:url(#SVGID_337_);}
	.st360{fill:url(#SVGID_338_);}
	.st361{fill:url(#SVGID_339_);}
	.st362{fill:url(#SVGID_340_);}
	.st363{fill:url(#SVGID_341_);}
	.st364{fill:url(#SVGID_342_);}
	.st365{fill:url(#SVGID_343_);}
	.st366{fill:url(#SVGID_344_);}
	.st367{opacity:0.4;fill:url(#SVGID_345_);}
	.st368{fill:url(#XMLID_6_);}
	.st369{fill:url(#XMLID_21_);}
	.st370{fill:url(#XMLID_22_);}
	.st371{fill:#FFEECC;}
	.st372{fill:url(#XMLID_23_);}
	.st373{fill:url(#XMLID_24_);}
	.st374{fill:url(#SVGID_346_);}
	.st375{fill:url(#XMLID_25_);}
	.st376{fill:url(#XMLID_26_);}
	.st377{fill:url(#XMLID_27_);}
	.st378{fill:url(#XMLID_28_);}
	.st379{fill:url(#XMLID_29_);}
	.st380{fill:url(#SVGID_347_);}
	.st381{opacity:0.4;fill:url(#SVGID_348_);}
	.st382{opacity:0.4;fill:url(#SVGID_349_);}
	.st383{fill:url(#SVGID_350_);}
	.st384{fill:url(#SVGID_351_);}
	.st385{fill:#77D6FC;}
	.st386{fill:url(#SVGID_352_);}
	.st387{opacity:5.000000e-02;fill:#F1F1F3;}
	.st388{fill:url(#SVGID_353_);}
	.st389{fill:url(#SVGID_354_);}
	.st390{fill:url(#SVGID_355_);}
	.st391{fill:url(#SVGID_356_);}
	.st392{opacity:0.5;fill:#5BC8FF;}
	.st393{fill:#9DE5FC;}
	.st394{opacity:0.7;fill:#3DBDFC;}
	.st395{fill:url(#SVGID_357_);}
	.st396{fill:url(#SVGID_358_);}
	.st397{fill:url(#SVGID_359_);}
	.st398{fill:#EAEAEC;}
	.st399{fill:#5A6268;}
	.st400{fill:url(#SVGID_360_);}
	.st401{fill:url(#SVGID_361_);}
	.st402{fill:url(#SVGID_362_);}
	.st403{fill:url(#SVGID_363_);}
	.st404{fill:url(#SVGID_364_);}
	.st405{fill:url(#SVGID_365_);}
	.st406{fill:url(#SVGID_366_);}
	.st407{opacity:0.5;fill:#FFFFFF;}
	.st408{fill:url(#SVGID_367_);}
	.st409{fill:url(#SVGID_368_);}
	.st410{fill:url(#SVGID_369_);}
	.st411{fill:url(#SVGID_370_);}
	.st412{fill:url(#SVGID_371_);}
	.st413{fill:url(#SVGID_372_);}
	.st414{fill:url(#SVGID_373_);}
	.st415{fill:url(#SVGID_374_);}
	.st416{fill:url(#SVGID_375_);}
	.st417{fill:url(#SVGID_376_);}
	.st418{fill:url(#SVGID_377_);}
	.st419{fill:url(#SVGID_378_);}
	.st420{fill:url(#SVGID_379_);}
	.st421{fill:url(#SVGID_380_);}
	.st422{fill:url(#SVGID_381_);}
	.st423{fill:url(#SVGID_382_);}
	.st424{fill:url(#SVGID_383_);}
	.st425{fill:url(#SVGID_384_);}
	.st426{fill:url(#SVGID_385_);}
	.st427{fill:url(#SVGID_386_);}
	.st428{fill:url(#SVGID_387_);}
	.st429{fill:url(#SVGID_388_);}
	.st430{fill:url(#SVGID_389_);}
	.st431{fill:url(#SVGID_390_);}
	.st432{fill:url(#SVGID_391_);}
	.st433{fill:url(#SVGID_392_);}
	.st434{fill:url(#SVGID_393_);}
	.st435{fill:url(#SVGID_394_);}
	.st436{fill:url(#SVGID_395_);}
	.st437{fill:url(#SVGID_396_);}
	.st438{fill:url(#SVGID_397_);}
	.st439{fill:url(#SVGID_398_);}
	.st440{fill:url(#SVGID_399_);}
	.st441{fill:url(#SVGID_400_);}
	.st442{fill:url(#SVGID_401_);}
	.st443{fill:url(#SVGID_402_);}
	.st444{fill:url(#SVGID_403_);}
	.st445{fill:url(#SVGID_404_);}
	.st446{clip-path:url(#SVGID_406_);}
	.st447{fill:url(#SVGID_407_);}
	.st448{fill:url(#SVGID_408_);}
	.st449{fill:url(#SVGID_409_);}
	.st450{fill:url(#SVGID_410_);}
	.st451{filter:url(#Adobe_OpacityMaskFilter);}
	.st452{opacity:0.75;mask:url(#SVGID_411_);}
	.st453{fill:url(#SVGID_412_);}
	.st454{fill:url(#SVGID_413_);}
	.st455{fill:url(#SVGID_414_);}
	.st456{clip-path:url(#SVGID_406_);fill:url(#SVGID_415_);}
	.st457{fill:url(#SVGID_416_);}
	.st458{fill:url(#SVGID_417_);}
	.st459{fill:url(#SVGID_418_);}
	.st460{fill:url(#SVGID_419_);}
	.st461{fill:url(#SVGID_420_);}
</style>
<radialGradient id="SVGID_1_" cx="173.3127" cy="-1050.4464" r="18.9574" gradientTransform="matrix(5.1653 0 0 2.3718 -783.684 2686.6008)" gradientUnits="userSpaceOnUse">
	<stop  offset="0" style="stop-color:#EEF2B5"/>
	<stop  offset="0.2109" style="stop-color:#F0F4BE;stop-opacity:0.7891"/>
	<stop  offset="0.5547" style="stop-color:#F6F8D6;stop-opacity:0.4453"/>
	<stop  offset="0.9866" style="stop-color:#FFFFFE;stop-opacity:1.342875e-02"/>
	<stop  offset="1" style="stop-color:#FFFFFF;stop-opacity:0"/>
</radialGradient>
<ellipse class="st0" cx="111.5" cy="195.1" rx="97.9" ry="45"/>
<g>
	<g>
		<linearGradient id="SVGID_2_" gradientUnits="userSpaceOnUse" x1="80.304" y1="82.9392" x2="66.8602" y2="104.5601">
			<stop  offset="0" style="stop-color:#DE157D"/>
			<stop  offset="0.1984" style="stop-color:#CD157D"/>
			<stop  offset="0.5911" style="stop-color:#A1157D"/>
			<stop  offset="1" style="stop-color:#6D157D"/>
		</linearGradient>
		<path style="fill:url(#SVGID_2_);" d="M101.3,100.6l3.2-6L62.4,72l0,0c-1.7-1-4.1-0.9-6.8,0.7c-5.3,3-9.7,10.5-9.7,16.7
			c0,2.8,0.9,4.7,2.3,5.9l0,0l0.1,0c0.3,0.2,43.2,23.3,43.2,23.3l3.8-6.9C98.2,108.7,100.4,104.6,101.3,100.6z"/>
		<path class="st284" d="M107.6,101c0,6.2-4.3,13.6-9.6,16.7c-5.3,3.1-9.7,0.6-9.7-5.5c0-6.1,4.3-13.6,9.7-16.7
			C103.2,92.4,107.6,94.9,107.6,101z"/>
		<path class="st285" d="M104.7,102.6c0,4.4-3,9.6-6.8,11.8c-3.8,2.2-6.8,0.4-6.8-3.9c0-4.3,3-9.6,6.8-11.8
			C101.7,96.5,104.7,98.3,104.7,102.6z"/>
	</g>
	<linearGradient id="SVGID_3_" gradientUnits="userSpaceOnUse" x1="156.3007" y1="51.3139" x2="92.6633" y2="130.0782">
		<stop  offset="0" style="stop-color:#EEF2B5"/>
		<stop  offset="1" style="stop-color:#3169FF"/>
	</linearGradient>
	<path style="fill:url(#SVGID_3_);" d="M142.2,116.7l25.2-62.1l-38.3-22.2c-0.3-0.2-0.6-0.3-0.9-0.5l-0.2-0.1l0,0
		c-8.4-4.7-19.1-5.5-28.8-0.3l0,0c-26,13.7-42.4,40.7-42.4,70.2l-0.1,96.1l42.6,25.1l30.3-74.8C135.9,138.6,140.3,127.9,142.2,116.7
		z"/>
	<linearGradient id="SVGID_4_" gradientUnits="userSpaceOnUse" x1="66.1868" y1="-0.8833" x2="140.7782" y2="145.1698">
		<stop  offset="0" style="stop-color:#EEF2B5"/>
		<stop  offset="1" style="stop-color:#311FFF"/>
	</linearGradient>
	<path style="fill:url(#SVGID_4_);" d="M186.1,82.5l-0.1,45.1c0,28.4-15.2,54.5-39.7,68.7l0,0c-4.8,2.8-14.3,6.3-19.6,3.3
		l-19.2,14.9v3.7l-8.3,4.5l0.1-96.8c0.1-29.4,16.4-56.4,42.4-70.2l0,0C162,45.2,186.1,59.8,186.1,82.5z"/>
	<g>
		
			<linearGradient id="SVGID_5_" gradientUnits="userSpaceOnUse" x1="129.4873" y1="118.6404" x2="138.6319" y2="133.7022" gradientTransform="matrix(1.1231 1.876043e-02 1.876043e-02 1.0029 -82.5799 -12.5849)">
			<stop  offset="0" style="stop-color:#EEF2B5"/>
			<stop  offset="1" style="stop-color:#001FAF"/>
		</linearGradient>
		<path style="fill:url(#SVGID_5_);" d="M82.3,137.5c-0.5,3.2,1.4,7.5,4.3,9.6c2.9,2.1,5.6,1.2,6.1-2c0.5-3.2-1.4-7.5-4.3-9.6
			C85.5,133.4,82.8,134.3,82.3,137.5z"/>
		
			<linearGradient id="SVGID_6_" gradientUnits="userSpaceOnUse" x1="6302.6963" y1="134.9829" x2="6296.8955" y2="144.175" gradientTransform="matrix(-1 0 0 1 6386.3662 0)">
			<stop  offset="0" style="stop-color:#DE157D"/>
			<stop  offset="0.1984" style="stop-color:#CD157D"/>
			<stop  offset="0.5911" style="stop-color:#A1157D"/>
			<stop  offset="1" style="stop-color:#6D157D"/>
		</linearGradient>
		<path style="fill:url(#SVGID_6_);" d="M92,143.2c0,1.5-0.6,2.6-1.4,3.1l-3.2,1.9c0.9-0.5,1.4-1.6,1.4-3.1c0-3.1-2.2-6.9-4.9-8.5
			c-1.4-0.8-2.6-0.9-3.5-0.3l3.1-1.8l0.1,0c0.9-0.5,2.1-0.5,3.5,0.3C89.8,136.3,92,140.1,92,143.2z"/>
		<linearGradient id="SVGID_7_" gradientUnits="userSpaceOnUse" x1="92.7304" y1="151.9391" x2="114.8339" y2="175.9988">
			<stop  offset="0" style="stop-color:#DE4E7D"/>
			<stop  offset="3.912264e-02" style="stop-color:#DD3D7D"/>
			<stop  offset="0.1103" style="stop-color:#DC157D"/>
			<stop  offset="0.3034" style="stop-color:#C9157D"/>
			<stop  offset="0.6931" style="stop-color:#98157D"/>
			<stop  offset="1" style="stop-color:#6D157D"/>
		</linearGradient>
		<path style="fill:url(#SVGID_7_);" d="M78.9,139.4c0,3.1,2.2,6.9,4.9,8.5c2.7,1.6,4.9,0.3,4.9-2.8c0-3.1-2.2-6.9-4.9-8.5
			C81.1,135,78.9,136.3,78.9,139.4z"/>
		<g>
			
				<linearGradient id="SVGID_8_" gradientUnits="userSpaceOnUse" x1="6306.8184" y1="140.3604" x2="6303.2783" y2="145.9705" gradientTransform="matrix(-1 0 0 1 6386.3662 0)">
				<stop  offset="0" style="stop-color:#DE157D"/>
				<stop  offset="0.1984" style="stop-color:#CD157D"/>
				<stop  offset="0.5911" style="stop-color:#A1157D"/>
				<stop  offset="1" style="stop-color:#6D157D"/>
			</linearGradient>
			<path style="fill:url(#SVGID_8_);" d="M86.2,144.4c0,0.9-0.3,1.6-0.9,1.9l-5.1,3c0.5-0.3,0.9-1,0.9-1.9c0-1.9-1.3-4.2-2.9-5.1
				c-0.8-0.5-1.6-0.5-2.1-0.2l5.1-3c0.5-0.3,1.3-0.3,2.1,0.2C84.9,140.3,86.2,142.6,86.2,144.4z"/>
			<linearGradient id="SVGID_9_" gradientUnits="userSpaceOnUse" x1="87.8891" y1="156.3868" x2="109.9927" y2="180.4464">
				<stop  offset="0" style="stop-color:#DE4E7D"/>
				<stop  offset="3.912264e-02" style="stop-color:#DD3D7D"/>
				<stop  offset="0.1103" style="stop-color:#DC157D"/>
				<stop  offset="0.3034" style="stop-color:#C9157D"/>
				<stop  offset="0.6931" style="stop-color:#98157D"/>
				<stop  offset="1" style="stop-color:#6D157D"/>
			</linearGradient>
			<path style="fill:url(#SVGID_9_);" d="M75.1,144c0,1.9,1.3,4.1,2.9,5.1c1.6,0.9,3,0.2,3-1.7c0-1.9-1.3-4.1-2.9-5.1
				C76.5,141.4,75.1,142.1,75.1,144z"/>
		</g>
	</g>
	<linearGradient id="SVGID_10_" gradientUnits="userSpaceOnUse" x1="96.0377" y1="63.3799" x2="128.8997" y2="108.239">
		<stop  offset="0" style="stop-color:#EEF2B5"/>
		<stop  offset="1" style="stop-color:#001FAF"/>
	</linearGradient>
	<path style="fill:url(#SVGID_10_);" d="M143.7,74.7L143.7,74.7c13.4-7.7,30.1,2,30.1,17.5l-0.1,37.9c0,20.8-11.2,40-29.3,50.2
		l-0.1,0c-14.7,8.4-32.9-2.3-32.8-19.2l0.3-31.7C111.9,106.8,124.1,86,143.7,74.7z"/>
	<linearGradient id="SVGID_11_" gradientUnits="userSpaceOnUse" x1="181.067" y1="142.2042" x2="122.2979" y2="108.0052">
		<stop  offset="0" style="stop-color:#EEF2B5"/>
		<stop  offset="1" style="stop-color:#3169FF"/>
	</linearGradient>
	<path style="fill:url(#SVGID_11_);" d="M173.2,95.7l-34.5-17.8c-10.2,6.6-27,25.1-27,51.6c0,3.6-0.3,14.2-0.3,14.2L173.2,95.7z"/>
	<polygon class="st285" points="126.7,164.1 111.6,156 111.5,143.7 	"/>
	<linearGradient id="SVGID_12_" gradientUnits="userSpaceOnUse" x1="131.1165" y1="98.1729" x2="180.931" y2="197.2804">
		<stop  offset="0" style="stop-color:#EEF2B5"/>
		<stop  offset="0.1482" style="stop-color:#EAF1B7"/>
		<stop  offset="0.282" style="stop-color:#DFECBD"/>
		<stop  offset="0.4104" style="stop-color:#CDE5C8"/>
		<stop  offset="0.5354" style="stop-color:#B3DAD7"/>
		<stop  offset="0.6567" style="stop-color:#92CDEA"/>
		<stop  offset="0.7647" style="stop-color:#6EBEFF"/>
	</linearGradient>
	<path style="fill:url(#SVGID_12_);" d="M111.5,143.7c6.1-25.8,33.4-52.6,62.3-47.8c0.5,28.4-7.9,62.1-15.1,72.7
		C134.8,174.6,113.4,159.2,111.5,143.7z"/>
	<g>
		<linearGradient id="SVGID_13_" gradientUnits="userSpaceOnUse" x1="134.9694" y1="102.6889" x2="153.9433" y2="148.461">
			<stop  offset="0" style="stop-color:#EEF2B5"/>
			<stop  offset="1" style="stop-color:#3169FF"/>
		</linearGradient>
		<path style="fill:url(#SVGID_13_);" d="M163.6,125.2c0,10-7,22.1-15.6,27.1c-8.6,5-15.6,0.9-15.6-9c0-10,7-22.1,15.6-27.1
			C156.7,111.2,163.6,115.2,163.6,125.2z"/>
		<linearGradient id="SVGID_14_" gradientUnits="userSpaceOnUse" x1="137.1804" y1="134.7396" x2="160.9471" y2="134.7396">
			<stop  offset="0" style="stop-color:#EEF2B5"/>
			<stop  offset="1" style="stop-color:#3169FF"/>
		</linearGradient>
		<path style="fill:url(#SVGID_14_);" d="M160.9,126.7c0,8.2-5.8,18.2-12.9,22.4c-4.6,2.6-8.5,2.2-10.8-0.6c2.4,1.6,5.8,1.5,9.6-0.6
			c7.1-4.1,12.9-14.1,12.9-22.4c0-3-0.8-5.3-2.1-6.9C159.7,120,160.9,122.8,160.9,126.7z"/>
		<linearGradient id="SVGID_15_" gradientUnits="userSpaceOnUse" x1="135.8917" y1="116.7994" x2="153.6919" y2="142.8151">
			<stop  offset="0" style="stop-color:#EEF2B5"/>
			<stop  offset="1" style="stop-color:#3169FF"/>
		</linearGradient>
		<path style="fill:url(#SVGID_15_);" d="M159.6,125.5c0,8.3-5.8,18.3-12.9,22.4c-3.8,2.2-7.2,2.3-9.6,0.6c-1.3-1.6-2.1-3.9-2.1-6.9
			c0-8.2,5.8-18.3,12.9-22.4c3.8-2.2,7.2-2.3,9.5-0.7C158.9,120.2,159.6,122.5,159.6,125.5z"/>
	</g>
	<path class="st299" d="M158.7,159.5c0,2.3-1.6,5.1-3.6,6.3c-2,1.2-3.6,0.2-3.6-2.1c0-2.3,1.6-5.1,3.6-6.3
		C157,156.2,158.7,157.1,158.7,159.5z"/>
	<linearGradient id="SVGID_16_" gradientUnits="userSpaceOnUse" x1="184.8235" y1="161.0791" x2="184.6575" y2="161.0791">
		<stop  offset="0" style="stop-color:#EEF2B5"/>
		<stop  offset="1" style="stop-color:#3169FF"/>
	</linearGradient>
	<path class="st16" d="M155,157.4c-2,1.2-3.6,4-3.6,6.3c0,0.5,0.1,0.9,0.2,1.3c0.6,0.5,1.6,0.5,2.7-0.1c1.9-1.1,3.5-3.8,3.5-6
		c0-0.8-0.2-1.4-0.6-1.9C156.6,156.8,155.8,156.9,155,157.4z"/>
	<path class="st299" d="M125.2,139c0,2.3-1.6,5.1-3.6,6.3c-2,1.2-3.6,0.2-3.6-2.1c0-2.3,1.6-5.1,3.6-6.3
		C123.5,135.7,125.2,136.7,125.2,139z"/>
	<linearGradient id="SVGID_17_" gradientUnits="userSpaceOnUse" x1="184.8235" y1="140.5879" x2="184.6575" y2="140.5879">
		<stop  offset="0" style="stop-color:#EEF2B5"/>
		<stop  offset="1" style="stop-color:#3169FF"/>
	</linearGradient>
	<path class="st17" d="M121.5,136.9c-2,1.2-3.6,4-3.6,6.3c0,0.5,0.1,0.9,0.2,1.3c0.6,0.5,1.6,0.5,2.7-0.1c1.9-1.1,3.5-3.8,3.5-6
		c0-0.8-0.2-1.4-0.6-1.9C123.1,136.3,122.3,136.4,121.5,136.9z"/>
	<path class="st299" d="M152.7,63.1c0,2.3-1.6,5.1-3.6,6.3c-2,1.2-3.6,0.2-3.6-2.1c0-2.3,1.6-5.1,3.6-6.3
		C151.1,59.8,152.7,60.8,152.7,63.1z"/>
	<linearGradient id="SVGID_18_" gradientUnits="userSpaceOnUse" x1="133.9825" y1="32.5815" x2="147.0881" y2="61.5313">
		<stop  offset="0" style="stop-color:#EEF2B5"/>
		<stop  offset="1" style="stop-color:#001FAF"/>
	</linearGradient>
	<path class="st18" d="M149.1,61c-2,1.2-3.6,4-3.6,6.3c0,0.5,0.1,0.9,0.2,1.3c0.6,0.5,1.6,0.5,2.7-0.1c1.9-1.1,3.5-3.8,3.5-6
		c0-0.8-0.2-1.5-0.6-1.9C150.6,60.4,149.9,60.5,149.1,61z"/>
	<path class="st299" d="M143.5,188c0,2.3-1.6,5.1-3.6,6.3c-2,1.2-3.6,0.2-3.6-2.1c0-2.3,1.6-5.1,3.6-6.3
		C141.9,184.7,143.5,185.7,143.5,188z"/>
	<linearGradient id="SVGID_19_" gradientUnits="userSpaceOnUse" x1="79.4071" y1="57.2879" x2="92.5127" y2="86.2377">
		<stop  offset="0" style="stop-color:#EEF2B5"/>
		<stop  offset="1" style="stop-color:#001FAF"/>
	</linearGradient>
	<path class="st20" d="M139.8,185.9c-2,1.2-3.6,4-3.6,6.3c0,0.5,0.1,0.9,0.2,1.3c0.6,0.5,1.6,0.5,2.7-0.1c1.9-1.1,3.5-3.8,3.5-6
		c0-0.8-0.2-1.5-0.6-1.9C141.4,185.3,140.7,185.4,139.8,185.9z"/>
	<path class="st299" d="M70.9,191.2c0,3.7,2.6,8.2,5.8,10.1c3.2,1.9,5.8,0.4,5.9-3.3c0-3.7-2.6-8.2-5.8-10.1
		C73.5,186,70.9,187.5,70.9,191.2z"/>
	<linearGradient id="SVGID_20_" gradientUnits="userSpaceOnUse" x1="68.0969" y1="61.6022" x2="70.4442" y2="95.0509">
		<stop  offset="0" style="stop-color:#EEF2B5"/>
		<stop  offset="1" style="stop-color:#314AFF"/>
	</linearGradient>
	<path class="st21" d="M76.8,187.8c-1.6-0.9-3.1-1-4.1-0.4c-0.3,0.6-0.5,1.4-0.5,2.4c0,3.7,2.6,8.2,5.8,10.1c1.6,0.9,3.1,1,4.1,0.4
		c0.3-0.6,0.5-1.4,0.5-2.4C82.6,194.2,80,189.7,76.8,187.8z"/>
	<path class="st299" d="M71.3,108.8c0,3.4,2.4,7.6,5.4,9.4c3,1.7,5.5,0.3,5.5-3.1c0-3.4-2.4-7.6-5.4-9.4
		C73.8,104,71.3,105.4,71.3,108.8z"/>
	<linearGradient id="SVGID_21_" gradientUnits="userSpaceOnUse" x1="73.8173" y1="61.2007" x2="76.1646" y2="94.6495">
		<stop  offset="0" style="stop-color:#EEF2B5"/>
		<stop  offset="1" style="stop-color:#314AFF"/>
	</linearGradient>
	<path class="st22" d="M76.8,105.7c-1.5-0.9-2.9-1-3.8-0.4c-0.3,0.6-0.4,1.3-0.5,2.2c0,3.4,2.4,7.6,5.4,9.4c1.5,0.9,2.9,1,3.8,0.4
		c0.3-0.6,0.4-1.3,0.5-2.2C82.2,111.7,79.8,107.5,76.8,105.7z"/>
	<g>
		<linearGradient id="SVGID_22_" gradientUnits="userSpaceOnUse" x1="152.0875" y1="126.5595" x2="144.2632" y2="141.9146">
			<stop  offset="0" style="stop-color:#DE157D"/>
			<stop  offset="0.1984" style="stop-color:#CD157D"/>
			<stop  offset="0.5911" style="stop-color:#A1157D"/>
			<stop  offset="1" style="stop-color:#6D157D"/>
		</linearGradient>
		<path style="fill:url(#SVGID_22_);" d="M155.6,133.3l2.2-4l-6.3-3.7l0,0c-1.2-0.7-2.8-0.6-4.5,0.5c-3.6,2-6.5,7-6.5,11.2
			c0,1.8,0.6,3.2,1.6,3.9l0,0l0,0c0.2,0.1,7,4.1,7,4.1l2.5-4.6C153.6,138.7,155.1,136,155.6,133.3z"/>
		<linearGradient id="SVGID_23_" gradientUnits="userSpaceOnUse" x1="174.777" y1="162.1736" x2="162.2581" y2="147.6009">
			<stop  offset="0" style="stop-color:#DE157D"/>
			<stop  offset="0.1984" style="stop-color:#CD157D"/>
			<stop  offset="0.5911" style="stop-color:#A1157D"/>
			<stop  offset="1" style="stop-color:#6D157D"/>
		</linearGradient>
		<path class="st24" d="M159.8,133.5c0,4.1-2.9,9.1-6.5,11.2c-3.6,2.1-6.5,0.4-6.5-3.7c0-4.1,2.9-9.1,6.5-11.2
			C157,127.7,159.8,129.4,159.8,133.5z"/>
	</g>
	<g>
		<linearGradient id="SVGID_24_" gradientUnits="userSpaceOnUse" x1="166.5562" y1="133.932" x2="158.7319" y2="149.2872">
			<stop  offset="0" style="stop-color:#DE157D"/>
			<stop  offset="0.1984" style="stop-color:#CD157D"/>
			<stop  offset="0.5911" style="stop-color:#A1157D"/>
			<stop  offset="1" style="stop-color:#6D157D"/>
		</linearGradient>
		<path class="st25" d="M174.7,145.3l1.4-2.7l-18.9-10.2l0,0c-0.8-0.5-1.8-0.4-3,0.3c-2.4,1.4-4.3,4.7-4.3,7.5c0,1.2,0.4,2.1,1,2.6
			l0,0l0,0c0.1,0.1,19.4,10.5,19.4,10.5l1.7-3.1C173.4,148.9,174.4,147.1,174.7,145.3z"/>
		<linearGradient id="SVGID_25_" gradientUnits="userSpaceOnUse" x1="196.8569" y1="171.5345" x2="183.5556" y2="158.2332">
			<stop  offset="0" style="stop-color:#DE157D"/>
			<stop  offset="0.1984" style="stop-color:#CD157D"/>
			<stop  offset="0.5911" style="stop-color:#A1157D"/>
			<stop  offset="1" style="stop-color:#6D157D"/>
		</linearGradient>
		<path class="st26" d="M177.6,145.4c0,2.8-1.9,6.1-4.3,7.5c-2.4,1.4-4.3,0.3-4.3-2.5c0-2.8,1.9-6.1,4.3-7.5
			C175.6,141.6,177.6,142.7,177.6,145.4z"/>
		<path class="st285" d="M176.3,146.2c0,2-1.4,4.3-3.1,5.3c-1.7,1-3.1,0.2-3.1-1.8c0-1.9,1.4-4.3,3.1-5.3
			C174.9,143.4,176.3,144.2,176.3,146.2z"/>
	</g>
	<linearGradient id="SVGID_26_" gradientUnits="userSpaceOnUse" x1="101.4716" y1="153.9921" x2="112.6863" y2="199.1121">
		<stop  offset="0" style="stop-color:#EEF2B5"/>
		<stop  offset="1" style="stop-color:#001F84"/>
	</linearGradient>
	<path class="st27" d="M105.5,201.3L105.5,201.3c0,1.7,1.8,2.7,3.3,1.9l7.7-4.6c1.6-1,2.6-2.7,2.6-4.6v0c0-1.7-1.8-2.7-3.3-1.9
		l-7.7,4.6C106.5,197.7,105.5,199.4,105.5,201.3z"/>
	<linearGradient id="SVGID_27_" gradientUnits="userSpaceOnUse" x1="163.7269" y1="40.2532" x2="175.4633" y2="88.5029">
		<stop  offset="0" style="stop-color:#EEF2B5"/>
		<stop  offset="1" style="stop-color:#001F84"/>
	</linearGradient>
	<path class="st28" d="M180.2,129.1L180.2,129.1c-0.9,0.6-2.1,0-2.1-1.1V86.9c0-1.1,0.5-2.2,1.5-2.8l0,0c0.9-0.6,2.1,0,2.1,1.1v41.1
		C181.6,127.4,181.1,128.4,180.2,129.1z"/>
	<linearGradient id="SVGID_28_" gradientUnits="userSpaceOnUse" x1="83.3545" y1="59.8033" x2="95.0909" y2="108.053">
		<stop  offset="0" style="stop-color:#EEF2B5"/>
		<stop  offset="1" style="stop-color:#001F84"/>
	</linearGradient>
	<path class="st29" d="M105.8,173.4L105.8,173.4c-0.9,0.6-2.1,0-2.1-1.1v-41.1c0-1.1,0.5-2.2,1.5-2.8h0c0.9-0.6,2.1,0,2.1,1.1v41.1
		C107.3,171.6,106.7,172.7,105.8,173.4z"/>
	<g>
		
			<linearGradient id="SVGID_29_" gradientUnits="userSpaceOnUse" x1="129.0605" y1="144.1914" x2="138.2051" y2="159.2531" gradientTransform="matrix(1.1231 1.876043e-02 1.876043e-02 1.0029 -82.5799 -12.5849)">
			<stop  offset="0" style="stop-color:#EEF2B5"/>
			<stop  offset="1" style="stop-color:#001FAF"/>
		</linearGradient>
		<path style="fill:url(#SVGID_29_);" d="M82.3,163.1c-0.5,3.2,1.4,7.5,4.3,9.6c2.9,2.1,5.6,1.2,6.1-2c0.5-3.2-1.4-7.5-4.3-9.6
			C85.5,159,82.8,159.9,82.3,163.1z"/>
		
			<linearGradient id="SVGID_30_" gradientUnits="userSpaceOnUse" x1="6302.6963" y1="160.5989" x2="6296.8955" y2="169.791" gradientTransform="matrix(-1 0 0 1 6386.3662 0)">
			<stop  offset="0" style="stop-color:#DE157D"/>
			<stop  offset="0.1984" style="stop-color:#CD157D"/>
			<stop  offset="0.5911" style="stop-color:#A1157D"/>
			<stop  offset="1" style="stop-color:#6D157D"/>
		</linearGradient>
		<path class="st31" d="M92,168.8c0,1.5-0.6,2.6-1.4,3.1l-3.2,1.9c0.9-0.5,1.4-1.6,1.4-3.1c0-3.1-2.2-6.9-4.9-8.5
			c-1.4-0.8-2.6-0.9-3.5-0.3l3.1-1.8l0.1,0c0.9-0.5,2.1-0.5,3.5,0.3C89.8,161.9,92,165.7,92,168.8z"/>
		<linearGradient id="SVGID_31_" gradientUnits="userSpaceOnUse" x1="92.7304" y1="177.5551" x2="114.8339" y2="201.6148">
			<stop  offset="0" style="stop-color:#DE4E7D"/>
			<stop  offset="3.912264e-02" style="stop-color:#DD3D7D"/>
			<stop  offset="0.1103" style="stop-color:#DC157D"/>
			<stop  offset="0.3034" style="stop-color:#C9157D"/>
			<stop  offset="0.6931" style="stop-color:#98157D"/>
			<stop  offset="1" style="stop-color:#6D157D"/>
		</linearGradient>
		<path class="st32" d="M78.9,165c0,3.1,2.2,6.9,4.9,8.5c2.7,1.6,4.9,0.3,4.9-2.8c0-3.1-2.2-6.9-4.9-8.5
			C81.1,160.7,78.9,161.9,78.9,165z"/>
		<g>
			
				<linearGradient id="SVGID_32_" gradientUnits="userSpaceOnUse" x1="6306.8184" y1="165.9764" x2="6303.2783" y2="171.5865" gradientTransform="matrix(-1 0 0 1 6386.3662 0)">
				<stop  offset="0" style="stop-color:#DE157D"/>
				<stop  offset="0.1984" style="stop-color:#CD157D"/>
				<stop  offset="0.5911" style="stop-color:#A1157D"/>
				<stop  offset="1" style="stop-color:#6D157D"/>
			</linearGradient>
			<path class="st33" d="M86.2,170.1c0,0.9-0.3,1.6-0.9,1.9l-5.1,3c0.5-0.3,0.9-1,0.9-1.9c0-1.9-1.3-4.2-2.9-5.1
				c-0.8-0.5-1.6-0.5-2.1-0.2l5.1-3c0.5-0.3,1.3-0.3,2.1,0.2C84.9,165.9,86.2,168.2,86.2,170.1z"/>
			<linearGradient id="SVGID_33_" gradientUnits="userSpaceOnUse" x1="87.8891" y1="182.0028" x2="109.9927" y2="206.0624">
				<stop  offset="0" style="stop-color:#DE4E7D"/>
				<stop  offset="3.912264e-02" style="stop-color:#DD3D7D"/>
				<stop  offset="0.1103" style="stop-color:#DC157D"/>
				<stop  offset="0.3034" style="stop-color:#C9157D"/>
				<stop  offset="0.6931" style="stop-color:#98157D"/>
				<stop  offset="1" style="stop-color:#6D157D"/>
			</linearGradient>
			<path class="st34" d="M75.1,169.6c0,1.9,1.3,4.1,2.9,5.1c1.6,0.9,3,0.2,3-1.7c0-1.9-1.3-4.1-2.9-5.1
				C76.5,167,75.1,167.8,75.1,169.6z"/>
		</g>
	</g>
</g>
</svg>
