<?xml version="1.0" encoding="utf-8"?>
<!-- Generator: Adobe Illustrator 25.2.1, SVG Export Plug-In . SVG Version: 6.00 Build 0)  -->
<svg version="1.1" id="Layer_2" xmlns="http://www.w3.org/2000/svg" xmlns:xlink="http://www.w3.org/1999/xlink" x="0px" y="0px"
	 viewBox="0 0 232 280.3" style="enable-background:new 0 0 232 280.3;" xml:space="preserve">
<style type="text/css">
	.st0{opacity:0.4;fill:url(#SVGID_1_);}
	.st1{opacity:0.4;fill:url(#SVGID_2_);}
	.st2{opacity:0.4;fill:url(#SVGID_3_);}
	.st3{opacity:0.4;fill:url(#SVGID_4_);}
	.st4{opacity:0.4;fill:url(#SVGID_5_);}
	.st5{opacity:0.4;fill:url(#SVGID_6_);}
	.st6{opacity:0.4;fill:url(#SVGID_7_);}
	.st7{opacity:0.4;fill:url(#SVGID_8_);}
	.st8{opacity:0.4;fill:url(#SVGID_9_);}
	.st9{opacity:0.4;fill:url(#SVGID_10_);}
	.st10{opacity:0.4;fill:url(#SVGID_11_);}
	.st11{opacity:0.4;fill:url(#SVGID_12_);}
	.st12{opacity:0.4;fill:url(#SVGID_13_);}
	.st13{opacity:0.4;fill:url(#SVGID_14_);}
	.st14{opacity:0.4;fill:url(#SVGID_15_);}
	.st15{enable-background:new    ;}
	.st16{fill:url(#SVGID_16_);}
	.st17{fill:url(#SVGID_17_);}
	.st18{fill:url(#SVGID_18_);}
	.st19{fill:#EEF2B5;}
	.st20{fill:url(#SVGID_19_);}
	.st21{fill:url(#SVGID_20_);}
	.st22{fill:url(#SVGID_21_);}
	.st23{opacity:0.23;fill:url(#SVGID_22_);}
	.st24{fill:url(#SVGID_23_);}
	.st25{fill:url(#SVGID_24_);}
	.st26{fill:url(#SVGID_25_);}
	.st27{fill:url(#SVGID_26_);}
	.st28{fill:url(#SVGID_27_);}
	.st29{fill:url(#SVGID_28_);}
	.st30{opacity:0.23;fill:url(#SVGID_29_);}
	.st31{fill:url(#SVGID_30_);}
	.st32{fill:url(#SVGID_31_);}
	.st33{fill:url(#SVGID_32_);}
	.st34{fill:url(#SVGID_33_);}
	.st35{fill:url(#SVGID_34_);}
	.st36{fill:url(#SVGID_35_);}
	.st37{fill:url(#SVGID_36_);}
	.st38{fill:#FFFFFF;}
	.st39{fill:url(#SVGID_37_);}
	.st40{fill:url(#SVGID_38_);}
	.st41{fill:#D8D8D8;}
	.st42{fill:url(#SVGID_39_);}
	.st43{fill:url(#SVGID_40_);}
	.st44{fill:url(#SVGID_41_);}
	.st45{fill:url(#SVGID_42_);}
	.st46{fill:url(#SVGID_43_);}
	.st47{fill:url(#SVGID_44_);}
	.st48{fill:url(#SVGID_45_);}
	.st49{fill:url(#SVGID_46_);}
	.st50{fill:url(#SVGID_47_);}
	.st51{fill:url(#SVGID_48_);}
	.st52{fill:url(#SVGID_49_);}
	.st53{fill:url(#SVGID_50_);}
	.st54{fill:none;}
	.st55{fill:url(#SVGID_51_);}
	.st56{fill:url(#SVGID_52_);}
	.st57{fill:url(#SVGID_53_);}
	.st58{fill:url(#SVGID_54_);}
	.st59{fill:url(#SVGID_55_);}
	.st60{fill:url(#SVGID_56_);}
	.st61{fill:url(#SVGID_57_);}
	.st62{fill:url(#SVGID_58_);}
	.st63{fill:url(#SVGID_59_);}
	.st64{fill:url(#SVGID_60_);}
	.st65{fill:url(#SVGID_61_);}
	.st66{fill:url(#SVGID_62_);}
	.st67{fill:url(#SVGID_63_);}
	.st68{fill:url(#SVGID_64_);}
	.st69{fill:url(#SVGID_65_);}
	.st70{fill:url(#SVGID_66_);}
	.st71{fill:url(#SVGID_67_);}
	.st72{fill:url(#SVGID_68_);}
	.st73{fill:url(#SVGID_69_);}
	.st74{fill:url(#SVGID_70_);}
	.st75{fill:url(#SVGID_71_);}
	.st76{fill:url(#SVGID_72_);}
	.st77{fill:url(#SVGID_73_);}
	.st78{fill:url(#SVGID_74_);}
	.st79{opacity:0.5;}
	.st80{fill:url(#SVGID_75_);}
	.st81{fill:url(#SVGID_76_);}
	.st82{fill:url(#SVGID_77_);}
	.st83{fill:url(#SVGID_78_);}
	.st84{fill:url(#SVGID_79_);}
	.st85{fill:url(#SVGID_80_);}
	.st86{fill:url(#SVGID_81_);}
	.st87{fill:url(#SVGID_82_);}
	.st88{fill:url(#SVGID_83_);}
	.st89{fill:url(#SVGID_84_);}
	.st90{fill:none;stroke:#FFFFFF;stroke-width:2;stroke-miterlimit:10;}
	.st91{fill:url(#SVGID_85_);}
	.st92{fill:url(#SVGID_86_);}
	.st93{fill:#FFDD00;}
	.st94{fill:url(#SVGID_87_);}
	.st95{fill:url(#SVGID_88_);}
	.st96{fill:url(#SVGID_89_);}
	.st97{fill:url(#SVGID_90_);}
	.st98{fill:#F6AF17;}
	.st99{fill:url(#SVGID_91_);}
	.st100{fill:#F1F1F3;}
	.st101{fill:url(#SVGID_92_);}
	.st102{fill:url(#SVGID_93_);}
	.st103{fill:url(#SVGID_94_);}
	.st104{fill:url(#SVGID_95_);}
	.st105{fill:url(#SVGID_96_);}
	.st106{fill:url(#SVGID_97_);}
	.st107{fill:url(#SVGID_98_);}
	.st108{fill:url(#SVGID_99_);}
	.st109{fill:url(#SVGID_100_);}
	.st110{fill:url(#SVGID_101_);}
	.st111{fill:url(#SVGID_102_);}
	.st112{fill:url(#SVGID_103_);}
	.st113{fill:url(#SVGID_104_);}
	.st114{fill:url(#SVGID_105_);}
	.st115{fill:url(#SVGID_106_);}
	.st116{fill:url(#SVGID_107_);}
	.st117{fill:url(#SVGID_108_);}
	.st118{fill:url(#SVGID_109_);}
	.st119{fill:url(#SVGID_110_);}
	.st120{fill:url(#SVGID_111_);}
	.st121{fill:#61A01D;}
	.st122{fill:url(#SVGID_112_);}
	.st123{clip-path:url(#SVGID_114_);enable-background:new    ;}
	.st124{fill:#477513;}
	.st125{fill:#4A7913;}
	.st126{fill:url(#SVGID_115_);}
	.st127{clip-path:url(#SVGID_117_);enable-background:new    ;}
	.st128{fill:#73BD1E;}
	.st129{fill:url(#SVGID_118_);}
	.st130{clip-path:url(#SVGID_120_);enable-background:new    ;}
	.st131{fill:url(#SVGID_121_);}
	.st132{fill:url(#SVGID_122_);}
	.st133{fill:url(#SVGID_123_);}
	.st134{fill:url(#SVGID_124_);}
	.st135{fill:url(#SVGID_125_);}
	.st136{clip-path:url(#SVGID_127_);enable-background:new    ;}
	.st137{fill:#457112;}
	.st138{fill:#436E11;}
	.st139{fill:#3E6510;}
	.st140{fill:url(#SVGID_128_);}
	.st141{fill:url(#SVGID_129_);}
	.st142{clip-path:url(#SVGID_131_);enable-background:new    ;}
	.st143{fill:url(#SVGID_132_);}
	.st144{clip-path:url(#SVGID_134_);enable-background:new    ;}
	.st145{fill:url(#SVGID_135_);}
	.st146{fill:url(#SVGID_136_);}
	.st147{fill:url(#SVGID_137_);}
	.st148{fill:url(#SVGID_138_);}
	.st149{fill:url(#SVGID_139_);}
	.st150{fill:url(#SVGID_140_);}
	.st151{fill:url(#SVGID_141_);}
	.st152{fill:url(#SVGID_142_);}
	.st153{opacity:0.1;fill:#F1F1F3;}
	.st154{fill:url(#SVGID_143_);}
	.st155{fill:url(#SVGID_144_);}
	.st156{fill:url(#SVGID_145_);}
	.st157{fill:url(#SVGID_146_);}
	.st158{fill:url(#SVGID_147_);}
	.st159{fill:url(#SVGID_148_);}
	.st160{fill:url(#SVGID_149_);}
	.st161{fill:url(#SVGID_150_);}
	.st162{fill:url(#SVGID_151_);}
	.st163{fill:url(#SVGID_152_);}
	.st164{fill:url(#SVGID_153_);}
	.st165{fill:url(#SVGID_154_);}
	.st166{fill:url(#SVGID_155_);}
	.st167{fill:url(#SVGID_156_);}
	.st168{fill:url(#SVGID_157_);}
	.st169{fill:url(#SVGID_158_);}
	.st170{fill:url(#SVGID_159_);}
	.st171{fill:url(#SVGID_160_);}
	.st172{fill:url(#SVGID_161_);}
	.st173{fill:url(#SVGID_162_);}
	.st174{fill:url(#SVGID_163_);}
	.st175{fill:url(#SVGID_164_);}
	.st176{opacity:0.5;fill:#00FFFF;}
	.st177{fill:url(#SVGID_165_);}
	.st178{fill:url(#SVGID_166_);}
	.st179{fill:url(#SVGID_167_);}
	.st180{fill:url(#SVGID_168_);}
	.st181{fill:url(#SVGID_169_);}
	.st182{fill:url(#SVGID_170_);}
	.st183{fill:url(#SVGID_171_);}
	.st184{fill:url(#SVGID_172_);}
	.st185{fill:url(#SVGID_173_);}
	.st186{fill:url(#SVGID_174_);}
	.st187{fill:url(#SVGID_175_);}
	.st188{fill:url(#SVGID_176_);}
	.st189{fill:url(#SVGID_177_);}
	.st190{fill:url(#SVGID_178_);}
	.st191{fill:#EB8FF9;}
	.st192{fill:url(#SVGID_179_);}
	.st193{fill:url(#SVGID_180_);}
	.st194{fill:url(#SVGID_181_);}
	.st195{fill:url(#SVGID_182_);}
	.st196{fill:url(#SVGID_183_);}
	.st197{fill:url(#SVGID_184_);}
	.st198{fill:url(#SVGID_185_);}
	.st199{fill:url(#SVGID_186_);}
	.st200{opacity:0.2;fill:#FFFFFF;}
	.st201{fill:url(#SVGID_187_);}
	.st202{fill:url(#SVGID_188_);}
	.st203{fill:url(#SVGID_189_);}
	.st204{fill:url(#SVGID_190_);}
	.st205{fill:url(#SVGID_191_);}
	.st206{fill:url(#SVGID_192_);}
	.st207{fill:url(#SVGID_193_);}
	.st208{fill:url(#SVGID_194_);}
	.st209{opacity:0.4;fill:#FFFFFF;}
	.st210{fill:url(#SVGID_195_);}
	.st211{fill:url(#SVGID_196_);}
	.st212{fill:url(#SVGID_197_);}
	.st213{fill:url(#SVGID_198_);}
	.st214{fill:url(#SVGID_199_);}
	.st215{fill:url(#SVGID_200_);}
	.st216{fill:url(#SVGID_201_);}
	.st217{fill:url(#SVGID_202_);}
	.st218{fill:url(#SVGID_203_);}
	.st219{fill:url(#SVGID_204_);}
	.st220{fill:#00FFFF;}
	.st221{opacity:0.63;}
	.st222{fill:url(#SVGID_205_);}
	.st223{fill:url(#SVGID_206_);}
	.st224{fill:url(#SVGID_207_);}
	.st225{fill:url(#SVGID_208_);}
	.st226{fill:url(#SVGID_209_);}
	.st227{fill:url(#SVGID_210_);}
	.st228{fill:url(#SVGID_211_);}
	.st229{fill:url(#SVGID_212_);}
	.st230{fill:url(#SVGID_213_);}
	.st231{fill:url(#SVGID_214_);}
	.st232{fill:url(#SVGID_215_);}
	.st233{fill:url(#SVGID_216_);}
	.st234{opacity:0.5;fill:#5BBC6F;}
	.st235{opacity:0.5;fill:#EEF2B5;}
	.st236{opacity:0.68;fill:url(#SVGID_217_);}
	.st237{fill:url(#SVGID_218_);}
	.st238{opacity:0.54;fill:url(#SVGID_219_);}
	.st239{fill:url(#SVGID_220_);}
	.st240{fill:url(#SVGID_221_);}
	.st241{fill:url(#SVGID_222_);}
	.st242{fill:url(#SVGID_223_);}
	.st243{fill:url(#SVGID_224_);}
	.st244{fill:url(#SVGID_225_);}
	.st245{fill:url(#SVGID_226_);}
	.st246{fill:url(#SVGID_227_);}
	.st247{fill:url(#SVGID_228_);}
	.st248{fill:url(#SVGID_229_);}
	.st249{fill:url(#SVGID_230_);}
	.st250{fill:url(#SVGID_231_);}
	.st251{fill:url(#SVGID_232_);}
	.st252{fill:url(#SVGID_233_);}
	.st253{fill:url(#SVGID_234_);}
	.st254{fill:url(#SVGID_235_);}
	.st255{fill:url(#SVGID_236_);}
	.st256{fill:url(#SVGID_237_);}
	.st257{fill:url(#SVGID_238_);}
	.st258{fill:url(#SVGID_239_);}
	.st259{fill:url(#SVGID_240_);}
	.st260{fill:url(#SVGID_241_);}
	.st261{fill:url(#SVGID_242_);}
	.st262{fill:url(#SVGID_243_);}
	.st263{fill:url(#SVGID_244_);}
	.st264{fill:url(#SVGID_245_);}
	.st265{fill:url(#SVGID_246_);}
	.st266{fill:url(#SVGID_247_);}
	.st267{fill:url(#SVGID_248_);}
	.st268{fill:url(#SVGID_249_);}
	.st269{fill:url(#SVGID_250_);}
	.st270{fill:url(#SVGID_251_);}
	.st271{fill:url(#SVGID_252_);}
	.st272{fill:url(#SVGID_253_);}
	.st273{fill:url(#SVGID_254_);}
	.st274{fill:url(#SVGID_255_);}
	.st275{fill:url(#SVGID_256_);}
	.st276{fill:url(#SVGID_257_);}
	.st277{fill:url(#SVGID_258_);}
	.st278{fill:url(#SVGID_259_);}
	.st279{fill:url(#SVGID_260_);}
	.st280{fill:url(#SVGID_261_);}
	.st281{fill:url(#SVGID_262_);}
	.st282{fill:url(#SVGID_263_);}
	.st283{fill:url(#SVGID_264_);}
	.st284{fill:#0A8074;}
	.st285{fill:#232323;}
	.st286{fill:url(#SVGID_265_);}
	.st287{fill:url(#SVGID_266_);}
	.st288{fill:url(#SVGID_267_);}
	.st289{fill:url(#SVGID_268_);}
	.st290{fill:url(#SVGID_269_);}
	.st291{fill:url(#SVGID_270_);}
	.st292{fill:url(#SVGID_271_);}
	.st293{fill:url(#SVGID_272_);}
	.st294{fill:url(#SVGID_273_);}
	.st295{fill:url(#SVGID_274_);}
	.st296{fill:url(#SVGID_275_);}
	.st297{fill:url(#SVGID_276_);}
	.st298{fill:url(#SVGID_277_);}
	.st299{fill:#0D0D0D;}
	.st300{fill:url(#SVGID_278_);}
	.st301{fill:url(#SVGID_279_);}
	.st302{fill:url(#SVGID_280_);}
	.st303{fill:url(#SVGID_281_);}
	.st304{fill:url(#SVGID_282_);}
	.st305{fill:url(#SVGID_283_);}
	.st306{fill:url(#SVGID_284_);}
	.st307{fill:url(#SVGID_285_);}
	.st308{fill:url(#SVGID_286_);}
	.st309{fill:url(#SVGID_287_);}
	.st310{fill:url(#SVGID_288_);}
	.st311{fill:url(#SVGID_289_);}
	.st312{fill:url(#SVGID_290_);}
	.st313{fill:url(#SVGID_291_);}
	.st314{fill:url(#SVGID_292_);}
	.st315{fill:url(#SVGID_293_);}
	.st316{fill:url(#SVGID_294_);}
	.st317{fill:url(#SVGID_295_);}
	.st318{opacity:0.68;fill:url(#SVGID_296_);}
	.st319{fill:url(#SVGID_297_);}
	.st320{fill:url(#SVGID_298_);}
	.st321{fill:url(#SVGID_299_);}
	.st322{fill:url(#SVGID_300_);}
	.st323{fill:url(#SVGID_301_);}
	.st324{fill:url(#SVGID_302_);}
	.st325{fill:url(#SVGID_303_);}
	.st326{fill:url(#SVGID_304_);}
	.st327{fill:url(#SVGID_305_);}
	.st328{fill:url(#SVGID_306_);}
	.st329{fill:url(#SVGID_307_);}
	.st330{fill:url(#SVGID_308_);}
	.st331{fill:url(#SVGID_309_);}
	.st332{fill:url(#SVGID_310_);}
	.st333{fill:url(#SVGID_311_);}
	.st334{fill:url(#SVGID_312_);}
	.st335{fill:url(#SVGID_313_);}
	.st336{fill:url(#SVGID_314_);}
	.st337{fill:url(#SVGID_315_);}
	.st338{fill:url(#SVGID_316_);}
	.st339{fill:url(#SVGID_317_);}
	.st340{fill:url(#SVGID_318_);}
	.st341{fill:url(#SVGID_319_);}
	.st342{fill:url(#SVGID_320_);}
	.st343{fill:url(#SVGID_321_);}
	.st344{fill:url(#SVGID_322_);}
	.st345{fill:url(#SVGID_323_);}
	.st346{fill:url(#SVGID_324_);}
	.st347{fill:url(#SVGID_325_);}
	.st348{fill:url(#SVGID_326_);}
	.st349{fill:url(#SVGID_327_);}
	.st350{fill:url(#SVGID_328_);}
	.st351{fill:url(#SVGID_329_);}
	.st352{fill:url(#SVGID_330_);}
	.st353{fill:url(#SVGID_331_);}
	.st354{fill:url(#SVGID_332_);}
	.st355{fill:url(#SVGID_333_);}
	.st356{fill:url(#SVGID_334_);}
	.st357{fill:url(#SVGID_335_);}
	.st358{fill:url(#SVGID_336_);}
	.st359{fill:url(#SVGID_337_);}
	.st360{fill:url(#SVGID_338_);}
	.st361{fill:url(#SVGID_339_);}
	.st362{fill:url(#SVGID_340_);}
	.st363{fill:url(#SVGID_341_);}
	.st364{fill:url(#SVGID_342_);}
	.st365{fill:url(#SVGID_343_);}
	.st366{fill:url(#SVGID_344_);}
	.st367{opacity:0.4;fill:url(#SVGID_345_);}
	.st368{fill:url(#XMLID_6_);}
	.st369{fill:url(#XMLID_21_);}
	.st370{fill:url(#XMLID_22_);}
	.st371{fill:#FFEECC;}
	.st372{fill:url(#XMLID_23_);}
	.st373{fill:url(#XMLID_24_);}
	.st374{fill:url(#SVGID_346_);}
	.st375{fill:url(#XMLID_25_);}
	.st376{fill:url(#XMLID_26_);}
	.st377{fill:url(#XMLID_27_);}
	.st378{fill:url(#XMLID_28_);}
	.st379{fill:url(#XMLID_29_);}
	.st380{fill:url(#SVGID_347_);}
	.st381{opacity:0.4;fill:url(#SVGID_348_);}
	.st382{opacity:0.4;fill:url(#SVGID_349_);}
	.st383{fill:url(#SVGID_350_);}
	.st384{fill:url(#SVGID_351_);}
	.st385{fill:#77D6FC;}
	.st386{fill:url(#SVGID_352_);}
	.st387{opacity:5.000000e-02;fill:#F1F1F3;}
	.st388{fill:url(#SVGID_353_);}
	.st389{fill:url(#SVGID_354_);}
	.st390{fill:url(#SVGID_355_);}
	.st391{fill:url(#SVGID_356_);}
	.st392{opacity:0.5;fill:#5BC8FF;}
	.st393{fill:#9DE5FC;}
	.st394{opacity:0.7;fill:#3DBDFC;}
	.st395{fill:url(#SVGID_357_);}
	.st396{fill:url(#SVGID_358_);}
	.st397{fill:url(#SVGID_359_);}
	.st398{fill:#EAEAEC;}
	.st399{fill:#5A6268;}
	.st400{fill:url(#SVGID_360_);}
	.st401{fill:url(#SVGID_361_);}
	.st402{fill:url(#SVGID_362_);}
	.st403{fill:url(#SVGID_363_);}
	.st404{fill:url(#SVGID_364_);}
	.st405{fill:url(#SVGID_365_);}
	.st406{fill:url(#SVGID_366_);}
	.st407{opacity:0.5;fill:#FFFFFF;}
	.st408{fill:url(#SVGID_367_);}
	.st409{fill:url(#SVGID_368_);}
	.st410{fill:url(#SVGID_369_);}
	.st411{fill:url(#SVGID_370_);}
	.st412{fill:url(#SVGID_371_);}
	.st413{fill:url(#SVGID_372_);}
	.st414{fill:url(#SVGID_373_);}
	.st415{fill:url(#SVGID_374_);}
	.st416{fill:url(#SVGID_375_);}
	.st417{fill:url(#SVGID_376_);}
	.st418{fill:url(#SVGID_377_);}
	.st419{fill:url(#SVGID_378_);}
	.st420{fill:url(#SVGID_379_);}
	.st421{fill:url(#SVGID_380_);}
	.st422{fill:url(#SVGID_381_);}
	.st423{fill:url(#SVGID_382_);}
	.st424{fill:url(#SVGID_383_);}
	.st425{fill:url(#SVGID_384_);}
	.st426{fill:url(#SVGID_385_);}
	.st427{fill:url(#SVGID_386_);}
	.st428{fill:url(#SVGID_387_);}
	.st429{fill:url(#SVGID_388_);}
	.st430{fill:url(#SVGID_389_);}
	.st431{fill:url(#SVGID_390_);}
	.st432{fill:url(#SVGID_391_);}
	.st433{fill:url(#SVGID_392_);}
	.st434{fill:url(#SVGID_393_);}
	.st435{fill:url(#SVGID_394_);}
	.st436{fill:url(#SVGID_395_);}
	.st437{fill:url(#SVGID_396_);}
	.st438{fill:url(#SVGID_397_);}
	.st439{fill:url(#SVGID_398_);}
	.st440{fill:url(#SVGID_399_);}
	.st441{fill:url(#SVGID_400_);}
	.st442{fill:url(#SVGID_401_);}
	.st443{fill:url(#SVGID_402_);}
	.st444{fill:url(#SVGID_403_);}
	.st445{fill:url(#SVGID_404_);}
	.st446{clip-path:url(#SVGID_406_);}
	.st447{fill:url(#SVGID_407_);}
	.st448{fill:url(#SVGID_408_);}
	.st449{fill:url(#SVGID_409_);}
	.st450{fill:url(#SVGID_410_);}
	.st451{filter:url(#Adobe_OpacityMaskFilter);}
	.st452{opacity:0.75;mask:url(#SVGID_411_);}
	.st453{fill:url(#SVGID_412_);}
	.st454{fill:url(#SVGID_413_);}
	.st455{fill:url(#SVGID_414_);}
	.st456{clip-path:url(#SVGID_406_);fill:url(#SVGID_415_);}
	.st457{fill:url(#SVGID_416_);}
	.st458{fill:url(#SVGID_417_);}
	.st459{fill:url(#SVGID_418_);}
	.st460{fill:url(#SVGID_419_);}
	.st461{fill:url(#SVGID_420_);}
</style>
<radialGradient id="SVGID_1_" cx="797.215" cy="-1508.7426" r="19.3175" gradientTransform="matrix(5.1653 0 0 2.9124 -3992.261 4547.4111)" gradientUnits="userSpaceOnUse">
	<stop  offset="0" style="stop-color:#EEF2B5"/>
	<stop  offset="0.2109" style="stop-color:#F0F4BE;stop-opacity:0.7891"/>
	<stop  offset="0.5547" style="stop-color:#F6F8D6;stop-opacity:0.4453"/>
	<stop  offset="0.9866" style="stop-color:#FFFFFE;stop-opacity:1.342875e-02"/>
	<stop  offset="1" style="stop-color:#FFFFFF;stop-opacity:0"/>
</radialGradient>
<ellipse class="st0" cx="125.6" cy="153.3" rx="99.8" ry="56.3"/>
<g>
	<g>
		<linearGradient id="SVGID_2_" gradientUnits="userSpaceOnUse" x1="161.4121" y1="53.5926" x2="193.0489" y2="129.5531">
			<stop  offset="0" style="stop-color:#EEF2B5"/>
			<stop  offset="1" style="stop-color:#3169FF"/>
		</linearGradient>
		<path style="fill:url(#SVGID_2_);" d="M214.4,99.8c0-13.1-5.1-27.8-13.2-40.2c-6.3-9.6-14.4-17.9-23.2-23
			c-9.4-5.5-18.1-6.3-24.6-3.3l-0.1-0.1l-32,17.2l47.8,91.7l34.4-18.7l0,0C210.1,119.6,214.3,111.5,214.4,99.8z"/>
		<linearGradient id="SVGID_3_" gradientUnits="userSpaceOnUse" x1="107.4403" y1="96.5728" x2="181.0883" y2="96.5728">
			<stop  offset="0" style="stop-color:#EEF2B5"/>
			<stop  offset="1" style="stop-color:#3169FF"/>
		</linearGradient>
		<path style="fill:url(#SVGID_3_);" d="M167.8,77.4c-6.3-9.7-14.5-18-23.4-23.1c-20.3-11.7-36.9-2.3-36.9,21
			c0,10.4,3.2,21.7,8.6,32.2c6.7,13.1,16.8,24.9,28.2,31.4c20.3,11.7,36.9,2.3,36.9-21.1C181.1,104.7,175.9,89.9,167.8,77.4z"/>
	</g>
	<g>
		
			<linearGradient id="SVGID_4_" gradientUnits="userSpaceOnUse" x1="7808.3682" y1="55.8617" x2="7805.5889" y2="60.266" gradientTransform="matrix(-1 0 0 1 7926.9731 0)">
			<stop  offset="0" style="stop-color:#DE157D"/>
			<stop  offset="0.1984" style="stop-color:#CD157D"/>
			<stop  offset="0.5911" style="stop-color:#A1157D"/>
			<stop  offset="1" style="stop-color:#6D157D"/>
		</linearGradient>
		<path style="fill:url(#SVGID_4_);" d="M123,59.6c0,0.7-0.3,1.3-0.7,1.5l-2.3,1.4c0.4-0.2,0.7-0.8,0.7-1.5c0-1.5-1-3.3-2.3-4.1
			c-0.7-0.4-1.2-0.4-1.7-0.2l2.3-1.4c0.4-0.3,1-0.2,1.7,0.2C121.9,56.3,123,58.1,123,59.6z"/>
		<linearGradient id="SVGID_5_" gradientUnits="userSpaceOnUse" x1="106.1936" y1="56.2893" x2="136.3336" y2="64.5093">
			<stop  offset="0" style="stop-color:#DE157D"/>
			<stop  offset="0.1984" style="stop-color:#CD157D"/>
			<stop  offset="0.5911" style="stop-color:#A1157D"/>
			<stop  offset="1" style="stop-color:#6D157D"/>
		</linearGradient>
		<path style="fill:url(#SVGID_5_);" d="M115.9,58.2c0,1.5,1,3.3,2.3,4.1c1.3,0.8,2.4,0.1,2.4-1.3c0-1.5-1-3.3-2.3-4.1
			C117,56.1,116,56.7,115.9,58.2z"/>
	</g>
	<g>
		<radialGradient id="SVGID_6_" cx="114.2297" cy="61.7881" r="6.6001" gradientUnits="userSpaceOnUse">
			<stop  offset="0" style="stop-color:#EEF2B5"/>
			<stop  offset="1" style="stop-color:#FFFFFF;stop-opacity:0"/>
		</radialGradient>
		<circle style="fill:url(#SVGID_6_);" cx="114.2" cy="61.8" r="6.6"/>
		<circle class="st38" cx="114.2" cy="61.8" r="2.3"/>
	</g>
	<g>
		
			<linearGradient id="SVGID_7_" gradientUnits="userSpaceOnUse" x1="7764.0801" y1="133.3715" x2="7761.3008" y2="137.7757" gradientTransform="matrix(-1 0 0 1 7926.9731 0)">
			<stop  offset="0" style="stop-color:#DE157D"/>
			<stop  offset="0.1984" style="stop-color:#CD157D"/>
			<stop  offset="0.5911" style="stop-color:#A1157D"/>
			<stop  offset="1" style="stop-color:#6D157D"/>
		</linearGradient>
		<path style="fill:url(#SVGID_7_);" d="M167.3,137.1c0,0.7-0.3,1.3-0.7,1.5l-2.3,1.4c0.4-0.2,0.7-0.8,0.7-1.5c0-1.5-1-3.3-2.3-4.1
			c-0.7-0.4-1.2-0.4-1.7-0.2l2.3-1.4c0.4-0.3,1-0.2,1.7,0.2C166.2,133.8,167.3,135.6,167.3,137.1z"/>
		<linearGradient id="SVGID_8_" gradientUnits="userSpaceOnUse" x1="150.4815" y1="133.7991" x2="180.6216" y2="142.0191">
			<stop  offset="0" style="stop-color:#DE157D"/>
			<stop  offset="0.1984" style="stop-color:#CD157D"/>
			<stop  offset="0.5911" style="stop-color:#A1157D"/>
			<stop  offset="1" style="stop-color:#6D157D"/>
		</linearGradient>
		<path style="fill:url(#SVGID_8_);" d="M160.2,135.7c0,1.5,1,3.3,2.3,4.1c1.3,0.8,2.4,0.1,2.4-1.3c0-1.5-1-3.3-2.3-4.1
			C161.3,133.6,160.2,134.3,160.2,135.7z"/>
	</g>
	<g>
		<radialGradient id="SVGID_9_" cx="158.6573" cy="138.8884" r="6.6001" gradientUnits="userSpaceOnUse">
			<stop  offset="0" style="stop-color:#EEF2B5"/>
			<stop  offset="1" style="stop-color:#FFFFFF;stop-opacity:0"/>
		</radialGradient>
		<circle style="fill:url(#SVGID_9_);" cx="158.7" cy="138.9" r="6.6"/>
		<circle class="st38" cx="158.7" cy="138.9" r="2.3"/>
	</g>
	<g>
		
			<linearGradient id="SVGID_10_" gradientUnits="userSpaceOnUse" x1="7764.0801" y1="80.8818" x2="7761.3008" y2="85.286" gradientTransform="matrix(-1 0 0 1 7926.9731 0)">
			<stop  offset="0" style="stop-color:#DE157D"/>
			<stop  offset="0.1984" style="stop-color:#CD157D"/>
			<stop  offset="0.5911" style="stop-color:#A1157D"/>
			<stop  offset="1" style="stop-color:#6D157D"/>
		</linearGradient>
		<path style="fill:url(#SVGID_10_);" d="M167.3,84.6c0,0.7-0.3,1.3-0.7,1.5l-2.3,1.4c0.4-0.2,0.7-0.8,0.7-1.5c0-1.5-1-3.3-2.3-4.1
			c-0.7-0.4-1.2-0.4-1.7-0.2l2.3-1.4c0.4-0.3,1-0.2,1.7,0.2C166.2,81.3,167.3,83.1,167.3,84.6z"/>
		<linearGradient id="SVGID_11_" gradientUnits="userSpaceOnUse" x1="150.4815" y1="81.3094" x2="180.6216" y2="89.5294">
			<stop  offset="0" style="stop-color:#DE157D"/>
			<stop  offset="0.1984" style="stop-color:#CD157D"/>
			<stop  offset="0.5911" style="stop-color:#A1157D"/>
			<stop  offset="1" style="stop-color:#6D157D"/>
		</linearGradient>
		<path style="fill:url(#SVGID_11_);" d="M160.2,83.3c0,1.5,1,3.3,2.3,4.1c1.3,0.8,2.4,0.1,2.4-1.3c0-1.5-1-3.3-2.3-4.1
			C161.3,81.2,160.2,81.8,160.2,83.3z"/>
	</g>
	<linearGradient id="SVGID_12_" gradientUnits="userSpaceOnUse" x1="161.1651" y1="52.6289" x2="190.8076" y2="107.2594">
		<stop  offset="0" style="stop-color:#DE157D"/>
		<stop  offset="0.1984" style="stop-color:#CD157D"/>
		<stop  offset="0.5911" style="stop-color:#A1157D"/>
		<stop  offset="1" style="stop-color:#6D157D"/>
	</linearGradient>
	<path style="fill:url(#SVGID_12_);" d="M184.9,133.5c8.2-4.1,13.8-14.2,13.8-25.2c0-12.3-4.7-26.5-12.9-39.1
		c-6.4-9.7-14.4-17.7-22.6-22.4c-8.8-5.1-18.6-6.8-26.8-4.8l9.1-4.5c6.5,0.4,13.3,2.4,19.6,6.1c8.7,5,17.2,13.4,23.9,23.6
		c8.6,13.2,13.6,28.2,13.6,41.2c0,7-2,13.6-5.5,19L184.9,133.5z"/>
	<linearGradient id="SVGID_13_" gradientUnits="userSpaceOnUse" x1="84.395" y1="18.5559" x2="109.0455" y2="51.7486">
		<stop  offset="0" style="stop-color:#EEF2B5"/>
		<stop  offset="1" style="stop-color:#3169FF"/>
	</linearGradient>
	<path style="fill:url(#SVGID_13_);" d="M158.5,83.5c-4.3-6.6-9.9-12.3-16-15.9c-13.9-8-25.3-1.6-25.3,14.4c0,7.1,2.2,14.9,5.9,22
		c4.6,9,11.5,17,19.3,21.5c13.9,8,25.3,1.6,25.3-14.4C167.6,102.2,164.1,92.1,158.5,83.5z"/>
	<linearGradient id="SVGID_14_" gradientUnits="userSpaceOnUse" x1="105.28" y1="67.7765" x2="152.6188" y2="139.9393">
		<stop  offset="0" style="stop-color:#EEF2B5"/>
		<stop  offset="1" style="stop-color:#3169FF"/>
	</linearGradient>
	<path style="fill:url(#SVGID_14_);" d="M130.1,143.9c18.3,10.6,33.3,2.1,33.3-19c0.1-21.1-14.8-46.7-33.1-57.3
		c-18.3-10.6-33.3-2.1-33.3,19C96.9,107.6,111.7,133.3,130.1,143.9"/>
	<g>
		<linearGradient id="SVGID_15_" gradientUnits="userSpaceOnUse" x1="84.2387" y1="81.5796" x2="131.5775" y2="153.7423">
			<stop  offset="0" style="stop-color:#EEF2B5"/>
			<stop  offset="1" style="stop-color:#3169FF"/>
		</linearGradient>
		<polygon style="fill:url(#SVGID_15_);" points="42.8,70.9 111.6,63.4 157.3,143.3 119.8,195.7 		"/>
		<radialGradient id="SVGID_16_" cx="136.3496" cy="103.8303" r="129.0363" gradientUnits="userSpaceOnUse">
			<stop  offset="0" style="stop-color:#EEF2B5"/>
			<stop  offset="1" style="stop-color:#3169FF"/>
		</radialGradient>
		<path class="st16" d="M71.5,202c29.8,17.2,54,3.4,54.1-30.9c0.1-34.3-24-76-53.8-93.2c-29.8-17.2-54-3.4-54.1,30.9
			C17.6,143.1,41.7,184.8,71.5,202"/>
		<g>
			<defs>
				<path id="SVGID_405_" d="M71.5,202.1c29.8,17.2,54,3.4,54.1-30.9c0.1-34.3-24-76-53.8-93.2C42,60.9,17.8,74.7,17.7,109
					C17.6,143.2,41.7,184.9,71.5,202.1"/>
			</defs>
			<clipPath id="SVGID_17_">
				<use xlink:href="#SVGID_405_"  style="overflow:visible;"/>
			</clipPath>
			<g style="clip-path:url(#SVGID_17_);">
				<g>
					<g>
						<g>
							<g>
								<g>
									<linearGradient id="SVGID_18_" gradientUnits="userSpaceOnUse" x1="81.894" y1="115.7433" x2="147.7612" y2="115.7433">
										<stop  offset="0" style="stop-color:#EEF2B5"/>
										<stop  offset="1" style="stop-color:#3169FF"/>
									</linearGradient>
									<path class="st18" d="M114.7,153.6c18.2,10.5,33,2.1,33-18.8c0.1-20.9-14.6-46.4-32.8-56.9c-18.2-10.5-33-2.1-33,18.8
										C81.8,117.6,96.5,143.1,114.7,153.6"/>
								</g>
							</g>
						</g>
					</g>
				</g>
				<path class="st38" d="M114.7,153.6c18.2,10.5,33,2.1,33-18.8c0.1-20.9-14.6-46.4-32.8-56.9c-18.2-10.5-33-2.1-33,18.8
					C81.8,117.6,96.5,143.1,114.7,153.6"/>
				<radialGradient id="SVGID_19_" cx="63.8774" cy="58.8821" r="169.4698" gradientUnits="userSpaceOnUse">
					<stop  offset="0" style="stop-color:#EEF2B5"/>
					<stop  offset="1" style="stop-color:#FFFFFF;stop-opacity:0"/>
				</radialGradient>
				<path class="st20" d="M114.7,158.8c21.2,12.3,38.5,2.4,38.6-22c0.1-24.4-17.1-54.1-38.3-66.4c-21.2-12.3-38.5-2.4-38.6,22
					C76.3,116.8,93.5,146.5,114.7,158.8"/>
				<linearGradient id="SVGID_20_" gradientUnits="userSpaceOnUse" x1="83.1573" y1="84.9185" x2="116.1091" y2="142.3328">
					<stop  offset="0" style="stop-color:#EEF2B5"/>
					<stop  offset="1" style="stop-color:#3169FF"/>
				</linearGradient>
				<path class="st21" d="M118,151.5c-18.2-10.5-32.9-36-32.8-56.9c0-9.2,2.9-15.9,7.6-19.8C86.1,78,81.9,85.6,81.9,96.7
					c-0.1,20.9,14.6,46.4,32.8,56.9c10.2,5.9,19.3,5.8,25.4,0.9C134.3,157.2,126.5,156.5,118,151.5z"/>
				<g>
					<g>
						<linearGradient id="SVGID_21_" gradientUnits="userSpaceOnUse" x1="110.9169" y1="100.6245" x2="124.8423" y2="130.9327">
							<stop  offset="0" style="stop-color:#DE157D"/>
							<stop  offset="0.1717" style="stop-color:#CD157D"/>
							<stop  offset="0.5116" style="stop-color:#A1157D"/>
							<stop  offset="0.9835" style="stop-color:#5B157D"/>
							<stop  offset="1" style="stop-color:#58157D"/>
						</linearGradient>
						<path class="st22" d="M117.2,135.9c10.3,6,18.7,1.2,18.7-10.7c0-11.9-8.3-26.3-18.6-32.3c-10.3-6-18.7-1.2-18.7,10.7
							C98.6,115.5,106.9,130,117.2,135.9"/>
					</g>
					<defs>
						<filter id="Adobe_OpacityMaskFilter" filterUnits="userSpaceOnUse" x="98.6" y="90.4" width="37.4" height="48.1">
							
								<feColorMatrix  type="matrix" values="-1 0 0 0 1  0 -1 0 0 1  0 0 -1 0 1  0 0 0 1 0" color-interpolation-filters="sRGB" result="source"/>
						</filter>
					</defs>
					<mask maskUnits="userSpaceOnUse" x="98.6" y="90.4" width="37.4" height="48.1" id="SVGID_22_">
						<g class="st451">
							
								<image style="overflow:visible;" width="42" height="53" xlink:href="B895914DD74BA332.jpg"  transform="matrix(1 0 0 1 96.0901 87.6854)">
							</image>
						</g>
					</mask>
					<g style="opacity:0.75;mask:url(#SVGID_22_);">
						<path class="st38" d="M117.2,135.9c10.3,6,18.7,1.2,18.7-10.7c0-11.9-8.3-26.3-18.6-32.3c-10.3-6-18.7-1.2-18.7,10.7
							C98.6,115.5,106.9,130,117.2,135.9"/>
					</g>
				</g>
				<linearGradient id="SVGID_23_" gradientUnits="userSpaceOnUse" x1="72.7959" y1="69.1756" x2="103.8488" y2="103.5795">
					<stop  offset="0" style="stop-color:#DE157D"/>
					<stop  offset="0.1984" style="stop-color:#CD157D"/>
					<stop  offset="0.5911" style="stop-color:#A1157D"/>
					<stop  offset="1" style="stop-color:#6D157D"/>
				</linearGradient>
				<path class="st24" d="M114.8,137.2c10.3,6,18.7,1.2,18.7-10.7c0-11.9-8.3-26.3-18.6-32.3c-10.3-6-18.7-1.2-18.7,10.7
					C96.1,116.8,104.4,131.3,114.8,137.2"/>
				<linearGradient id="SVGID_24_" gradientUnits="userSpaceOnUse" x1="101.5873" y1="101.6202" x2="128.3956" y2="130.2157">
					<stop  offset="0" style="stop-color:#DE157D"/>
					<stop  offset="0.1984" style="stop-color:#CD157D"/>
					<stop  offset="0.5911" style="stop-color:#A1157D"/>
					<stop  offset="1" style="stop-color:#6D157D"/>
				</linearGradient>
				<path class="st25" d="M114.8,131c7.3,4.2,13.3,0.8,13.3-7.6c0-8.4-5.9-18.6-13.2-22.9c-7.3-4.2-13.3-0.8-13.3,7.6
					C101.6,116.5,107.5,126.7,114.8,131"/>
				<g>
					<g>
						<linearGradient id="SVGID_25_" gradientUnits="userSpaceOnUse" x1="111.3451" y1="113.5003" x2="114.8078" y2="118.7503">
							<stop  offset="0" style="stop-color:#DE157D"/>
							<stop  offset="0.1984" style="stop-color:#CD157D"/>
							<stop  offset="0.5911" style="stop-color:#A1157D"/>
							<stop  offset="1" style="stop-color:#6D157D"/>
						</linearGradient>
						<path class="st26" d="M110.7,114.5c0,2.1,1.4,4.6,3.2,5.6c0.9,0.5,1.7,0.6,2.3,0.2c0.2-0.1,0.5-0.3,0.7-0.4
							c0.6-0.3,0.4-0.7-0.5-1.3c-1.8-1-3.2-3.5-3.2-5.6c0-1-0.8-1-0.8-1l-0.7,0.4C111.1,112.7,110.7,113.4,110.7,114.5z"/>
					</g>
					<path class="st38" d="M116.9,114.1c-0.6-0.9-1.3-1.6-2.1-2c-1.8-1-3.2-0.2-3.2,1.8c0,0.9,0.3,1.9,0.8,2.8
						c0.6,1.2,1.5,2.2,2.5,2.8c1.8,1,3.2,0.2,3.2-1.8C118.1,116.5,117.7,115.2,116.9,114.1z"/>
				</g>
			</g>
			
				<radialGradient id="SVGID_26_" cx="118.8076" cy="110.4714" r="74.6222" gradientTransform="matrix(0.4961 0.8682 -0.5757 0.3289 123.4566 -29.022)" gradientUnits="userSpaceOnUse">
				<stop  offset="2.860673e-04" style="stop-color:#FFFFFF"/>
				<stop  offset="1" style="stop-color:#FFFFFF;stop-opacity:0"/>
			</radialGradient>
			<path style="clip-path:url(#SVGID_17_);fill:url(#SVGID_26_);" d="M114.7,176.8c29.9,17.3,54.2,3.4,54.3-30.9
				c0.1-34.4-24-76.2-53.9-93.4C85.1,35.2,60.8,49,60.7,83.4C60.6,117.7,84.8,159.5,114.7,176.8"/>
		</g>
	</g>
	<g>
		<radialGradient id="SVGID_27_" cx="158.6573" cy="86.238" r="6.6001" gradientUnits="userSpaceOnUse">
			<stop  offset="0" style="stop-color:#EEF2B5"/>
			<stop  offset="1" style="stop-color:#FFFFFF;stop-opacity:0"/>
		</radialGradient>
		<circle class="st28" cx="158.7" cy="86.2" r="6.6"/>
		<circle class="st38" cx="158.7" cy="86.2" r="2.3"/>
	</g>
	<g>
		<g>
			<g>
				<g>
					<g>
						<linearGradient id="SVGID_28_" gradientUnits="userSpaceOnUse" x1="141.1741" y1="49.148" x2="181.8108" y2="46.7684">
							<stop  offset="0" style="stop-color:#ACC2CF"/>
							<stop  offset="1" style="stop-color:#3155FF"/>
						</linearGradient>
						<path class="st29" d="M183,40.2l0,7.9c0,2.2-2,4.4-5.9,6.1c-8,3.4-20.9,3.4-28.9,0c-4-1.7-6-3.9-6-6.1l0-7.9
							c0,2.2,2,4.5,6,6.1c8,3.4,20.9,3.4,28.9,0C181,44.6,183,42.4,183,40.2z"/>
						<g>
							<linearGradient id="SVGID_29_" gradientUnits="userSpaceOnUse" x1="156.4542" y1="26.7532" x2="164.9335" y2="45.3017">
								<stop  offset="0" style="stop-color:#EEF2B5"/>
								<stop  offset="1" style="stop-color:#3169FF"/>
							</linearGradient>
							<path style="fill:url(#SVGID_29_);" d="M177,34.1c8,3.4,8,8.8,0.1,12.2c-8,3.4-20.9,3.4-28.9,0c-8-3.4-8-8.8-0.1-12.2
								S169,30.7,177,34.1z"/>
						</g>
					</g>
				</g>
			</g>
		</g>
	</g>
	<g>
		<g>
			<linearGradient id="SVGID_30_" gradientUnits="userSpaceOnUse" x1="149.0814" y1="40.2671" x2="176.0921" y2="40.2671">
				<stop  offset="0" style="stop-color:#EEF2B5"/>
				<stop  offset="1" style="stop-color:#3169FF"/>
			</linearGradient>
			<path class="st31" d="M172.1,36.2c5.3,2.2,5.3,5.9,0.1,8.1c-5.3,2.2-13.8,2.2-19.1,0c-5.3-2.2-5.3-5.9-0.1-8.1
				C158.3,34,166.8,34,172.1,36.2z"/>
		</g>
	</g>
	<linearGradient id="SVGID_31_" gradientUnits="userSpaceOnUse" x1="17.6877" y1="139.9658" x2="125.6264" y2="139.9658">
		<stop  offset="0" style="stop-color:#EEF2B5"/>
		<stop  offset="1" style="stop-color:#3169FF"/>
	</linearGradient>
	<path class="st32" d="M71.8,77.9c-29.8-17.2-54-3.4-54.1,30.9c-0.1,34.3,24,76,53.8,93.2s54,3.4,54.1-30.9
		C125.7,136.9,101.6,95.2,71.8,77.9z M71.5,196.9c-27.4-15.8-49.5-54.1-49.4-85.6C22.2,79.9,44.4,67.2,71.8,83
		c27.4,15.8,49.5,54.1,49.4,85.6C121.1,200.1,98.9,212.8,71.5,196.9z"/>
</g>
</svg>
