<?xml version="1.0" encoding="utf-8"?>
<!-- Generator: Adobe Illustrator 25.2.1, SVG Export Plug-In . SVG Version: 6.00 Build 0)  -->
<svg version="1.1" id="Layer_2" xmlns="http://www.w3.org/2000/svg" xmlns:xlink="http://www.w3.org/1999/xlink" x="0px" y="0px"
	 viewBox="0 0 232 280.3" style="enable-background:new 0 0 232 280.3;" xml:space="preserve">
<style type="text/css">
	.st0{opacity:0.4;fill:url(#SVGID_1_);}
	.st1{opacity:0.4;fill:url(#SVGID_2_);}
	.st2{opacity:0.4;fill:url(#SVGID_3_);}
	.st3{opacity:0.4;fill:url(#SVGID_4_);}
	.st4{opacity:0.4;fill:url(#SVGID_5_);}
	.st5{opacity:0.4;fill:url(#SVGID_6_);}
	.st6{opacity:0.4;fill:url(#SVGID_7_);}
	.st7{opacity:0.4;fill:url(#SVGID_8_);}
	.st8{opacity:0.4;fill:url(#SVGID_9_);}
	.st9{opacity:0.4;fill:url(#SVGID_10_);}
	.st10{opacity:0.4;fill:url(#SVGID_11_);}
	.st11{opacity:0.4;fill:url(#SVGID_12_);}
	.st12{opacity:0.4;fill:url(#SVGID_13_);}
	.st13{opacity:0.4;fill:url(#SVGID_14_);}
	.st14{opacity:0.4;fill:url(#SVGID_15_);}
	.st15{enable-background:new    ;}
	.st16{fill:url(#SVGID_16_);}
	.st17{fill:url(#SVGID_17_);}
	.st18{fill:url(#SVGID_18_);}
	.st19{fill:#EEF2B5;}
	.st20{fill:url(#SVGID_19_);}
	.st21{fill:url(#SVGID_20_);}
	.st22{fill:url(#SVGID_21_);}
	.st23{opacity:0.23;fill:url(#SVGID_22_);}
	.st24{fill:url(#SVGID_23_);}
	.st25{fill:url(#SVGID_24_);}
	.st26{fill:url(#SVGID_25_);}
	.st27{fill:url(#SVGID_26_);}
	.st28{fill:url(#SVGID_27_);}
	.st29{fill:url(#SVGID_28_);}
	.st30{opacity:0.23;fill:url(#SVGID_29_);}
	.st31{fill:url(#SVGID_30_);}
	.st32{fill:url(#SVGID_31_);}
	.st33{fill:url(#SVGID_32_);}
	.st34{fill:url(#SVGID_33_);}
	.st35{fill:url(#SVGID_34_);}
	.st36{fill:url(#SVGID_35_);}
	.st37{fill:url(#SVGID_36_);}
	.st38{fill:#FFFFFF;}
	.st39{fill:url(#SVGID_37_);}
	.st40{fill:url(#SVGID_38_);}
	.st41{fill:#D8D8D8;}
	.st42{fill:url(#SVGID_39_);}
	.st43{fill:url(#SVGID_40_);}
	.st44{fill:url(#SVGID_41_);}
	.st45{fill:url(#SVGID_42_);}
	.st46{fill:url(#SVGID_43_);}
	.st47{fill:url(#SVGID_44_);}
	.st48{fill:url(#SVGID_45_);}
	.st49{fill:url(#SVGID_46_);}
	.st50{fill:url(#SVGID_47_);}
	.st51{fill:url(#SVGID_48_);}
	.st52{fill:url(#SVGID_49_);}
	.st53{fill:url(#SVGID_50_);}
	.st54{fill:none;}
	.st55{fill:url(#SVGID_51_);}
	.st56{fill:url(#SVGID_52_);}
	.st57{fill:url(#SVGID_53_);}
	.st58{fill:url(#SVGID_54_);}
	.st59{fill:url(#SVGID_55_);}
	.st60{fill:url(#SVGID_56_);}
	.st61{fill:url(#SVGID_57_);}
	.st62{fill:url(#SVGID_58_);}
	.st63{fill:url(#SVGID_59_);}
	.st64{fill:url(#SVGID_60_);}
	.st65{fill:url(#SVGID_61_);}
	.st66{fill:url(#SVGID_62_);}
	.st67{fill:url(#SVGID_63_);}
	.st68{fill:url(#SVGID_64_);}
	.st69{fill:url(#SVGID_65_);}
	.st70{fill:url(#SVGID_66_);}
	.st71{fill:url(#SVGID_67_);}
	.st72{fill:url(#SVGID_68_);}
	.st73{fill:url(#SVGID_69_);}
	.st74{fill:url(#SVGID_70_);}
	.st75{fill:url(#SVGID_71_);}
	.st76{fill:url(#SVGID_72_);}
	.st77{fill:url(#SVGID_73_);}
	.st78{fill:url(#SVGID_74_);}
	.st79{opacity:0.5;}
	.st80{fill:url(#SVGID_75_);}
	.st81{fill:url(#SVGID_76_);}
	.st82{fill:url(#SVGID_77_);}
	.st83{fill:url(#SVGID_78_);}
	.st84{fill:url(#SVGID_79_);}
	.st85{fill:url(#SVGID_80_);}
	.st86{fill:url(#SVGID_81_);}
	.st87{fill:url(#SVGID_82_);}
	.st88{fill:url(#SVGID_83_);}
	.st89{fill:url(#SVGID_84_);}
	.st90{fill:none;stroke:#FFFFFF;stroke-width:2;stroke-miterlimit:10;}
	.st91{fill:url(#SVGID_85_);}
	.st92{fill:url(#SVGID_86_);}
	.st93{fill:#FFDD00;}
	.st94{fill:url(#SVGID_87_);}
	.st95{fill:url(#SVGID_88_);}
	.st96{fill:url(#SVGID_89_);}
	.st97{fill:url(#SVGID_90_);}
	.st98{fill:#F6AF17;}
	.st99{fill:url(#SVGID_91_);}
	.st100{fill:#F1F1F3;}
	.st101{fill:url(#SVGID_92_);}
	.st102{fill:url(#SVGID_93_);}
	.st103{fill:url(#SVGID_94_);}
	.st104{fill:url(#SVGID_95_);}
	.st105{fill:url(#SVGID_96_);}
	.st106{fill:url(#SVGID_97_);}
	.st107{fill:url(#SVGID_98_);}
	.st108{fill:url(#SVGID_99_);}
	.st109{fill:url(#SVGID_100_);}
	.st110{fill:url(#SVGID_101_);}
	.st111{fill:url(#SVGID_102_);}
	.st112{fill:url(#SVGID_103_);}
	.st113{fill:url(#SVGID_104_);}
	.st114{fill:url(#SVGID_105_);}
	.st115{fill:url(#SVGID_106_);}
	.st116{fill:url(#SVGID_107_);}
	.st117{fill:url(#SVGID_108_);}
	.st118{fill:url(#SVGID_109_);}
	.st119{fill:url(#SVGID_110_);}
	.st120{fill:url(#SVGID_111_);}
	.st121{fill:#61A01D;}
	.st122{fill:url(#SVGID_112_);}
	.st123{clip-path:url(#SVGID_114_);enable-background:new    ;}
	.st124{fill:#477513;}
	.st125{fill:#4A7913;}
	.st126{fill:url(#SVGID_115_);}
	.st127{clip-path:url(#SVGID_117_);enable-background:new    ;}
	.st128{fill:#73BD1E;}
	.st129{fill:url(#SVGID_118_);}
	.st130{clip-path:url(#SVGID_120_);enable-background:new    ;}
	.st131{fill:url(#SVGID_121_);}
	.st132{fill:url(#SVGID_122_);}
	.st133{fill:url(#SVGID_123_);}
	.st134{fill:url(#SVGID_124_);}
	.st135{fill:url(#SVGID_125_);}
	.st136{clip-path:url(#SVGID_127_);enable-background:new    ;}
	.st137{fill:#457112;}
	.st138{fill:#436E11;}
	.st139{fill:#3E6510;}
	.st140{fill:url(#SVGID_128_);}
	.st141{fill:url(#SVGID_129_);}
	.st142{clip-path:url(#SVGID_131_);enable-background:new    ;}
	.st143{fill:url(#SVGID_132_);}
	.st144{clip-path:url(#SVGID_134_);enable-background:new    ;}
	.st145{fill:url(#SVGID_135_);}
	.st146{fill:url(#SVGID_136_);}
	.st147{fill:url(#SVGID_137_);}
	.st148{fill:url(#SVGID_138_);}
	.st149{fill:url(#SVGID_139_);}
	.st150{fill:url(#SVGID_140_);}
	.st151{fill:url(#SVGID_141_);}
	.st152{fill:url(#SVGID_142_);}
	.st153{opacity:0.1;fill:#F1F1F3;}
	.st154{fill:url(#SVGID_143_);}
	.st155{fill:url(#SVGID_144_);}
	.st156{fill:url(#SVGID_145_);}
	.st157{fill:url(#SVGID_146_);}
	.st158{fill:url(#SVGID_147_);}
	.st159{fill:url(#SVGID_148_);}
	.st160{fill:url(#SVGID_149_);}
	.st161{fill:url(#SVGID_150_);}
	.st162{fill:url(#SVGID_151_);}
	.st163{fill:url(#SVGID_152_);}
	.st164{fill:url(#SVGID_153_);}
	.st165{fill:url(#SVGID_154_);}
	.st166{fill:url(#SVGID_155_);}
	.st167{fill:url(#SVGID_156_);}
	.st168{fill:url(#SVGID_157_);}
	.st169{fill:url(#SVGID_158_);}
	.st170{fill:url(#SVGID_159_);}
	.st171{fill:url(#SVGID_160_);}
	.st172{fill:url(#SVGID_161_);}
	.st173{fill:url(#SVGID_162_);}
	.st174{fill:url(#SVGID_163_);}
	.st175{fill:url(#SVGID_164_);}
	.st176{opacity:0.5;fill:#00FFFF;}
	.st177{fill:url(#SVGID_165_);}
	.st178{fill:url(#SVGID_166_);}
	.st179{fill:url(#SVGID_167_);}
	.st180{fill:url(#SVGID_168_);}
	.st181{fill:url(#SVGID_169_);}
	.st182{fill:url(#SVGID_170_);}
	.st183{fill:url(#SVGID_171_);}
	.st184{fill:url(#SVGID_172_);}
	.st185{fill:url(#SVGID_173_);}
	.st186{fill:url(#SVGID_174_);}
	.st187{fill:url(#SVGID_175_);}
	.st188{fill:url(#SVGID_176_);}
	.st189{fill:url(#SVGID_177_);}
	.st190{fill:url(#SVGID_178_);}
	.st191{fill:#EB8FF9;}
	.st192{fill:url(#SVGID_179_);}
	.st193{fill:url(#SVGID_180_);}
	.st194{fill:url(#SVGID_181_);}
	.st195{fill:url(#SVGID_182_);}
	.st196{fill:url(#SVGID_183_);}
	.st197{fill:url(#SVGID_184_);}
	.st198{fill:url(#SVGID_185_);}
	.st199{fill:url(#SVGID_186_);}
	.st200{opacity:0.2;fill:#FFFFFF;}
	.st201{fill:url(#SVGID_187_);}
	.st202{fill:url(#SVGID_188_);}
	.st203{fill:url(#SVGID_189_);}
	.st204{fill:url(#SVGID_190_);}
	.st205{fill:url(#SVGID_191_);}
	.st206{fill:url(#SVGID_192_);}
	.st207{fill:url(#SVGID_193_);}
	.st208{fill:url(#SVGID_194_);}
	.st209{opacity:0.4;fill:#FFFFFF;}
	.st210{fill:url(#SVGID_195_);}
	.st211{fill:url(#SVGID_196_);}
	.st212{fill:url(#SVGID_197_);}
	.st213{fill:url(#SVGID_198_);}
	.st214{fill:url(#SVGID_199_);}
	.st215{fill:url(#SVGID_200_);}
	.st216{fill:url(#SVGID_201_);}
	.st217{fill:url(#SVGID_202_);}
	.st218{fill:url(#SVGID_203_);}
	.st219{fill:url(#SVGID_204_);}
	.st220{fill:#00FFFF;}
	.st221{opacity:0.63;}
	.st222{fill:url(#SVGID_205_);}
	.st223{fill:url(#SVGID_206_);}
	.st224{fill:url(#SVGID_207_);}
	.st225{fill:url(#SVGID_208_);}
	.st226{fill:url(#SVGID_209_);}
	.st227{fill:url(#SVGID_210_);}
	.st228{fill:url(#SVGID_211_);}
	.st229{fill:url(#SVGID_212_);}
	.st230{fill:url(#SVGID_213_);}
	.st231{fill:url(#SVGID_214_);}
	.st232{fill:url(#SVGID_215_);}
	.st233{fill:url(#SVGID_216_);}
	.st234{opacity:0.5;fill:#5BBC6F;}
	.st235{opacity:0.5;fill:#EEF2B5;}
	.st236{opacity:0.68;fill:url(#SVGID_217_);}
	.st237{fill:url(#SVGID_218_);}
	.st238{opacity:0.54;fill:url(#SVGID_219_);}
	.st239{fill:url(#SVGID_220_);}
	.st240{fill:url(#SVGID_221_);}
	.st241{fill:url(#SVGID_222_);}
	.st242{fill:url(#SVGID_223_);}
	.st243{fill:url(#SVGID_224_);}
	.st244{fill:url(#SVGID_225_);}
	.st245{fill:url(#SVGID_226_);}
	.st246{fill:url(#SVGID_227_);}
	.st247{fill:url(#SVGID_228_);}
	.st248{fill:url(#SVGID_229_);}
	.st249{fill:url(#SVGID_230_);}
	.st250{fill:url(#SVGID_231_);}
	.st251{fill:url(#SVGID_232_);}
	.st252{fill:url(#SVGID_233_);}
	.st253{fill:url(#SVGID_234_);}
	.st254{fill:url(#SVGID_235_);}
	.st255{fill:url(#SVGID_236_);}
	.st256{fill:url(#SVGID_237_);}
	.st257{fill:url(#SVGID_238_);}
	.st258{fill:url(#SVGID_239_);}
	.st259{fill:url(#SVGID_240_);}
	.st260{fill:url(#SVGID_241_);}
	.st261{fill:url(#SVGID_242_);}
	.st262{fill:url(#SVGID_243_);}
	.st263{fill:url(#SVGID_244_);}
	.st264{fill:url(#SVGID_245_);}
	.st265{fill:url(#SVGID_246_);}
	.st266{fill:url(#SVGID_247_);}
	.st267{fill:url(#SVGID_248_);}
	.st268{fill:url(#SVGID_249_);}
	.st269{fill:url(#SVGID_250_);}
	.st270{fill:url(#SVGID_251_);}
	.st271{fill:url(#SVGID_252_);}
	.st272{fill:url(#SVGID_253_);}
	.st273{fill:url(#SVGID_254_);}
	.st274{fill:url(#SVGID_255_);}
	.st275{fill:url(#SVGID_256_);}
	.st276{fill:url(#SVGID_257_);}
	.st277{fill:url(#SVGID_258_);}
	.st278{fill:url(#SVGID_259_);}
	.st279{fill:url(#SVGID_260_);}
	.st280{fill:url(#SVGID_261_);}
	.st281{fill:url(#SVGID_262_);}
	.st282{fill:url(#SVGID_263_);}
	.st283{fill:url(#SVGID_264_);}
	.st284{fill:#0A8074;}
	.st285{fill:#232323;}
	.st286{fill:url(#SVGID_265_);}
	.st287{fill:url(#SVGID_266_);}
	.st288{fill:url(#SVGID_267_);}
	.st289{fill:url(#SVGID_268_);}
	.st290{fill:url(#SVGID_269_);}
	.st291{fill:url(#SVGID_270_);}
	.st292{fill:url(#SVGID_271_);}
	.st293{fill:url(#SVGID_272_);}
	.st294{fill:url(#SVGID_273_);}
	.st295{fill:url(#SVGID_274_);}
	.st296{fill:url(#SVGID_275_);}
	.st297{fill:url(#SVGID_276_);}
	.st298{fill:url(#SVGID_277_);}
	.st299{fill:#0D0D0D;}
	.st300{fill:url(#SVGID_278_);}
	.st301{fill:url(#SVGID_279_);}
	.st302{fill:url(#SVGID_280_);}
	.st303{fill:url(#SVGID_281_);}
	.st304{fill:url(#SVGID_282_);}
	.st305{fill:url(#SVGID_283_);}
	.st306{fill:url(#SVGID_284_);}
	.st307{fill:url(#SVGID_285_);}
	.st308{fill:url(#SVGID_286_);}
	.st309{fill:url(#SVGID_287_);}
	.st310{fill:url(#SVGID_288_);}
	.st311{fill:url(#SVGID_289_);}
	.st312{fill:url(#SVGID_290_);}
	.st313{fill:url(#SVGID_291_);}
	.st314{fill:url(#SVGID_292_);}
	.st315{fill:url(#SVGID_293_);}
	.st316{fill:url(#SVGID_294_);}
	.st317{fill:url(#SVGID_295_);}
	.st318{opacity:0.68;fill:url(#SVGID_296_);}
	.st319{fill:url(#SVGID_297_);}
	.st320{fill:url(#SVGID_298_);}
	.st321{fill:url(#SVGID_299_);}
	.st322{fill:url(#SVGID_300_);}
	.st323{fill:url(#SVGID_301_);}
	.st324{fill:url(#SVGID_302_);}
	.st325{fill:url(#SVGID_303_);}
	.st326{fill:url(#SVGID_304_);}
	.st327{fill:url(#SVGID_305_);}
	.st328{fill:url(#SVGID_306_);}
	.st329{fill:url(#SVGID_307_);}
	.st330{fill:url(#SVGID_308_);}
	.st331{fill:url(#SVGID_309_);}
	.st332{fill:url(#SVGID_310_);}
	.st333{fill:url(#SVGID_311_);}
	.st334{fill:url(#SVGID_312_);}
	.st335{fill:url(#SVGID_313_);}
	.st336{fill:url(#SVGID_314_);}
	.st337{fill:url(#SVGID_315_);}
	.st338{fill:url(#SVGID_316_);}
	.st339{fill:url(#SVGID_317_);}
	.st340{fill:url(#SVGID_318_);}
	.st341{fill:url(#SVGID_319_);}
	.st342{fill:url(#SVGID_320_);}
	.st343{fill:url(#SVGID_321_);}
	.st344{fill:url(#SVGID_322_);}
	.st345{fill:url(#SVGID_323_);}
	.st346{fill:url(#SVGID_324_);}
	.st347{fill:url(#SVGID_325_);}
	.st348{fill:url(#SVGID_326_);}
	.st349{fill:url(#SVGID_327_);}
	.st350{fill:url(#SVGID_328_);}
	.st351{fill:url(#SVGID_329_);}
	.st352{fill:url(#SVGID_330_);}
	.st353{fill:url(#SVGID_331_);}
	.st354{fill:url(#SVGID_332_);}
	.st355{fill:url(#SVGID_333_);}
	.st356{fill:url(#SVGID_334_);}
	.st357{fill:url(#SVGID_335_);}
	.st358{fill:url(#SVGID_336_);}
	.st359{fill:url(#SVGID_337_);}
	.st360{fill:url(#SVGID_338_);}
	.st361{fill:url(#SVGID_339_);}
	.st362{fill:url(#SVGID_340_);}
	.st363{fill:url(#SVGID_341_);}
	.st364{fill:url(#SVGID_342_);}
	.st365{fill:url(#SVGID_343_);}
	.st366{fill:url(#SVGID_344_);}
	.st367{opacity:0.4;fill:url(#SVGID_345_);}
	.st368{fill:url(#XMLID_6_);}
	.st369{fill:url(#XMLID_21_);}
	.st370{fill:url(#XMLID_22_);}
	.st371{fill:#FFEECC;}
	.st372{fill:url(#XMLID_23_);}
	.st373{fill:url(#XMLID_24_);}
	.st374{fill:url(#SVGID_346_);}
	.st375{fill:url(#XMLID_25_);}
	.st376{fill:url(#XMLID_26_);}
	.st377{fill:url(#XMLID_27_);}
	.st378{fill:url(#XMLID_28_);}
	.st379{fill:url(#XMLID_29_);}
	.st380{fill:url(#SVGID_347_);}
	.st381{opacity:0.4;fill:url(#SVGID_348_);}
	.st382{opacity:0.4;fill:url(#SVGID_349_);}
	.st383{fill:url(#SVGID_350_);}
	.st384{fill:url(#SVGID_351_);}
	.st385{fill:#77D6FC;}
	.st386{fill:url(#SVGID_352_);}
	.st387{opacity:5.000000e-02;fill:#F1F1F3;}
	.st388{fill:url(#SVGID_353_);}
	.st389{fill:url(#SVGID_354_);}
	.st390{fill:url(#SVGID_355_);}
	.st391{fill:url(#SVGID_356_);}
	.st392{opacity:0.5;fill:#5BC8FF;}
	.st393{fill:#9DE5FC;}
	.st394{opacity:0.7;fill:#3DBDFC;}
	.st395{fill:url(#SVGID_357_);}
	.st396{fill:url(#SVGID_358_);}
	.st397{fill:url(#SVGID_359_);}
	.st398{fill:#EAEAEC;}
	.st399{fill:#5A6268;}
	.st400{fill:url(#SVGID_360_);}
	.st401{fill:url(#SVGID_361_);}
	.st402{fill:url(#SVGID_362_);}
	.st403{fill:url(#SVGID_363_);}
	.st404{fill:url(#SVGID_364_);}
	.st405{fill:url(#SVGID_365_);}
	.st406{fill:url(#SVGID_366_);}
	.st407{opacity:0.5;fill:#FFFFFF;}
	.st408{fill:url(#SVGID_367_);}
	.st409{fill:url(#SVGID_368_);}
	.st410{fill:url(#SVGID_369_);}
	.st411{fill:url(#SVGID_370_);}
	.st412{fill:url(#SVGID_371_);}
	.st413{fill:url(#SVGID_372_);}
	.st414{fill:url(#SVGID_373_);}
	.st415{fill:url(#SVGID_374_);}
	.st416{fill:url(#SVGID_375_);}
	.st417{fill:url(#SVGID_376_);}
	.st418{fill:url(#SVGID_377_);}
	.st419{fill:url(#SVGID_378_);}
	.st420{fill:url(#SVGID_379_);}
	.st421{fill:url(#SVGID_380_);}
	.st422{fill:url(#SVGID_381_);}
	.st423{fill:url(#SVGID_382_);}
	.st424{fill:url(#SVGID_383_);}
	.st425{fill:url(#SVGID_384_);}
	.st426{fill:url(#SVGID_385_);}
	.st427{fill:url(#SVGID_386_);}
	.st428{fill:url(#SVGID_387_);}
	.st429{fill:url(#SVGID_388_);}
	.st430{fill:url(#SVGID_389_);}
	.st431{fill:url(#SVGID_390_);}
	.st432{fill:url(#SVGID_391_);}
	.st433{fill:url(#SVGID_392_);}
	.st434{fill:url(#SVGID_393_);}
	.st435{fill:url(#SVGID_394_);}
	.st436{fill:url(#SVGID_395_);}
	.st437{fill:url(#SVGID_396_);}
	.st438{fill:url(#SVGID_397_);}
	.st439{fill:url(#SVGID_398_);}
	.st440{fill:url(#SVGID_399_);}
	.st441{fill:url(#SVGID_400_);}
	.st442{fill:url(#SVGID_401_);}
	.st443{fill:url(#SVGID_402_);}
	.st444{fill:url(#SVGID_403_);}
	.st445{fill:url(#SVGID_404_);}
	.st446{clip-path:url(#SVGID_406_);}
	.st447{fill:url(#SVGID_407_);}
	.st448{fill:url(#SVGID_408_);}
	.st449{fill:url(#SVGID_409_);}
	.st450{fill:url(#SVGID_410_);}
	.st451{filter:url(#Adobe_OpacityMaskFilter);}
	.st452{opacity:0.75;mask:url(#SVGID_411_);}
	.st453{fill:url(#SVGID_412_);}
	.st454{fill:url(#SVGID_413_);}
	.st455{fill:url(#SVGID_414_);}
	.st456{clip-path:url(#SVGID_406_);fill:url(#SVGID_415_);}
	.st457{fill:url(#SVGID_416_);}
	.st458{fill:url(#SVGID_417_);}
	.st459{fill:url(#SVGID_418_);}
	.st460{fill:url(#SVGID_419_);}
	.st461{fill:url(#SVGID_420_);}
</style>
<radialGradient id="SVGID_1_" cx="486.3232" cy="-1504.6083" r="19.3175" gradientTransform="matrix(5.1653 0 0 4.0697 -2398.3574 6293.4751)" gradientUnits="userSpaceOnUse">
	<stop  offset="0" style="stop-color:#EEF2B5"/>
	<stop  offset="0.2109" style="stop-color:#F0F4BE;stop-opacity:0.7891"/>
	<stop  offset="0.5547" style="stop-color:#F6F8D6;stop-opacity:0.4453"/>
	<stop  offset="0.9866" style="stop-color:#FFFFFE;stop-opacity:1.342875e-02"/>
	<stop  offset="1" style="stop-color:#FFFFFF;stop-opacity:0"/>
</radialGradient>
<ellipse class="st0" cx="113.7" cy="170.1" rx="99.8" ry="78.6"/>
<g>
	<g>
		<g>
			<g>
				<g class="st15">
					<linearGradient id="SVGID_2_" gradientUnits="userSpaceOnUse" x1="93.5245" y1="185.3892" x2="131.3079" y2="185.3892">
						<stop  offset="0" style="stop-color:#EEF2B5"/>
						<stop  offset="0.2044" style="stop-color:#EAF0B4"/>
						<stop  offset="0.3889" style="stop-color:#DFE9B1"/>
						<stop  offset="0.566" style="stop-color:#CDDDAD"/>
						<stop  offset="0.7383" style="stop-color:#B3CDA7"/>
						<stop  offset="0.9056" style="stop-color:#92B89E"/>
						<stop  offset="1" style="stop-color:#7CAA99"/>
					</linearGradient>
					<path style="fill:url(#SVGID_2_);" d="M197.5,158.3l-77,44.7c-3.7,2.1-9.6,2.1-13.3,0l-77.5-44.7c-1.9-1.1-2.8-2.5-2.8-3.9
						l0,11.6c0,1.4,0.9,2.8,2.8,3.9l77.5,44.7c3.7,2.1,9.6,2.1,13.3,0l77-44.7c1.8-1.1,2.7-2.4,2.7-3.8l0-11.6
						C200.3,155.9,199.4,157.3,197.5,158.3z"/>
					<g>
						<linearGradient id="SVGID_3_" gradientUnits="userSpaceOnUse" x1="-41.6563" y1="50.0017" x2="175.365" y2="196.0623">
							<stop  offset="0" style="stop-color:#EEF2B5"/>
							<stop  offset="0.2044" style="stop-color:#EAF0B4"/>
							<stop  offset="0.3889" style="stop-color:#DFE9B1"/>
							<stop  offset="0.566" style="stop-color:#CDDDAD"/>
							<stop  offset="0.7383" style="stop-color:#B3CDA7"/>
							<stop  offset="0.9056" style="stop-color:#92B89E"/>
							<stop  offset="1" style="stop-color:#7CAA99"/>
						</linearGradient>
						<path style="fill:url(#SVGID_3_);" d="M197.5,150.6c3.7,2.1,3.7,5.6,0,7.7l-77,44.7c-3.7,2.1-9.6,2.1-13.3,0l-77.5-44.7
							c-3.7-2.1-3.7-5.6,0-7.7l77-44.7c3.7-2.1,9.6-2.1,13.3,0L197.5,150.6z"/>
					</g>
					<linearGradient id="SVGID_4_" gradientUnits="userSpaceOnUse" x1="-20.95" y1="204.1175" x2="79.6385" y2="164.7965">
						<stop  offset="0" style="stop-color:#EEF2B5"/>
						<stop  offset="0.2044" style="stop-color:#EAF0B4"/>
						<stop  offset="0.3889" style="stop-color:#DFE9B1"/>
						<stop  offset="0.566" style="stop-color:#CDDDAD"/>
						<stop  offset="0.7383" style="stop-color:#B3CDA7"/>
						<stop  offset="0.9056" style="stop-color:#92B89E"/>
						<stop  offset="1" style="stop-color:#7CAA99"/>
					</linearGradient>
					<path style="fill:url(#SVGID_4_);" d="M107.2,159.5l-46.6-26.9l-24.9,14.4l71.4,41.2c3.7,2.1,9.6,2.1,13.3,0l70.9-41.2
						l-24.8-14.3l-46,26.7C116.9,161.6,110.9,161.6,107.2,159.5z"/>
				</g>
			</g>
			<g>
				<g class="st15">
					<linearGradient id="SVGID_5_" gradientUnits="userSpaceOnUse" x1="86.6545" y1="142.762" x2="135.5321" y2="142.762">
						<stop  offset="0" style="stop-color:#DE157D"/>
						<stop  offset="0.1984" style="stop-color:#CD157D"/>
						<stop  offset="0.5911" style="stop-color:#A1157D"/>
						<stop  offset="1" style="stop-color:#6D157D"/>
					</linearGradient>
					<path style="fill:url(#SVGID_5_);" d="M197.5,107.1l-77,44.7c-3.7,2.1-9.6,2.1-13.3,0l-77.5-44.7c-1.9-1.1-2.8-2.5-2.8-3.9
						l0,28.8c0,1.4,0.9,2.8,2.8,3.9l77.5,44.7c3.7,2.1,9.6,2.1,13.3,0l77-44.7c1.8-1.1,2.7-2.4,2.7-3.8l0-28.8
						C200.3,104.7,199.4,106.1,197.5,107.1z"/>
					<g>
						<linearGradient id="SVGID_6_" gradientUnits="userSpaceOnUse" x1="26.9519" y1="103.2898" x2="200.2638" y2="103.2898">
							<stop  offset="0" style="stop-color:#DE157D"/>
							<stop  offset="0.1984" style="stop-color:#CD157D"/>
							<stop  offset="0.5911" style="stop-color:#A1157D"/>
							<stop  offset="1" style="stop-color:#6D157D"/>
						</linearGradient>
						<path style="fill:url(#SVGID_6_);" d="M197.5,99.4c3.7,2.1,3.7,5.6,0,7.7l-77,44.7c-3.7,2.1-9.6,2.1-13.3,0l-77.5-44.7
							c-3.7-2.1-3.7-5.6,0-7.7l77-44.7c3.7-2.1,9.6-2.1,13.3,0L197.5,99.4z"/>
					</g>
					<linearGradient id="SVGID_7_" gradientUnits="userSpaceOnUse" x1="-4.6031" y1="92.6709" x2="126.6741" y2="110.7067">
						<stop  offset="0" style="stop-color:#DE157D"/>
						<stop  offset="0.1984" style="stop-color:#CD157D"/>
						<stop  offset="0.5911" style="stop-color:#A1157D"/>
						<stop  offset="1" style="stop-color:#6D157D"/>
					</linearGradient>
					<path style="fill:url(#SVGID_7_);" d="M107.2,124.2L47,89.4l-10.1,5.8l70.3,40.6c3.7,2.1,9.6,2.1,13.3,0l69.7-40.5l-10-5.8
						l-59.7,34.7C116.9,126.3,110.9,126.3,107.2,124.2z"/>
				</g>
			</g>
			<g>
				<g class="st15">
					<linearGradient id="SVGID_8_" gradientUnits="userSpaceOnUse" x1="101.9213" y1="101.2586" x2="127.1115" y2="101.2586">
						<stop  offset="0" style="stop-color:#EEF2B5"/>
						<stop  offset="0.2044" style="stop-color:#EAF0B4"/>
						<stop  offset="0.3889" style="stop-color:#DFE9B1"/>
						<stop  offset="0.566" style="stop-color:#CDDDAD"/>
						<stop  offset="0.7383" style="stop-color:#B3CDA7"/>
						<stop  offset="0.9056" style="stop-color:#92B89E"/>
						<stop  offset="1" style="stop-color:#7CAA99"/>
					</linearGradient>
					<path style="fill:url(#SVGID_8_);" d="M197.5,74.2l-77,44.7c-3.7,2.1-9.6,2.1-13.3,0L29.7,74.2c-1.9-1.1-2.8-2.5-2.8-3.9
						l0,11.6c0,1.4,0.9,2.8,2.8,3.9l77.5,44.7c3.7,2.1,9.6,2.1,13.3,0l77-44.7c1.8-1.1,2.7-2.4,2.7-3.8l0-11.6
						C200.3,71.8,199.4,73.2,197.5,74.2z"/>
					<g>
						<linearGradient id="SVGID_9_" gradientUnits="userSpaceOnUse" x1="65.1601" y1="38.6903" x2="203.5334" y2="129.1651">
							<stop  offset="0" style="stop-color:#EEF2B5"/>
							<stop  offset="0.2044" style="stop-color:#EAF0B4"/>
							<stop  offset="0.3889" style="stop-color:#DFE9B1"/>
							<stop  offset="0.566" style="stop-color:#CDDDAD"/>
							<stop  offset="0.7383" style="stop-color:#B3CDA7"/>
							<stop  offset="0.9056" style="stop-color:#92B89E"/>
							<stop  offset="1" style="stop-color:#7CAA99"/>
						</linearGradient>
						<path style="fill:url(#SVGID_9_);" d="M197.5,66.5c3.7,2.1,3.7,5.6,0,7.7l-77,44.7c-3.7,2.1-9.6,2.1-13.3,0L29.7,74.2
							c-3.7-2.1-3.7-5.6,0-7.7l77-44.7c3.7-2.1,9.6-2.1,13.3,0L197.5,66.5z"/>
					</g>
					<g>
						<path class="st90" d="M185.8,67.1c3.2,1.8,3.2,4.8,0,6.6l-66.3,38.5c-3.2,1.8-8.3,1.8-11.4,0L41.4,73.7
							c-3.2-1.8-3.2-4.8,0-6.6l66.3-38.5c3.2-1.8,8.3-1.8,11.4,0L185.8,67.1z"/>
					</g>
				</g>
			</g>
		</g>
	</g>
</g>
<g>
	<linearGradient id="SVGID_10_" gradientUnits="userSpaceOnUse" x1="187.4205" y1="127.1397" x2="180.5208" y2="138.0731">
		<stop  offset="0" style="stop-color:#EEF2B5"/>
		<stop  offset="1" style="stop-color:#3169FF"/>
	</linearGradient>
	<path style="fill:url(#SVGID_10_);" d="M174.5,135.1c0,1.8,0.7,3.1,1.7,3.7l10,5.8c-1-0.6-1.7-1.9-1.7-3.7c0-3.6,2.6-8.1,5.7-9.9
		c1.6-0.9,3-1,4.1-0.4l-10-5.8c-1-0.6-2.5-0.5-4.1,0.4C177.1,127,174.5,131.4,174.5,135.1z"/>
	<linearGradient id="SVGID_11_" gradientUnits="userSpaceOnUse" x1="157.3944" y1="130.0661" x2="210.0235" y2="142.09">
		<stop  offset="0" style="stop-color:#EEF2B5"/>
		<stop  offset="0.1482" style="stop-color:#EAF1B7"/>
		<stop  offset="0.282" style="stop-color:#DFECBD"/>
		<stop  offset="0.4104" style="stop-color:#CDE5C8"/>
		<stop  offset="0.5354" style="stop-color:#B3DAD7"/>
		<stop  offset="0.6567" style="stop-color:#92CDEA"/>
		<stop  offset="0.7647" style="stop-color:#6EBEFF"/>
	</linearGradient>
	<path style="fill:url(#SVGID_11_);" d="M196,134.3c0,3.6-2.6,8.1-5.7,9.9c-3.2,1.8-5.8,0.4-5.8-3.3c0-3.6,2.6-8.1,5.7-9.9
		C193.4,129.1,196,130.6,196,134.3z"/>
</g>
<g>
	<linearGradient id="SVGID_12_" gradientUnits="userSpaceOnUse" x1="148.4322" y1="150.4491" x2="141.5325" y2="161.3825">
		<stop  offset="0" style="stop-color:#EEF2B5"/>
		<stop  offset="1" style="stop-color:#3169FF"/>
	</linearGradient>
	<path style="fill:url(#SVGID_12_);" d="M135.5,158.4c0,1.8,0.7,3.1,1.7,3.7l10,5.8c-1-0.6-1.7-1.9-1.7-3.7c0-3.6,2.6-8.1,5.7-9.9
		c1.6-0.9,3-1,4.1-0.4l-10-5.8c-1-0.6-2.5-0.5-4.1,0.4C138.1,150.3,135.5,154.7,135.5,158.4z"/>
	<linearGradient id="SVGID_13_" gradientUnits="userSpaceOnUse" x1="120.0704" y1="157.7508" x2="163.2381" y2="162.0872">
		<stop  offset="0" style="stop-color:#EEF2B5"/>
		<stop  offset="0.1482" style="stop-color:#EAF1B7"/>
		<stop  offset="0.282" style="stop-color:#DFECBD"/>
		<stop  offset="0.4104" style="stop-color:#CDE5C8"/>
		<stop  offset="0.5354" style="stop-color:#B3DAD7"/>
		<stop  offset="0.6567" style="stop-color:#92CDEA"/>
		<stop  offset="0.7647" style="stop-color:#6EBEFF"/>
	</linearGradient>
	<path style="fill:url(#SVGID_13_);" d="M157,157.6c0,3.6-2.6,8.1-5.7,9.9c-3.2,1.8-5.8,0.4-5.8-3.3c0-3.6,2.6-8.1,5.7-9.9
		C154.4,152.4,157,153.9,157,157.6z"/>
</g>
<g>
	
		<linearGradient id="SVGID_14_" gradientUnits="userSpaceOnUse" x1="7121.2271" y1="126.9432" x2="7114.3271" y2="137.8766" gradientTransform="matrix(-1 0 0 1 7161.6558 0)">
		<stop  offset="0" style="stop-color:#EEF2B5"/>
		<stop  offset="1" style="stop-color:#3169FF"/>
	</linearGradient>
	<path style="fill:url(#SVGID_14_);" d="M53.3,134.9c0,1.8-0.7,3.1-1.7,3.7l-10,5.8c1-0.6,1.7-1.9,1.7-3.7c0-3.6-2.6-8.1-5.7-9.9
		c-1.6-0.9-3-1-4.1-0.4l10-5.8c1-0.6,2.5-0.5,4.1,0.4C50.8,126.8,53.3,131.2,53.3,134.9z"/>
	<linearGradient id="SVGID_15_" gradientUnits="userSpaceOnUse" x1="7.9661" y1="129.3038" x2="81.6863" y2="149.4094">
		<stop  offset="0" style="stop-color:#EEF2B5"/>
		<stop  offset="0.1482" style="stop-color:#EAF1B7"/>
		<stop  offset="0.282" style="stop-color:#DFECBD"/>
		<stop  offset="0.4104" style="stop-color:#CDE5C8"/>
		<stop  offset="0.5354" style="stop-color:#B3DAD7"/>
		<stop  offset="0.6567" style="stop-color:#92CDEA"/>
		<stop  offset="0.7647" style="stop-color:#6EBEFF"/>
	</linearGradient>
	<path style="fill:url(#SVGID_15_);" d="M31.8,134.1c0,3.6,2.6,8.1,5.7,9.9c3.2,1.8,5.8,0.4,5.8-3.3c0-3.6-2.6-8.1-5.7-9.9
		C34.4,128.9,31.8,130.4,31.8,134.1z"/>
</g>
<g>
	
		<linearGradient id="SVGID_16_" gradientUnits="userSpaceOnUse" x1="7082.2388" y1="150.2525" x2="7075.3389" y2="161.1859" gradientTransform="matrix(-1 0 0 1 7161.6558 0)">
		<stop  offset="0" style="stop-color:#EEF2B5"/>
		<stop  offset="1" style="stop-color:#3169FF"/>
	</linearGradient>
	<path class="st16" d="M92.3,158.2c0,1.8-0.7,3.1-1.7,3.7l-10,5.8c1-0.6,1.7-1.9,1.7-3.7c0-3.6-2.6-8.1-5.7-9.9
		c-1.6-0.9-3-1-4.1-0.4l10-5.8c1-0.6,2.5-0.5,4.1,0.4C89.8,150.1,92.3,154.6,92.3,158.2z"/>
	<linearGradient id="SVGID_17_" gradientUnits="userSpaceOnUse" x1="70.9853" y1="159.0463" x2="116.5184" y2="172.45">
		<stop  offset="0" style="stop-color:#EEF2B5"/>
		<stop  offset="0.1482" style="stop-color:#EAF1B7"/>
		<stop  offset="0.282" style="stop-color:#DFECBD"/>
		<stop  offset="0.4104" style="stop-color:#CDE5C8"/>
		<stop  offset="0.5354" style="stop-color:#B3DAD7"/>
		<stop  offset="0.6567" style="stop-color:#92CDEA"/>
		<stop  offset="0.7647" style="stop-color:#6EBEFF"/>
	</linearGradient>
	<path class="st17" d="M70.8,157.4c0,3.6,2.6,8.1,5.7,9.9c3.2,1.8,5.8,0.4,5.8-3.3c0-3.6-2.6-8.1-5.7-9.9
		C73.4,152.2,70.8,153.7,70.8,157.4z"/>
</g>
</svg>
