<?xml version="1.0" encoding="utf-8"?>
<!-- Generator: Adobe Illustrator 25.2.1, SVG Export Plug-In . SVG Version: 6.00 Build 0)  -->
<svg version="1.1" id="Layer_2" xmlns="http://www.w3.org/2000/svg" xmlns:xlink="http://www.w3.org/1999/xlink" x="0px" y="0px"
	 viewBox="0 0 232 282.5" style="enable-background:new 0 0 232 282.5;" xml:space="preserve">
<style type="text/css">
	.st0{opacity:0.4;fill:url(#SVGID_1_);}
	.st1{opacity:0.4;fill:url(#SVGID_2_);}
	.st2{opacity:0.4;fill:url(#SVGID_3_);}
	.st3{opacity:0.4;fill:url(#SVGID_4_);}
	.st4{opacity:0.4;fill:url(#SVGID_5_);}
	.st5{opacity:0.4;fill:url(#SVGID_6_);}
	.st6{opacity:0.4;fill:url(#SVGID_7_);}
	.st7{opacity:0.4;fill:url(#SVGID_8_);}
	.st8{opacity:0.4;fill:url(#SVGID_9_);}
	.st9{opacity:0.4;fill:url(#SVGID_10_);}
	.st10{opacity:0.4;fill:url(#SVGID_11_);}
	.st11{opacity:0.4;fill:url(#SVGID_12_);}
	.st12{opacity:0.4;fill:url(#SVGID_13_);}
	.st13{opacity:0.4;fill:url(#SVGID_14_);}
	.st14{opacity:0.4;fill:url(#SVGID_15_);}
	.st15{enable-background:new    ;}
	.st16{fill:url(#SVGID_16_);}
	.st17{fill:url(#SVGID_17_);}
	.st18{fill:url(#SVGID_18_);}
	.st19{fill:#EEF2B5;}
	.st20{fill:url(#SVGID_19_);}
	.st21{fill:url(#SVGID_20_);}
	.st22{fill:url(#SVGID_21_);}
	.st23{opacity:0.23;fill:url(#SVGID_22_);}
	.st24{fill:url(#SVGID_23_);}
	.st25{fill:url(#SVGID_24_);}
	.st26{fill:url(#SVGID_25_);}
	.st27{fill:url(#SVGID_26_);}
	.st28{fill:url(#SVGID_27_);}
	.st29{fill:url(#SVGID_28_);}
	.st30{opacity:0.23;fill:url(#SVGID_29_);}
	.st31{fill:url(#SVGID_30_);}
	.st32{fill:url(#SVGID_31_);}
	.st33{fill:url(#SVGID_32_);}
	.st34{fill:url(#SVGID_33_);}
	.st35{fill:url(#SVGID_34_);}
	.st36{fill:url(#SVGID_35_);}
	.st37{fill:url(#SVGID_36_);}
	.st38{fill:#FFFFFF;}
	.st39{fill:url(#SVGID_37_);}
	.st40{fill:url(#SVGID_38_);}
	.st41{fill:#D8D8D8;}
	.st42{fill:url(#SVGID_39_);}
	.st43{fill:url(#SVGID_40_);}
	.st44{fill:url(#SVGID_41_);}
	.st45{fill:url(#SVGID_42_);}
	.st46{fill:url(#SVGID_43_);}
	.st47{fill:url(#SVGID_44_);}
	.st48{fill:url(#SVGID_45_);}
	.st49{fill:url(#SVGID_46_);}
	.st50{fill:url(#SVGID_47_);}
	.st51{fill:url(#SVGID_48_);}
	.st52{fill:url(#SVGID_49_);}
	.st53{fill:url(#SVGID_50_);}
	.st54{fill:none;}
	.st55{fill:url(#SVGID_51_);}
	.st56{fill:url(#SVGID_52_);}
	.st57{fill:url(#SVGID_53_);}
	.st58{fill:url(#SVGID_54_);}
	.st59{fill:url(#SVGID_55_);}
	.st60{fill:url(#SVGID_56_);}
	.st61{fill:url(#SVGID_57_);}
	.st62{fill:url(#SVGID_58_);}
	.st63{fill:url(#SVGID_59_);}
	.st64{fill:url(#SVGID_60_);}
	.st65{fill:url(#SVGID_61_);}
	.st66{fill:url(#SVGID_62_);}
	.st67{fill:url(#SVGID_63_);}
	.st68{fill:url(#SVGID_64_);}
	.st69{fill:url(#SVGID_65_);}
	.st70{fill:url(#SVGID_66_);}
	.st71{fill:url(#SVGID_67_);}
	.st72{fill:url(#SVGID_68_);}
	.st73{fill:url(#SVGID_69_);}
	.st74{fill:url(#SVGID_70_);}
	.st75{fill:url(#SVGID_71_);}
	.st76{fill:url(#SVGID_72_);}
	.st77{fill:url(#SVGID_73_);}
	.st78{fill:url(#SVGID_74_);}
	.st79{opacity:0.5;}
	.st80{fill:url(#SVGID_75_);}
	.st81{fill:url(#SVGID_76_);}
	.st82{fill:url(#SVGID_77_);}
	.st83{fill:url(#SVGID_78_);}
	.st84{fill:url(#SVGID_79_);}
	.st85{fill:url(#SVGID_80_);}
	.st86{fill:url(#SVGID_81_);}
	.st87{fill:url(#SVGID_82_);}
	.st88{fill:url(#SVGID_83_);}
	.st89{fill:url(#SVGID_84_);}
	.st90{fill:none;stroke:#FFFFFF;stroke-width:2;stroke-miterlimit:10;}
	.st91{fill:url(#SVGID_85_);}
	.st92{fill:url(#SVGID_86_);}
	.st93{fill:#FFDD00;}
	.st94{fill:url(#SVGID_87_);}
	.st95{fill:url(#SVGID_88_);}
	.st96{fill:url(#SVGID_89_);}
	.st97{fill:url(#SVGID_90_);}
	.st98{fill:#F6AF17;}
	.st99{fill:url(#SVGID_91_);}
	.st100{fill:#F1F1F3;}
	.st101{fill:url(#SVGID_92_);}
	.st102{fill:url(#SVGID_93_);}
	.st103{fill:url(#SVGID_94_);}
	.st104{fill:url(#SVGID_95_);}
	.st105{fill:url(#SVGID_96_);}
	.st106{fill:url(#SVGID_97_);}
	.st107{fill:url(#SVGID_98_);}
	.st108{fill:url(#SVGID_99_);}
	.st109{fill:url(#SVGID_100_);}
	.st110{fill:url(#SVGID_101_);}
	.st111{fill:url(#SVGID_102_);}
	.st112{fill:url(#SVGID_103_);}
	.st113{fill:url(#SVGID_104_);}
	.st114{fill:url(#SVGID_105_);}
	.st115{fill:url(#SVGID_106_);}
	.st116{fill:url(#SVGID_107_);}
	.st117{fill:url(#SVGID_108_);}
	.st118{fill:url(#SVGID_109_);}
	.st119{fill:url(#SVGID_110_);}
	.st120{fill:url(#SVGID_111_);}
	.st121{fill:#61A01D;}
	.st122{fill:url(#SVGID_112_);}
	.st123{clip-path:url(#SVGID_114_);enable-background:new    ;}
	.st124{fill:#477513;}
	.st125{fill:#4A7913;}
	.st126{fill:url(#SVGID_115_);}
	.st127{clip-path:url(#SVGID_117_);enable-background:new    ;}
	.st128{fill:#73BD1E;}
	.st129{fill:url(#SVGID_118_);}
	.st130{clip-path:url(#SVGID_120_);enable-background:new    ;}
	.st131{fill:url(#SVGID_121_);}
	.st132{fill:url(#SVGID_122_);}
	.st133{fill:url(#SVGID_123_);}
	.st134{fill:url(#SVGID_124_);}
	.st135{fill:url(#SVGID_125_);}
	.st136{clip-path:url(#SVGID_127_);enable-background:new    ;}
	.st137{fill:#457112;}
	.st138{fill:#436E11;}
	.st139{fill:#3E6510;}
	.st140{fill:url(#SVGID_128_);}
	.st141{fill:url(#SVGID_129_);}
	.st142{clip-path:url(#SVGID_131_);enable-background:new    ;}
	.st143{fill:url(#SVGID_132_);}
	.st144{clip-path:url(#SVGID_134_);enable-background:new    ;}
	.st145{fill:url(#SVGID_135_);}
	.st146{fill:url(#SVGID_136_);}
	.st147{fill:url(#SVGID_137_);}
	.st148{fill:url(#SVGID_138_);}
	.st149{fill:url(#SVGID_139_);}
	.st150{fill:url(#SVGID_140_);}
	.st151{fill:url(#SVGID_141_);}
	.st152{fill:url(#SVGID_142_);}
	.st153{opacity:0.1;fill:#F1F1F3;}
	.st154{fill:url(#SVGID_143_);}
	.st155{fill:url(#SVGID_144_);}
	.st156{fill:url(#SVGID_145_);}
	.st157{fill:url(#SVGID_146_);}
	.st158{fill:url(#SVGID_147_);}
	.st159{fill:url(#SVGID_148_);}
	.st160{fill:url(#SVGID_149_);}
	.st161{fill:url(#SVGID_150_);}
	.st162{fill:url(#SVGID_151_);}
	.st163{fill:url(#SVGID_152_);}
	.st164{fill:url(#SVGID_153_);}
	.st165{fill:url(#SVGID_154_);}
	.st166{fill:url(#SVGID_155_);}
	.st167{fill:url(#SVGID_156_);}
	.st168{fill:url(#SVGID_157_);}
	.st169{fill:url(#SVGID_158_);}
	.st170{fill:url(#SVGID_159_);}
	.st171{fill:url(#SVGID_160_);}
	.st172{fill:url(#SVGID_161_);}
	.st173{fill:url(#SVGID_162_);}
	.st174{fill:url(#SVGID_163_);}
	.st175{fill:url(#SVGID_164_);}
	.st176{opacity:0.5;fill:#00FFFF;}
	.st177{fill:url(#SVGID_165_);}
	.st178{fill:url(#SVGID_166_);}
	.st179{fill:url(#SVGID_167_);}
	.st180{fill:url(#SVGID_168_);}
	.st181{fill:url(#SVGID_169_);}
	.st182{fill:url(#SVGID_170_);}
	.st183{fill:url(#SVGID_171_);}
	.st184{fill:url(#SVGID_172_);}
	.st185{fill:url(#SVGID_173_);}
	.st186{fill:url(#SVGID_174_);}
	.st187{fill:url(#SVGID_175_);}
	.st188{fill:url(#SVGID_176_);}
	.st189{fill:url(#SVGID_177_);}
	.st190{fill:url(#SVGID_178_);}
	.st191{fill:#EB8FF9;}
	.st192{fill:url(#SVGID_179_);}
	.st193{fill:url(#SVGID_180_);}
	.st194{fill:url(#SVGID_181_);}
	.st195{fill:url(#SVGID_182_);}
	.st196{fill:url(#SVGID_183_);}
	.st197{fill:url(#SVGID_184_);}
	.st198{fill:url(#SVGID_185_);}
	.st199{fill:url(#SVGID_186_);}
	.st200{opacity:0.2;fill:#FFFFFF;}
	.st201{fill:url(#SVGID_187_);}
	.st202{fill:url(#SVGID_188_);}
	.st203{fill:url(#SVGID_189_);}
	.st204{fill:url(#SVGID_190_);}
	.st205{fill:url(#SVGID_191_);}
	.st206{fill:url(#SVGID_192_);}
	.st207{fill:url(#SVGID_193_);}
	.st208{fill:url(#SVGID_194_);}
	.st209{opacity:0.4;fill:#FFFFFF;}
	.st210{fill:url(#SVGID_195_);}
	.st211{fill:url(#SVGID_196_);}
	.st212{fill:url(#SVGID_197_);}
	.st213{fill:url(#SVGID_198_);}
	.st214{fill:url(#SVGID_199_);}
	.st215{fill:url(#SVGID_200_);}
	.st216{fill:url(#SVGID_201_);}
	.st217{fill:url(#SVGID_202_);}
	.st218{fill:url(#SVGID_203_);}
	.st219{fill:url(#SVGID_204_);}
	.st220{fill:#00FFFF;}
	.st221{opacity:0.63;}
	.st222{fill:url(#SVGID_205_);}
	.st223{fill:url(#SVGID_206_);}
	.st224{fill:url(#SVGID_207_);}
	.st225{fill:url(#SVGID_208_);}
	.st226{fill:url(#SVGID_209_);}
	.st227{fill:url(#SVGID_210_);}
	.st228{fill:url(#SVGID_211_);}
	.st229{fill:url(#SVGID_212_);}
	.st230{fill:url(#SVGID_213_);}
	.st231{fill:url(#SVGID_214_);}
	.st232{fill:url(#SVGID_215_);}
	.st233{fill:url(#SVGID_216_);}
	.st234{opacity:0.5;fill:#5BBC6F;}
	.st235{opacity:0.5;fill:#EEF2B5;}
	.st236{opacity:0.68;fill:url(#SVGID_217_);}
	.st237{fill:url(#SVGID_218_);}
	.st238{opacity:0.54;fill:url(#SVGID_219_);}
	.st239{fill:url(#SVGID_220_);}
	.st240{fill:url(#SVGID_221_);}
	.st241{fill:url(#SVGID_222_);}
	.st242{fill:url(#SVGID_223_);}
	.st243{fill:url(#SVGID_224_);}
	.st244{fill:url(#SVGID_225_);}
	.st245{fill:url(#SVGID_226_);}
	.st246{fill:url(#SVGID_227_);}
	.st247{fill:url(#SVGID_228_);}
	.st248{fill:url(#SVGID_229_);}
	.st249{fill:url(#SVGID_230_);}
	.st250{fill:url(#SVGID_231_);}
	.st251{fill:url(#SVGID_232_);}
	.st252{fill:url(#SVGID_233_);}
	.st253{fill:url(#SVGID_234_);}
	.st254{fill:url(#SVGID_235_);}
	.st255{fill:url(#SVGID_236_);}
	.st256{fill:url(#SVGID_237_);}
	.st257{fill:url(#SVGID_238_);}
	.st258{fill:url(#SVGID_239_);}
	.st259{fill:url(#SVGID_240_);}
	.st260{fill:url(#SVGID_241_);}
	.st261{fill:url(#SVGID_242_);}
	.st262{fill:url(#SVGID_243_);}
	.st263{fill:url(#SVGID_244_);}
	.st264{fill:url(#SVGID_245_);}
	.st265{fill:url(#SVGID_246_);}
	.st266{fill:url(#SVGID_247_);}
	.st267{fill:url(#SVGID_248_);}
	.st268{fill:url(#SVGID_249_);}
	.st269{fill:url(#SVGID_250_);}
	.st270{fill:url(#SVGID_251_);}
	.st271{fill:url(#SVGID_252_);}
	.st272{fill:url(#SVGID_253_);}
	.st273{fill:url(#SVGID_254_);}
	.st274{fill:url(#SVGID_255_);}
	.st275{fill:url(#SVGID_256_);}
	.st276{fill:url(#SVGID_257_);}
	.st277{fill:url(#SVGID_258_);}
	.st278{fill:url(#SVGID_259_);}
	.st279{fill:url(#SVGID_260_);}
	.st280{fill:url(#SVGID_261_);}
	.st281{fill:url(#SVGID_262_);}
	.st282{fill:url(#SVGID_263_);}
	.st283{fill:url(#SVGID_264_);}
	.st284{fill:#0A8074;}
	.st285{fill:#232323;}
	.st286{fill:url(#SVGID_265_);}
	.st287{fill:url(#SVGID_266_);}
	.st288{fill:url(#SVGID_267_);}
	.st289{fill:url(#SVGID_268_);}
	.st290{fill:url(#SVGID_269_);}
	.st291{fill:url(#SVGID_270_);}
	.st292{fill:url(#SVGID_271_);}
	.st293{fill:url(#SVGID_272_);}
	.st294{fill:url(#SVGID_273_);}
	.st295{fill:url(#SVGID_274_);}
	.st296{fill:url(#SVGID_275_);}
	.st297{fill:url(#SVGID_276_);}
	.st298{fill:url(#SVGID_277_);}
	.st299{fill:#0D0D0D;}
	.st300{fill:url(#SVGID_278_);}
	.st301{fill:url(#SVGID_279_);}
	.st302{fill:url(#SVGID_280_);}
	.st303{fill:url(#SVGID_281_);}
	.st304{fill:url(#SVGID_282_);}
	.st305{fill:url(#SVGID_283_);}
	.st306{fill:url(#SVGID_284_);}
	.st307{fill:url(#SVGID_285_);}
	.st308{fill:url(#SVGID_286_);}
	.st309{fill:url(#SVGID_287_);}
	.st310{fill:url(#SVGID_288_);}
	.st311{fill:url(#SVGID_289_);}
	.st312{fill:url(#SVGID_290_);}
	.st313{fill:url(#SVGID_291_);}
	.st314{fill:url(#SVGID_292_);}
	.st315{fill:url(#SVGID_293_);}
	.st316{fill:url(#SVGID_294_);}
	.st317{fill:url(#SVGID_295_);}
	.st318{opacity:0.68;fill:url(#SVGID_296_);}
	.st319{fill:url(#SVGID_297_);}
	.st320{fill:url(#SVGID_298_);}
	.st321{fill:url(#SVGID_299_);}
	.st322{fill:url(#SVGID_300_);}
	.st323{fill:url(#SVGID_301_);}
	.st324{fill:url(#SVGID_302_);}
	.st325{fill:url(#SVGID_303_);}
	.st326{fill:url(#SVGID_304_);}
	.st327{fill:url(#SVGID_305_);}
	.st328{fill:url(#SVGID_306_);}
	.st329{fill:url(#SVGID_307_);}
	.st330{fill:url(#SVGID_308_);}
	.st331{fill:url(#SVGID_309_);}
	.st332{fill:url(#SVGID_310_);}
	.st333{fill:url(#SVGID_311_);}
	.st334{fill:url(#SVGID_312_);}
	.st335{fill:url(#SVGID_313_);}
	.st336{fill:url(#SVGID_314_);}
	.st337{fill:url(#SVGID_315_);}
	.st338{fill:url(#SVGID_316_);}
	.st339{fill:url(#SVGID_317_);}
	.st340{fill:url(#SVGID_318_);}
	.st341{fill:url(#SVGID_319_);}
	.st342{fill:url(#SVGID_320_);}
	.st343{fill:url(#SVGID_321_);}
	.st344{fill:url(#SVGID_322_);}
	.st345{fill:url(#SVGID_323_);}
	.st346{fill:url(#SVGID_324_);}
	.st347{fill:url(#SVGID_325_);}
	.st348{fill:url(#SVGID_326_);}
	.st349{fill:url(#SVGID_327_);}
	.st350{fill:url(#SVGID_328_);}
	.st351{fill:url(#SVGID_329_);}
	.st352{fill:url(#SVGID_330_);}
	.st353{fill:url(#SVGID_331_);}
	.st354{fill:url(#SVGID_332_);}
	.st355{fill:url(#SVGID_333_);}
	.st356{fill:url(#SVGID_334_);}
	.st357{fill:url(#SVGID_335_);}
	.st358{fill:url(#SVGID_336_);}
	.st359{fill:url(#SVGID_337_);}
	.st360{fill:url(#SVGID_338_);}
	.st361{fill:url(#SVGID_339_);}
	.st362{fill:url(#SVGID_340_);}
	.st363{fill:url(#SVGID_341_);}
	.st364{fill:url(#SVGID_342_);}
	.st365{fill:url(#SVGID_343_);}
	.st366{fill:url(#SVGID_344_);}
	.st367{opacity:0.4;fill:url(#SVGID_345_);}
	.st368{fill:url(#XMLID_6_);}
	.st369{fill:url(#XMLID_21_);}
	.st370{fill:url(#XMLID_22_);}
	.st371{fill:#FFEECC;}
	.st372{fill:url(#XMLID_23_);}
	.st373{fill:url(#XMLID_24_);}
	.st374{fill:url(#SVGID_346_);}
	.st375{fill:url(#XMLID_25_);}
	.st376{fill:url(#XMLID_26_);}
	.st377{fill:url(#XMLID_27_);}
	.st378{fill:url(#XMLID_28_);}
	.st379{fill:url(#XMLID_29_);}
	.st380{fill:url(#SVGID_347_);}
	.st381{opacity:0.4;fill:url(#SVGID_348_);}
	.st382{opacity:0.4;fill:url(#SVGID_349_);}
	.st383{fill:url(#SVGID_350_);}
	.st384{fill:url(#SVGID_351_);}
	.st385{fill:#77D6FC;}
	.st386{fill:url(#SVGID_352_);}
	.st387{opacity:5.000000e-02;fill:#F1F1F3;}
	.st388{fill:url(#SVGID_353_);}
	.st389{fill:url(#SVGID_354_);}
	.st390{fill:url(#SVGID_355_);}
	.st391{fill:url(#SVGID_356_);}
	.st392{opacity:0.5;fill:#5BC8FF;}
	.st393{fill:#9DE5FC;}
	.st394{opacity:0.7;fill:#3DBDFC;}
	.st395{fill:url(#SVGID_357_);}
	.st396{fill:url(#SVGID_358_);}
	.st397{fill:url(#SVGID_359_);}
	.st398{fill:#EAEAEC;}
	.st399{fill:#5A6268;}
	.st400{fill:url(#SVGID_360_);}
	.st401{fill:url(#SVGID_361_);}
	.st402{fill:url(#SVGID_362_);}
	.st403{fill:url(#SVGID_363_);}
	.st404{fill:url(#SVGID_364_);}
	.st405{fill:url(#SVGID_365_);}
	.st406{fill:url(#SVGID_366_);}
	.st407{opacity:0.5;fill:#FFFFFF;}
	.st408{fill:url(#SVGID_367_);}
	.st409{fill:url(#SVGID_368_);}
	.st410{fill:url(#SVGID_369_);}
	.st411{fill:url(#SVGID_370_);}
	.st412{fill:url(#SVGID_371_);}
	.st413{fill:url(#SVGID_372_);}
	.st414{fill:url(#SVGID_373_);}
	.st415{fill:url(#SVGID_374_);}
	.st416{fill:url(#SVGID_375_);}
	.st417{fill:url(#SVGID_376_);}
	.st418{fill:url(#SVGID_377_);}
	.st419{fill:url(#SVGID_378_);}
	.st420{fill:url(#SVGID_379_);}
	.st421{fill:url(#SVGID_380_);}
	.st422{fill:url(#SVGID_381_);}
	.st423{fill:url(#SVGID_382_);}
	.st424{fill:url(#SVGID_383_);}
	.st425{fill:url(#SVGID_384_);}
	.st426{fill:url(#SVGID_385_);}
	.st427{fill:url(#SVGID_386_);}
	.st428{fill:url(#SVGID_387_);}
	.st429{fill:url(#SVGID_388_);}
	.st430{fill:url(#SVGID_389_);}
	.st431{fill:url(#SVGID_390_);}
	.st432{fill:url(#SVGID_391_);}
	.st433{fill:url(#SVGID_392_);}
	.st434{fill:url(#SVGID_393_);}
	.st435{fill:url(#SVGID_394_);}
	.st436{fill:url(#SVGID_395_);}
	.st437{fill:url(#SVGID_396_);}
	.st438{fill:url(#SVGID_397_);}
	.st439{fill:url(#SVGID_398_);}
	.st440{fill:url(#SVGID_399_);}
	.st441{fill:url(#SVGID_400_);}
	.st442{fill:url(#SVGID_401_);}
	.st443{fill:url(#SVGID_402_);}
	.st444{fill:url(#SVGID_403_);}
	.st445{fill:url(#SVGID_404_);}
	.st446{clip-path:url(#SVGID_406_);}
	.st447{fill:url(#SVGID_407_);}
	.st448{fill:url(#SVGID_408_);}
	.st449{fill:url(#SVGID_409_);}
	.st450{fill:url(#SVGID_410_);}
	.st451{filter:url(#Adobe_OpacityMaskFilter);}
	.st452{opacity:0.75;mask:url(#SVGID_411_);}
	.st453{fill:url(#SVGID_412_);}
	.st454{fill:url(#SVGID_413_);}
	.st455{fill:url(#SVGID_414_);}
	.st456{clip-path:url(#SVGID_406_);fill:url(#SVGID_415_);}
	.st457{fill:url(#SVGID_416_);}
	.st458{fill:url(#SVGID_417_);}
	.st459{fill:url(#SVGID_418_);}
	.st460{fill:url(#SVGID_419_);}
	.st461{fill:url(#SVGID_420_);}
</style>
<radialGradient id="SVGID_1_" cx="486.4666" cy="-1477.4653" r="19.174" gradientTransform="matrix(5.1653 0 0 2.7468 -2398.3574 4232.7905)" gradientUnits="userSpaceOnUse">
	<stop  offset="0" style="stop-color:#EEF2B5"/>
	<stop  offset="0.2109" style="stop-color:#F0F4BE;stop-opacity:0.7891"/>
	<stop  offset="0.5547" style="stop-color:#F6F8D6;stop-opacity:0.4453"/>
	<stop  offset="0.9866" style="stop-color:#FFFFFE;stop-opacity:1.342875e-02"/>
	<stop  offset="1" style="stop-color:#FFFFFF;stop-opacity:0"/>
</radialGradient>
<ellipse class="st0" cx="114.4" cy="174.4" rx="99" ry="52.7"/>
<g>
	<g>
		<g class="st15">
			<g>
				
					<linearGradient id="SVGID_2_" gradientUnits="userSpaceOnUse" x1="2351.9563" y1="52.1731" x2="2405.1528" y2="157.8711" gradientTransform="matrix(-1 0 0 1 2467.3564 0)">
					<stop  offset="0" style="stop-color:#DE157D"/>
					<stop  offset="0.1984" style="stop-color:#CD157D"/>
					<stop  offset="0.5911" style="stop-color:#A1157D"/>
					<stop  offset="1" style="stop-color:#6D157D"/>
				</linearGradient>
				<path style="fill:url(#SVGID_2_);" d="M29.4,146l0,0.2c0,4.4,4.7,7.1,8.5,5l74.8-41.9L36.6,152c-4.4,2.5-7.2,7.1-7.1,12.2v0
					c0,5.2,5.6,8.5,10.1,5.9l73.2-42c0,0,12.4-2.9,12.4-24.7c0-12.8-12.6-10.9-16.2-9c-17.8,9.3-55.8,29.3-72.5,39.2
					C32.1,136.1,29.4,140.9,29.4,146z"/>
			</g>
		</g>
	</g>
	<g>
		
			<linearGradient id="SVGID_3_" gradientUnits="userSpaceOnUse" x1="2315.9033" y1="70.3181" x2="2369.1001" y2="176.0161" gradientTransform="matrix(-1 0 0 1 2467.3564 0)">
			<stop  offset="0" style="stop-color:#DE157D"/>
			<stop  offset="0.1984" style="stop-color:#CD157D"/>
			<stop  offset="0.5911" style="stop-color:#A1157D"/>
			<stop  offset="1" style="stop-color:#6D157D"/>
		</linearGradient>
		<path style="fill:url(#SVGID_3_);" d="M115.9,180.1l84.3-43.9l-71.1-41.7c-6.2-3.7-13.9-3.7-20.1-0.1l-70.8,38L115.9,180.1z"/>
	</g>
	<g>
		<g class="st15">
			
				<linearGradient id="SVGID_4_" gradientUnits="userSpaceOnUse" x1="2333.0159" y1="61.7056" x2="2386.2124" y2="167.4036" gradientTransform="matrix(-1 0 0 1 2467.3564 0)">
				<stop  offset="0" style="stop-color:#DE157D"/>
				<stop  offset="0.1984" style="stop-color:#CD157D"/>
				<stop  offset="0.5911" style="stop-color:#A1157D"/>
				<stop  offset="1" style="stop-color:#6D157D"/>
			</linearGradient>
			<polygon style="fill:url(#SVGID_4_);" points="111.2,215.9 31.7,169.3 33,154.9 38.2,150.9 117.4,197.8 			"/>
			
				<linearGradient id="SVGID_5_" gradientUnits="userSpaceOnUse" x1="2384.0459" y1="169.0243" x2="2395.8674" y2="188.8427" gradientTransform="matrix(-1 0 0 1 2467.3564 0)">
				<stop  offset="0" style="stop-color:#EEF2B5"/>
				<stop  offset="1" style="stop-color:#4A69B2"/>
			</linearGradient>
			<path style="fill:url(#SVGID_5_);" d="M84.3,178.7c0,0-9.8,2.5-9.8,11.8c0,4.8,4.2,6.3,4.2,6.3l-12.5-7.4c0,0-2.2-1.8-2.2-5.2
				c0-3.4,2.1-9.6,8.8-11.8L84.3,178.7z"/>
			
				<linearGradient id="SVGID_6_" gradientUnits="userSpaceOnUse" x1="2399.2043" y1="159.9824" x2="2411.0259" y2="179.8008" gradientTransform="matrix(-1 0 0 1 2467.3564 0)">
				<stop  offset="0" style="stop-color:#EEF2B5"/>
				<stop  offset="1" style="stop-color:#4A69B2"/>
			</linearGradient>
			<path style="fill:url(#SVGID_6_);" d="M69.1,169.8c0,0-9.8,2.5-9.8,11.8c0,4.8,4.2,6.3,4.2,6.3l-12.5-7.4c0,0-2.2-1.8-2.2-5.2
				c0-3.4,2.1-9.6,8.8-11.8L69.1,169.8z"/>
			
				<linearGradient id="SVGID_7_" gradientUnits="userSpaceOnUse" x1="2414.9456" y1="150.593" x2="2426.7671" y2="170.4114" gradientTransform="matrix(-1 0 0 1 2467.3564 0)">
				<stop  offset="0" style="stop-color:#EEF2B5"/>
				<stop  offset="1" style="stop-color:#4A69B2"/>
			</linearGradient>
			<path style="fill:url(#SVGID_7_);" d="M53.3,160.5c0,0-9.8,2.5-9.8,11.8c0,4.8,4.2,6.3,4.2,6.3l-12.5-7.4c0,0-2.2-1.8-2.2-5.2
				c0-3.4,2.1-9.6,8.8-11.8L53.3,160.5z"/>
			
				<linearGradient id="SVGID_8_" gradientUnits="userSpaceOnUse" x1="2367.2295" y1="179.0551" x2="2379.051" y2="198.8735" gradientTransform="matrix(-1 0 0 1 2467.3564 0)">
				<stop  offset="0" style="stop-color:#EEF2B5"/>
				<stop  offset="1" style="stop-color:#4A69B2"/>
			</linearGradient>
			<path style="fill:url(#SVGID_8_);" d="M101.2,188.7c0,0-9.8,2.5-9.8,11.8c0,4.8,4.2,6.3,4.2,6.3l-12.5-7.4c0,0-2.2-1.8-2.2-5.2
				s2.1-9.6,8.8-11.8L101.2,188.7z"/>
			
				<linearGradient id="SVGID_9_" gradientUnits="userSpaceOnUse" x1="2394.2729" y1="181.4792" x2="2390.4688" y2="175.0815" gradientTransform="matrix(-1 0 0 1 2467.3564 0)">
				<stop  offset="0" style="stop-color:#EEF2B5;stop-opacity:0"/>
				<stop  offset="1" style="stop-color:#3169FF"/>
			</linearGradient>
			<path style="fill:url(#SVGID_9_);" d="M33,154.9l78.8,47.3c0,0-0.3-2.5,7.4-4.7c7.7-2.2-81.5-46.6-81.5-46.6S34.6,153.1,33,154.9
				z"/>
			
				<linearGradient id="SVGID_10_" gradientUnits="userSpaceOnUse" x1="2339.1438" y1="58.6214" x2="2392.3406" y2="164.3194" gradientTransform="matrix(-1 0 0 1 2467.3564 0)">
				<stop  offset="0" style="stop-color:#DE157D"/>
				<stop  offset="0.1984" style="stop-color:#CD157D"/>
				<stop  offset="0.5911" style="stop-color:#A1157D"/>
				<stop  offset="1" style="stop-color:#6D157D"/>
			</linearGradient>
			<polygon style="fill:url(#SVGID_10_);" points="111.2,197.4 31.7,150.8 38.2,132.4 115.9,180.1 			"/>
			
				<linearGradient id="SVGID_11_" gradientUnits="userSpaceOnUse" x1="2349.8621" y1="189.4147" x2="2361.6836" y2="209.2331" gradientTransform="matrix(-1 0 0 1 2467.3564 0)">
				<stop  offset="0" style="stop-color:#EEF2B5"/>
				<stop  offset="1" style="stop-color:#4A69B2"/>
			</linearGradient>
			<path style="fill:url(#SVGID_11_);" d="M117.4,197.8c0,0-8.5,3.2-8.5,13c0,4.8,4.2,6.3,4.2,6.3l-12.5-7.4c0,0-2.2-1.8-2.2-5.2
				s2.1-9.6,8.8-11.8L117.4,197.8z"/>
			<g>
				
					<linearGradient id="SVGID_12_" gradientUnits="userSpaceOnUse" x1="2241.8706" y1="124.0077" x2="2359.0422" y2="211.6258" gradientTransform="matrix(-1 0 0 1 2467.3564 0)">
					<stop  offset="0" style="stop-color:#DE157D"/>
					<stop  offset="0.1984" style="stop-color:#CD157D"/>
					<stop  offset="0.5911" style="stop-color:#A1157D"/>
					<stop  offset="1" style="stop-color:#6D157D"/>
				</linearGradient>
				<path style="fill:url(#SVGID_12_);" d="M108.8,192.6l0,0.2c0,4.4,4.7,7.1,8.5,5l74.8-41.9L116,198.6c-4.4,2.5-7.2,7.1-7.1,12.2
					v0c0,5.2,5.6,8.5,10.1,5.9l73.2-42c0,0,12.4-6.2,12.4-27.9c0-12.8-8.9-12.4-12.5-10.5c-17.8,9.3-59.5,34-76.2,43.9
					C111.5,182.7,108.8,187.5,108.8,192.6z"/>
			</g>
		</g>
	</g>
	
		<linearGradient id="SVGID_13_" gradientUnits="userSpaceOnUse" x1="2320.2307" y1="164.8448" x2="2346.655" y2="214.2169" gradientTransform="matrix(-1 0 0 1 2467.3564 0)">
		<stop  offset="0" style="stop-color:#EEF2B5"/>
		<stop  offset="1" style="stop-color:#3169FF"/>
	</linearGradient>
	<path style="fill:url(#SVGID_13_);" d="M200.2,136.2c0,0-3.4-2.3-8.1,0c-5.1,2.5-76.2,43.9-76.2,43.9s-7.1,4.6-7.1,12.5
		c0,3.6,2.4,4.8,2.4,4.8l-10-5.9c0,0-2-1.2-2-5c0-4.9,3.6-9.5,7.8-11.9c4.2-2.4,75.9-43.8,75.9-43.8s2.7-1.9,5.9-1.4L200.2,136.2z"
		/>
	
		<linearGradient id="SVGID_14_" gradientUnits="userSpaceOnUse" x1="2336.4438" y1="156.1673" x2="2362.8684" y2="205.5394" gradientTransform="matrix(-1 0 0 1 2467.3564 0)">
		<stop  offset="0" style="stop-color:#EEF2B5"/>
		<stop  offset="1" style="stop-color:#3169FF"/>
	</linearGradient>
	<path style="fill:url(#SVGID_14_);" d="M184.4,126.9c0,0-3-2.7-8.1,0c-5,2.7-76.2,43.9-76.2,43.9s-7.1,4.6-7.1,12.5
		c0,3.6,2.4,4.8,2.4,4.8l-10-5.9c0,0-2-1.2-2-5c0-4.9,3.6-9.5,7.8-11.9s75.9-43.8,75.9-43.8s2.7-1.9,5.9-1.4L184.4,126.9z"/>
	
		<linearGradient id="SVGID_15_" gradientUnits="userSpaceOnUse" x1="2352.4392" y1="147.6063" x2="2378.8638" y2="196.9784" gradientTransform="matrix(-1 0 0 1 2467.3564 0)">
		<stop  offset="0" style="stop-color:#EEF2B5"/>
		<stop  offset="1" style="stop-color:#3169FF"/>
	</linearGradient>
	<path style="fill:url(#SVGID_15_);" d="M168.7,117.7c0,0-3-2.7-8.1,0c-5,2.7-76.2,43.9-76.2,43.9s-7.1,4.6-7.1,12.5
		c0,3.6,2.4,4.8,2.4,4.8l-10-5.9c0,0-2-1.2-2-5c0-4.9,3.6-9.5,7.8-11.9s75.9-43.8,75.9-43.8s2.7-1.9,5.9-1.4L168.7,117.7z"/>
	
		<linearGradient id="SVGID_16_" gradientUnits="userSpaceOnUse" x1="2368.0732" y1="139.2389" x2="2394.4978" y2="188.611" gradientTransform="matrix(-1 0 0 1 2467.3564 0)">
		<stop  offset="0" style="stop-color:#EEF2B5"/>
		<stop  offset="1" style="stop-color:#3169FF"/>
	</linearGradient>
	<path class="st16" d="M153.4,108.7c0,0-3-2.7-8.1,0c-5,2.7-76.2,43.9-76.2,43.9s-7.1,4.6-7.1,12.5c0,3.6,2.4,4.8,2.4,4.8l-10-5.9
		c0,0-2-1.2-2-5c0-4.9,3.6-9.5,7.8-11.9s75.9-43.8,75.9-43.8s2.7-1.9,5.9-1.4L153.4,108.7z"/>
	
		<linearGradient id="SVGID_17_" gradientUnits="userSpaceOnUse" x1="2383.6628" y1="130.8952" x2="2410.0874" y2="180.2673" gradientTransform="matrix(-1 0 0 1 2467.3564 0)">
		<stop  offset="0" style="stop-color:#EEF2B5"/>
		<stop  offset="1" style="stop-color:#3169FF"/>
	</linearGradient>
	<path class="st17" d="M138.1,99.8c0,0-3-2.7-8.1,0c-5,2.7-76.2,43.9-76.2,43.9s-7.1,4.6-7.1,12.5c0,3.6,2.4,4.8,2.4,4.8l-10-5.9
		c0,0-2-1.2-2-5c0-4.9,3.6-9.5,7.8-11.9s75.9-43.8,75.9-43.8s2.7-1.9,5.9-1.4L138.1,99.8z"/>
</g>
<linearGradient id="SVGID_18_" gradientUnits="userSpaceOnUse" x1="2338.8848" y1="222.3291" x2="2309.8499" y2="173.4977" gradientTransform="matrix(-1 0 0 1 2467.3564 0)">
	<stop  offset="0" style="stop-color:#DE157D"/>
	<stop  offset="0.1984" style="stop-color:#CD157D"/>
	<stop  offset="0.5911" style="stop-color:#A1157D"/>
	<stop  offset="1" style="stop-color:#6D157D"/>
</linearGradient>
<polygon class="st18" points="192.1,156 194.3,156 192.1,155 192,152.6 190.8,155 117,197.2 117.4,197.8 "/>
<g>
	<g>
		<g>
			<g class="st15">
				<g>
					<linearGradient id="SVGID_19_" gradientUnits="userSpaceOnUse" x1="116.0416" y1="14.8746" x2="169.2383" y2="120.5726">
						<stop  offset="0" style="stop-color:#EEF2B5"/>
						<stop  offset="1" style="stop-color:#3169FF"/>
					</linearGradient>
					<path class="st20" d="M202,108.7l0,0.2c0,4.4-4.7,7.1-8.5,5l-74.8-41.9l76.1,42.6c4.4,2.5,7.2,7.1,7.1,12.2v0
						c0,5.2-5.6,8.5-10.1,5.9l-73.2-42c0,0-12.4-2.9-12.4-24.7c0-12.8,12.6-10.9,16.2-9c17.8,9.3,55.8,29.3,72.5,39.2
						C199.3,98.8,202,103.6,202,108.7z"/>
				</g>
			</g>
		</g>
		<g>
			<linearGradient id="SVGID_20_" gradientUnits="userSpaceOnUse" x1="79.9888" y1="33.0196" x2="133.1854" y2="138.7176">
				<stop  offset="0" style="stop-color:#EEF2B5"/>
				<stop  offset="1" style="stop-color:#3169FF"/>
			</linearGradient>
			<path class="st21" d="M115.5,142.8L31.2,98.9l71.1-41.7c6.2-3.7,13.9-3.7,20.1-0.1l70.8,38L115.5,142.8z"/>
		</g>
		<g>
			<g class="st15">
				<linearGradient id="SVGID_21_" gradientUnits="userSpaceOnUse" x1="97.1012" y1="24.4071" x2="150.2979" y2="130.1051">
					<stop  offset="0" style="stop-color:#EEF2B5"/>
					<stop  offset="1" style="stop-color:#3169FF"/>
				</linearGradient>
				<polygon class="st22" points="120.3,178.6 199.7,132 198.4,117.6 193.2,113.6 114.1,160.5 				"/>
				<linearGradient id="SVGID_22_" gradientUnits="userSpaceOnUse" x1="148.1314" y1="131.7258" x2="159.9529" y2="151.5442">
					<stop  offset="0" style="stop-color:#EEF2B5"/>
					<stop  offset="1" style="stop-color:#4A69B2"/>
				</linearGradient>
				<path style="fill:url(#SVGID_22_);" d="M147.1,141.4c0,0,9.8,2.5,9.8,11.8c0,4.8-4.2,6.3-4.2,6.3l12.5-7.4c0,0,2.2-1.8,2.2-5.2
					c0-3.4-2.1-9.6-8.8-11.8L147.1,141.4z"/>
				<linearGradient id="SVGID_23_" gradientUnits="userSpaceOnUse" x1="163.2898" y1="122.6839" x2="175.1113" y2="142.5023">
					<stop  offset="0" style="stop-color:#EEF2B5"/>
					<stop  offset="1" style="stop-color:#4A69B2"/>
				</linearGradient>
				<path class="st24" d="M162.3,132.5c0,0,9.8,2.5,9.8,11.8c0,4.8-4.2,6.3-4.2,6.3l12.5-7.4c0,0,2.2-1.8,2.2-5.2s-2.1-9.6-8.8-11.8
					L162.3,132.5z"/>
				<linearGradient id="SVGID_24_" gradientUnits="userSpaceOnUse" x1="179.0309" y1="113.2945" x2="190.8524" y2="133.1129">
					<stop  offset="0" style="stop-color:#EEF2B5"/>
					<stop  offset="1" style="stop-color:#4A69B2"/>
				</linearGradient>
				<path class="st25" d="M178.1,123.2c0,0,9.8,2.5,9.8,11.8c0,4.8-4.2,6.3-4.2,6.3l12.5-7.4c0,0,2.2-1.8,2.2-5.2s-2.1-9.6-8.8-11.8
					L178.1,123.2z"/>
				<linearGradient id="SVGID_25_" gradientUnits="userSpaceOnUse" x1="131.315" y1="141.7566" x2="143.1365" y2="161.575">
					<stop  offset="0" style="stop-color:#EEF2B5"/>
					<stop  offset="1" style="stop-color:#4A69B2"/>
				</linearGradient>
				<path class="st26" d="M130.3,151.4c0,0,9.8,2.5,9.8,11.8c0,4.8-4.2,6.3-4.2,6.3l12.5-7.4c0,0,2.2-1.8,2.2-5.2s-2.1-9.6-8.8-11.8
					L130.3,151.4z"/>
				<linearGradient id="SVGID_26_" gradientUnits="userSpaceOnUse" x1="158.3583" y1="144.1807" x2="154.5542" y2="137.783">
					<stop  offset="0" style="stop-color:#EEF2B5;stop-opacity:0"/>
					<stop  offset="1" style="stop-color:#3169FF"/>
				</linearGradient>
				<path class="st27" d="M198.4,117.6l-78.8,47.3c0,0,0.3-2.5-7.4-4.7c-7.7-2.2,81.5-46.6,81.5-46.6S196.8,115.8,198.4,117.6z"/>
				<linearGradient id="SVGID_27_" gradientUnits="userSpaceOnUse" x1="103.2293" y1="21.3229" x2="156.4259" y2="127.0209">
					<stop  offset="0" style="stop-color:#EEF2B5"/>
					<stop  offset="1" style="stop-color:#3169FF"/>
				</linearGradient>
				<polygon class="st28" points="120.3,160.1 199.7,113.5 193.2,95.1 115.5,142.8 				"/>
				<linearGradient id="SVGID_28_" gradientUnits="userSpaceOnUse" x1="113.9474" y1="152.1163" x2="125.7689" y2="171.9346">
					<stop  offset="0" style="stop-color:#EEF2B5"/>
					<stop  offset="1" style="stop-color:#4A69B2"/>
				</linearGradient>
				<path class="st29" d="M114.1,160.5c0,0,8.5,3.2,8.5,13c0,4.8-4.2,6.3-4.2,6.3l12.5-7.4c0,0,2.2-1.8,2.2-5.2s-2.1-9.6-8.8-11.8
					L114.1,160.5z"/>
				<g>
					<linearGradient id="SVGID_29_" gradientUnits="userSpaceOnUse" x1="5.956" y1="86.7093" x2="123.1277" y2="174.3273">
						<stop  offset="0" style="stop-color:#EEF2B5"/>
						<stop  offset="1" style="stop-color:#3169FF"/>
					</linearGradient>
					<path style="fill:url(#SVGID_29_);" d="M122.6,155.3l0,0.2c0,4.4-4.7,7.1-8.5,5l-74.8-41.9l76.1,42.6c4.4,2.5,7.2,7.1,7.1,12.2
						v0c0,5.2-5.6,8.5-10.1,5.9l-73.2-42c0,0-12.4-6.2-12.4-27.9c0-12.8,8.9-12.4,12.5-10.5c17.8,9.3,59.5,34,76.2,43.9
						C119.9,145.4,122.6,150.2,122.6,155.3z"/>
				</g>
			</g>
		</g>
		<linearGradient id="SVGID_30_" gradientUnits="userSpaceOnUse" x1="84.316" y1="127.5463" x2="110.7405" y2="176.9184">
			<stop  offset="0" style="stop-color:#EEF2B5"/>
			<stop  offset="1" style="stop-color:#3169FF"/>
		</linearGradient>
		<path class="st31" d="M31.2,98.9c0,0,3.4-2.3,8.1,0c5.1,2.5,76.2,43.9,76.2,43.9s7.1,4.6,7.1,12.5c0,3.6-2.4,4.8-2.4,4.8l10-5.9
			c0,0,2-1.2,2-5c0-4.9-3.6-9.5-7.8-11.9S48.6,93.6,48.6,93.6s-2.7-1.9-5.9-1.4L31.2,98.9z"/>
		<linearGradient id="SVGID_31_" gradientUnits="userSpaceOnUse" x1="100.5292" y1="118.8688" x2="126.9537" y2="168.2409">
			<stop  offset="0" style="stop-color:#EEF2B5"/>
			<stop  offset="1" style="stop-color:#3169FF"/>
		</linearGradient>
		<path class="st32" d="M47.1,89.6c0,0,3-2.7,8.1,0s76.2,43.9,76.2,43.9s7.1,4.6,7.1,12.5c0,3.6-2.4,4.8-2.4,4.8l10-5.9
			c0,0,2-1.2,2-5c0-4.9-3.6-9.5-7.8-11.9S64.5,84.3,64.5,84.3s-2.7-1.9-5.9-1.4L47.1,89.6z"/>
		<linearGradient id="SVGID_32_" gradientUnits="userSpaceOnUse" x1="116.5247" y1="110.3079" x2="142.9492" y2="159.6799">
			<stop  offset="0" style="stop-color:#EEF2B5"/>
			<stop  offset="1" style="stop-color:#3169FF"/>
		</linearGradient>
		<path class="st33" d="M62.7,80.4c0,0,3-2.7,8.1,0s76.2,43.9,76.2,43.9s7.1,4.6,7.1,12.5c0,3.6-2.4,4.8-2.4,4.8l10-5.9
			c0,0,2-1.2,2-5c0-4.9-3.6-9.5-7.8-11.9c-4.2-2.4-75.9-43.8-75.9-43.8s-2.7-1.9-5.9-1.4L62.7,80.4z"/>
		<linearGradient id="SVGID_33_" gradientUnits="userSpaceOnUse" x1="132.1586" y1="101.9404" x2="158.5831" y2="151.3125">
			<stop  offset="0" style="stop-color:#EEF2B5"/>
			<stop  offset="1" style="stop-color:#3169FF"/>
		</linearGradient>
		<path class="st34" d="M78,71.4c0,0,3-2.7,8.1,0c5,2.7,76.2,43.9,76.2,43.9s7.1,4.6,7.1,12.5c0,3.6-2.4,4.8-2.4,4.8l10-5.9
			c0,0,2-1.2,2-5c0-4.9-3.6-9.5-7.8-11.9c-4.2-2.4-75.9-43.8-75.9-43.8s-2.7-1.9-5.9-1.4L78,71.4z"/>
		<linearGradient id="SVGID_34_" gradientUnits="userSpaceOnUse" x1="147.7482" y1="93.5967" x2="174.1727" y2="142.9688">
			<stop  offset="0" style="stop-color:#EEF2B5"/>
			<stop  offset="1" style="stop-color:#3169FF"/>
		</linearGradient>
		<path class="st35" d="M93.3,62.5c0,0,3-2.7,8.1,0c5,2.7,76.2,43.9,76.2,43.9s7.1,4.6,7.1,12.5c0,3.6-2.4,4.8-2.4,4.8l10-5.9
			c0,0,2-1.2,2-5c0-4.9-3.6-9.5-7.8-11.9s-75.9-43.8-75.9-43.8s-2.7-1.9-5.9-1.4L93.3,62.5z"/>
	</g>
	<linearGradient id="SVGID_35_" gradientUnits="userSpaceOnUse" x1="102.9701" y1="185.0306" x2="73.9352" y2="136.1992">
		<stop  offset="0" style="stop-color:#EEF2B5;stop-opacity:0"/>
		<stop  offset="1" style="stop-color:#3169FF"/>
	</linearGradient>
	<polygon class="st36" points="39.3,118.7 37.1,118.7 39.3,117.7 39.4,115.3 40.6,117.7 114.4,159.9 114.1,160.5 	"/>
</g>
</svg>
